<?xml version="1.0" standalone="no"?>
<!DOCTYPE svg PUBLIC "-//W3C//DTD SVG 20010904//EN"
 "http://www.w3.org/TR/2001/REC-SVG-20010904/DTD/svg10.dtd">
<svg version="1.0" xmlns="http://www.w3.org/2000/svg"
 width="684.000000pt" height="684.000000pt" viewBox="0 0 684.000000 684.000000"
 preserveAspectRatio="xMidYMid meet">
<metadata>
Created by potrace 1.11, written by Peter Selinger 2001-2013
</metadata>
<g transform="translate(0.000000,684.000000) scale(0.100000,-0.100000)"
fill="#000000" stroke="none">
<path d="M4916 6829 c-26 -4 -76 -11 -110 -14 -33 -4 -74 -9 -91 -11 -16 -3
-52 -6 -80 -9 -27 -2 -66 -7 -85 -9 -19 -3 -60 -8 -90 -11 -30 -4 -66 -8 -80
-10 -14 -2 -50 -6 -80 -10 -30 -3 -89 -10 -130 -15 -41 -5 -95 -11 -120 -14
-25 -3 -67 -8 -95 -11 -27 -3 -106 -13 -175 -21 -162 -19 -173 -21 -250 -29
-36 -4 -76 -8 -90 -10 -14 -2 -108 -14 -210 -25 -102 -12 -198 -23 -215 -25
-16 -2 -52 -7 -80 -10 -54 -6 -122 -14 -170 -20 -16 -2 -57 -7 -90 -10 -33 -3
-71 -8 -85 -10 -14 -2 -52 -7 -85 -10 -33 -4 -71 -8 -85 -10 -14 -2 -50 -6
-80 -10 -123 -13 -227 -26 -260 -30 -26 -4 -111 -14 -170 -20 -66 -7 -145 -17
-170 -20 -14 -2 -70 -9 -125 -15 -55 -6 -116 -13 -135 -15 -19 -3 -60 -7 -90
-10 -30 -4 -65 -8 -76 -10 -12 -2 -48 -6 -80 -10 -33 -3 -72 -8 -89 -10 -16
-2 -75 -9 -130 -16 -107 -12 -135 -16 -149 -18 -5 0 -5 -36 -1 -78 3 -43 8
-94 10 -114 2 -20 6 -63 9 -95 11 -109 16 -169 21 -229 10 -117 16 -180 20
-220 7 -71 15 -148 20 -220 3 -38 8 -84 10 -101 3 -17 7 -67 10 -110 3 -44 8
-90 10 -104 2 -14 6 -59 10 -100 3 -41 8 -95 11 -120 2 -25 6 -70 9 -100 4
-54 9 -110 21 -220 3 -30 7 -79 9 -110 2 -30 6 -75 9 -100 3 -25 8 -72 11
-105 3 -33 8 -82 10 -110 3 -27 7 -77 10 -110 5 -57 9 -96 20 -217 2 -29 7
-75 10 -103 3 -27 7 -79 10 -115 5 -65 13 -144 20 -210 2 -19 6 -71 10 -115 3
-44 8 -96 10 -115 6 -54 14 -128 20 -205 3 -38 8 -86 10 -105 2 -19 7 -71 10
-114 4 -43 8 -86 10 -95 1 -9 6 -59 10 -111 3 -52 8 -102 10 -110 2 -8 7 -52
10 -98 3 -45 7 -97 10 -115 2 -18 7 -66 10 -107 3 -41 8 -93 10 -115 2 -22 7
-74 10 -115 3 -41 8 -86 10 -100 2 -14 6 -56 10 -95 3 -38 8 -95 11 -125 10
-108 13 -136 19 -205 3 -38 8 -88 10 -110 3 -22 7 -71 10 -110 5 -69 13 -156
21 -225 2 -19 6 -64 9 -100 5 -69 10 -118 25 -265 5 -49 12 -121 15 -160 3
-38 8 -92 11 -120 2 -27 6 -72 9 -98 2 -27 5 -50 7 -51 98 -66 101 -67 168
-61 36 4 83 8 105 10 42 3 142 12 210 19 22 2 72 7 110 10 39 4 86 8 105 11
19 2 69 7 110 10 41 4 89 8 105 9 17 2 66 6 110 10 125 12 156 15 210 20 28 3
84 8 125 11 41 3 86 8 100 10 14 2 63 7 110 10 47 4 97 8 113 10 15 2 62 7
105 10 42 4 88 8 102 10 14 2 61 7 105 10 44 4 94 8 110 10 17 1 66 6 110 9
44 4 96 9 115 11 19 2 69 7 110 10 41 3 86 8 100 10 14 2 63 7 110 10 47 4 96
8 110 10 14 2 59 7 100 10 41 3 91 8 110 10 19 2 69 7 110 10 41 3 86 8 100
10 14 2 67 7 119 10 52 4 102 8 111 10 10 2 53 6 96 10 43 3 93 8 109 10 17 2
64 6 105 10 41 3 91 8 110 10 19 2 69 7 110 10 75 6 145 12 210 20 19 2 64 7
100 10 108 11 194 58 248 138 16 23 30 44 30 47 0 3 6 19 12 35 17 45 15 195
-4 340 -2 17 -7 64 -11 105 -3 41 -8 91 -10 110 -2 19 -6 71 -10 115 -3 44 -8
96 -10 115 -5 33 -9 80 -20 208 -5 58 -11 127 -20 217 -13 134 -17 174 -20
225 -2 30 -6 73 -9 95 -3 22 -8 72 -12 110 -3 39 -7 86 -9 105 -2 19 -7 67
-10 105 -3 39 -8 91 -10 118 -11 108 -15 145 -20 212 -3 39 -8 89 -10 113 -3
23 -7 61 -10 85 -2 23 -7 83 -11 132 -3 50 -8 97 -9 105 -2 8 -6 49 -9 90 -4
41 -9 93 -11 115 -2 22 -6 68 -9 103 -13 144 -17 189 -21 222 -2 19 -7 69 -10
110 -3 41 -8 91 -10 110 -4 36 -12 115 -20 210 -10 118 -16 177 -20 220 -3 25
-7 74 -10 110 -3 36 -8 81 -10 100 -2 19 -7 71 -11 115 -3 44 -8 94 -9 110 -2
17 -6 64 -9 105 -4 41 -8 91 -11 110 -2 19 -7 64 -10 100 -3 36 -8 85 -10 110
-2 25 -7 74 -10 110 -3 36 -8 81 -10 100 -2 19 -7 69 -10 110 -3 41 -8 91 -10
110 -3 19 -7 69 -10 110 -3 41 -7 86 -10 100 -2 14 -6 63 -10 110 -4 47 -8
101 -10 120 -7 63 -17 164 -20 205 -6 64 -14 97 -37 145 -25 51 -100 127 -141
142 -15 6 -42 31 -59 57 -45 65 -67 86 -124 115 -55 28 -122 36 -198 25z"/>
</g>
</svg>
