<?xml version="1.0" encoding="utf-8"?>
<!-- Generator: Adobe Illustrator 25.2.0, SVG Export Plug-In . SVG Version: 6.00 Build 0)  -->
<svg version="1.1" id="Layer_1" xmlns="http://www.w3.org/2000/svg" xmlns:xlink="http://www.w3.org/1999/xlink" x="0px" y="0px"
	 width="200px" height="200px" viewBox="0 0 200 200" style="enable-background:new 0 0 200 200;" xml:space="preserve">
<style type="text/css">
	.st0{fill:#0E0333;}
	.st1{clip-path:url(#SVGID_2_);fill:none;stroke:#3B3058;stroke-width:2;stroke-miterlimit:10;}
	.st2{clip-path:url(#SVGID_4_);fill:none;stroke:#3B3058;stroke-width:2;stroke-miterlimit:10;}
	.st3{clip-path:url(#SVGID_4_);fill:none;stroke:#3B3058;stroke-width:3;stroke-miterlimit:10;}
	.st4{clip-path:url(#SVGID_4_);fill:none;stroke:#3B3058;stroke-width:4;stroke-miterlimit:10;}
	.st5{clip-path:url(#SVGID_4_);fill:none;stroke:#3B3058;stroke-width:5;stroke-miterlimit:10;}
	.st6{clip-path:url(#SVGID_4_);fill:none;stroke:#3B3058;stroke-width:6;stroke-miterlimit:10;}
	.st7{clip-path:url(#SVGID_4_);fill:none;stroke:#3B3058;stroke-width:7;stroke-miterlimit:10;}
	.st8{fill-rule:evenodd;clip-rule:evenodd;fill:#0E0333;}
	.st9{fill:none;stroke:#02E2AC;stroke-linecap:round;stroke-linejoin:round;stroke-dasharray:0,3.999;}
	.st10{fill:none;stroke:#02E2AC;stroke-width:1.04;stroke-linecap:round;stroke-linejoin:round;stroke-dasharray:0,3.9929;}
	.st11{fill:none;stroke:#02E2AC;stroke-width:1.08;stroke-linecap:round;stroke-linejoin:round;stroke-dasharray:0,4.0096;}
	.st12{fill:none;stroke:#02E2AC;stroke-width:1.12;stroke-linecap:round;stroke-linejoin:round;stroke-dasharray:0,4.0034;}
	.st13{fill:none;stroke:#02E2AC;stroke-width:1.16;stroke-linecap:round;stroke-linejoin:round;stroke-dasharray:0,3.9968;}
	.st14{fill:none;stroke:#02E2AC;stroke-width:1.2;stroke-linecap:round;stroke-linejoin:round;stroke-dasharray:0,3.9897;}
	.st15{fill:none;stroke:#02E2AC;stroke-width:1.24;stroke-linecap:round;stroke-linejoin:round;stroke-dasharray:0,4.009;}
	.st16{fill:none;stroke:#02E2AC;stroke-width:1.28;stroke-linecap:round;stroke-linejoin:round;stroke-dasharray:0,4.0017;}
	.st17{fill:none;stroke:#02E2AC;stroke-width:1.32;stroke-linecap:round;stroke-linejoin:round;stroke-dasharray:0,3.9938;}
	.st18{fill:none;stroke:#02E2AC;stroke-width:1.36;stroke-linecap:round;stroke-linejoin:round;stroke-dasharray:0,3.9851;}
	.st19{fill:none;stroke:#02E2AC;stroke-width:1.4;stroke-linecap:round;stroke-linejoin:round;stroke-dasharray:0,4.0082;}
	.st20{fill:none;stroke:#02E2AC;stroke-width:1.44;stroke-linecap:round;stroke-linejoin:round;stroke-dasharray:0,3.9993;}
	.st21{fill:none;stroke:#02E2AC;stroke-width:1.48;stroke-linecap:round;stroke-linejoin:round;stroke-dasharray:0,3.9894;}
	.st22{fill:none;stroke:#02E2AC;stroke-width:1.52;stroke-linecap:round;stroke-linejoin:round;stroke-dasharray:0,4.0166;}
	.st23{fill:none;stroke:#02E2AC;stroke-width:1.56;stroke-linecap:round;stroke-linejoin:round;stroke-dasharray:0,4.0062;}
	.st24{fill:none;stroke:#02E2AC;stroke-width:1.6;stroke-linecap:round;stroke-linejoin:round;stroke-dasharray:0,3.9945;}
	.st25{fill:none;stroke:#02E2AC;stroke-width:1.64;stroke-linecap:round;stroke-linejoin:round;stroke-dasharray:0,3.9813;}
	.st26{fill:none;stroke:#02E2AC;stroke-width:1.68;stroke-linecap:round;stroke-linejoin:round;stroke-dasharray:0,4.0171;}
	.st27{fill:none;stroke:#02E2AC;stroke-width:1.72;stroke-linecap:round;stroke-linejoin:round;stroke-dasharray:0,4.0036;}
	.st28{fill:none;stroke:#02E2AC;stroke-width:1.76;stroke-linecap:round;stroke-linejoin:round;stroke-dasharray:0,3.9877;}
	.st29{fill:none;stroke:#02E2AC;stroke-width:1.8;stroke-linecap:round;stroke-linejoin:round;stroke-dasharray:0,3.9686;}
	.st30{fill:none;stroke:#02E2AC;stroke-width:1.84;stroke-linecap:round;stroke-linejoin:round;stroke-dasharray:0,4.0196;}
	.st31{fill:none;stroke:#02E2AC;stroke-width:1.88;stroke-linecap:round;stroke-linejoin:round;stroke-dasharray:0,3.9993;}
	.st32{fill:none;stroke:#02E2AC;stroke-width:1.92;stroke-linecap:round;stroke-linejoin:round;stroke-dasharray:0,3.973;}
	.st33{fill:none;stroke:#02E2AC;stroke-width:1.96;stroke-linecap:round;stroke-linejoin:round;stroke-dasharray:0,4.0535;}
	.st34{fill:none;stroke:#02E2AC;stroke-width:2;stroke-linecap:round;stroke-linejoin:round;stroke-dasharray:0,4.0266;}
	.st35{fill-rule:evenodd;clip-rule:evenodd;fill:#15EBB7;}
	.st36{fill-rule:evenodd;clip-rule:evenodd;fill:#FFFFFF;}
	.st37{fill:#F35890;}
	.st38{fill:#02E2AC;}
	.st39{fill:#15EBB7;}
	.st40{fill:#FFFFFF;}
	.st41{fill:#3B3058;}
	.st42{fill:#FB8A61;}
	.st43{fill:#41B2FF;fill-opacity:0.9939;}
	.st44{fill-rule:evenodd;clip-rule:evenodd;fill:#5096C8;}
	.st45{fill-rule:evenodd;clip-rule:evenodd;fill:#FFD086;}
	.st46{fill-rule:evenodd;clip-rule:evenodd;fill:#270B0B;fill-opacity:0.9939;}
	.st47{fill-rule:evenodd;clip-rule:evenodd;fill:#CD8A03;fill-opacity:0.9939;}
	.st48{fill-rule:evenodd;clip-rule:evenodd;fill:#402801;fill-opacity:0.9939;}
	.st49{fill-rule:evenodd;clip-rule:evenodd;fill:#FBBC38;fill-opacity:0.9939;}
	.st50{fill-rule:evenodd;clip-rule:evenodd;fill:#FCC24D;fill-opacity:0.9939;}
	.st51{fill:none;}
	.st52{fill:#FABB37;}
	.st53{fill:#FFD086;}
	.st54{fill:#FBC14C;}
	.st55{fill:#CC8902;}
	.st56{fill:#4285F4;}
	.st57{fill:#34A853;}
	.st58{fill:#FBBC04;}
	.st59{fill:#EA4335;}
	.st60{fill-rule:evenodd;clip-rule:evenodd;fill:#FCCDD3;}
	.st61{filter:url(#Adobe_OpacityMaskFilter);}
	.st62{mask:url(#mask-2_1_);fill-rule:evenodd;clip-rule:evenodd;fill:#6534FF;}
	.st63{fill-rule:evenodd;clip-rule:evenodd;fill:#FEFEFE;}
	.st64{fill-rule:evenodd;clip-rule:evenodd;fill:#6534FF;}
	.st65{fill:#8C65F7;}
	.st66{fill:#6F3FF5;}
	.st67{fill:#5932C4;}
	.st68{fill:#9B95B0;}
	.st69{fill:#5BF1CD;}
	.st70{fill:#11BC92;}
	.st71{fill:#F579A6;}
	.st72{fill:#D44D6E;}
	.st73{opacity:0.5;fill:#0E0333;}
	.st74{fill:#D6D6D6;}
	.st75{fill:#FFEEA9;}
	.st76{fill:url(#SVGID_5_);}
	.st77{opacity:0.5;clip-path:url(#SVGID_7_);fill:none;stroke:url(#SVGID_8_);stroke-width:0.75;stroke-miterlimit:10;}
	.st78{opacity:0.5;clip-path:url(#SVGID_7_);fill:none;stroke:url(#SVGID_9_);stroke-width:0.75;stroke-miterlimit:10;}
	.st79{fill:none;stroke:#9B95B0;stroke-width:2;stroke-miterlimit:10;}
	.st80{fill:none;stroke:#3B3058;stroke-width:3;stroke-miterlimit:10;}
	.st81{fill:#FFFFFF;stroke:#3B3058;stroke-width:3;stroke-miterlimit:10;}
	.st82{fill:#616161;fill-opacity:0.9939;}
	.st83{fill-rule:evenodd;clip-rule:evenodd;fill:#818181;fill-opacity:0.9939;}
	.st84{fill-rule:evenodd;clip-rule:evenodd;fill:#A1A1A1;}
	.st85{fill-rule:evenodd;clip-rule:evenodd;fill:#2F2F2F;fill-opacity:0.9939;}
	.st86{fill-rule:evenodd;clip-rule:evenodd;fill:#616161;fill-opacity:0.9939;}
	.st87{fill:#3E3E3E;}
	.st88{fill:#818181;fill-opacity:0.9939;}
	.st89{fill:#2F2F2F;fill-opacity:0.9939;}
	.st90{fill:none;stroke:#02E2AC;stroke-width:3;stroke-miterlimit:10;}
	.st91{fill:#383838;}
	
		.st92{fill:none;stroke:#383838;stroke-width:3;stroke-linecap:round;stroke-linejoin:round;stroke-miterlimit:10;stroke-dasharray:0,10;}
	.st93{fill:none;stroke:#383838;stroke-width:3;stroke-miterlimit:10;}
</style>
<g id="Pattern">
</g>
<g>
	<line class="st80" x1="175" y1="59.3" x2="25" y2="140.7"/>
	<path class="st81" d="M100,140.1L100,140.1c-22.2,0-40.1-18-40.1-40.1v0c0-22.2,18-40.1,40.1-40.1h0c22.2,0,40.1,18,40.1,40.1v0
		C140.1,122.2,122.2,140.1,100,140.1z"/>
	<g>
		<path id="rect4247_3_" class="st82" d="M100,67.4c-0.1,0-0.3,0-0.4,0c-18,0.2-32.4,15-32.2,33.1c0.2,18,15,32.4,33.1,32.2
			c18-0.2,32.4-15,32.2-33.1l0,0C132.4,81.7,117.8,67.3,100,67.4z"/>
		<path id="path6598-1_2_" class="st83" d="M100,67.4c-0.1,0-0.3,0-0.4,0c-4.5,0.1-8.8,1-12.6,2.7c8.7,1.5,23.1,6.3,26.2,21.6
			l19.3,12.3c0.2-1.4,0.3-2.9,0.2-4.4l0,0C132.4,81.7,117.8,67.3,100,67.4z"/>
		<path id="path3338_2_" class="st84" d="M113.4,91.9c-11.8,18.3-25.6,23.3-42.1,23.6c5.6,10.3,16.6,17.3,29.2,17.1
			c14.9-0.2,27.3-10.3,31-23.9c-0.2-0.6-0.5-1.2-0.9-1.8C129.1,104.9,124,95.6,113.4,91.9z"/>
		<path id="path3338-8_3_" class="st85" d="M113.5,91.8c-1.8,10.8-9.3,19.7-7.5,26.7c2.2,8.8-6.8,10.8-14.1,13.2
			c2.7,0.7,5.6,1.1,8.6,1c17.1-0.2,31-13.6,32.1-30.4c-1.4-0.4-2.8-1-3.7-2C126.1,97.1,118.9,93.7,113.5,91.8z"/>
		<path id="path3338-8-0_3_" class="st86" d="M113.3,92.4c-2.3,5.3-1.3,5.7-3.2,10c-1.2,2.6-1.5,4-3.3,8.8l22.2,3.6
			c0.1-0.2,0.2-0.3,0.2-0.5c0,0,0,0,0-0.1c0.1-0.1,0.1-0.3,0.2-0.4c0,0,0-0.1,0-0.1c0.1-0.1,0.1-0.3,0.2-0.4
			c0.1-0.2,0.1-0.3,0.2-0.5c0,0,0,0,0-0.1c0.1-0.1,0.1-0.3,0.2-0.4c0,0,0,0,0-0.1c0.1-0.2,0.1-0.3,0.2-0.5c0.1-0.2,0.1-0.3,0.2-0.5
			c0,0,0,0,0,0c0.1-0.1,0.1-0.3,0.2-0.4c0,0,0,0,0-0.1c0.1-0.3,0.2-0.6,0.3-1c0,0,0,0,0,0c0,0,0,0,0,0c0.1-0.2,0.1-0.3,0.2-0.5
			c0,0,0,0,0,0c0.1-0.3,0.2-0.7,0.3-1c0,0,0,0,0,0c0,0,0,0,0,0c0-0.2,0.1-0.3,0.1-0.5c0,0,0,0,0,0c0,0,0,0,0,0
			c0.1-0.3,0.2-0.7,0.2-1.1C126.4,101.3,122.6,95.9,113.3,92.4z"/>
		<path id="path3338-8-0-6_3_" class="st85" d="M110.8,100.8l-0.9,1.5c-0.2,1.3-1.7,4.2-3.5,9.5c-2.5,7.2,5.7,3.3,6.3,3.5
			c5.5,2.5,11.4,2.7,15.4,1.5c1.4-2.4,2.5-4.9,3.3-7.6C107.3,105,133.4,106.9,110.8,100.8z"/>
		<path id="path3338-8-0-2_3_" class="st83" d="M106.5,121c-2,6.1-9.7,8.9-14.8,10.5c2.8,0.7,5.8,1.1,8.8,1.1
			c8.4-0.1,15.9-3.3,21.6-8.6C117.7,123.8,113.3,123.6,106.5,121z"/>
		<path id="path3338-8-0-2-8_3_" class="st86" d="M105.8,113.4c0,1.6-1.3,5.8,0.4,8.1c1.2,1.6,9,1.8,14.6,3.6
			c3.2-2.7,5.9-5.9,7.9-9.6C121.2,115.6,113.9,116.4,105.8,113.4z"/>
		<rect id="rect6810-6-9-2_2_" x="106.4" y="89.8" class="st87" width="2" height="2.2"/>
		<rect id="rect6810-6-9-2-9_2_" x="94.9" y="82.5" class="st87" width="1.9" height="2.1"/>
		<rect id="rect6810-6-9-2-1_2_" x="99.1" y="84" class="st87" width="2.6" height="2.6"/>
		<rect id="rect6810-6-1_2_" x="99" y="102.8" class="st88" width="4" height="4"/>
		<rect id="rect6810-6-9-2-1-7_2_" x="99.4" y="87.7" class="st88" width="2.6" height="2.6"/>
		<rect id="rect6810-0-3-5-5_2_" x="103.7" y="98.8" class="st89" width="2.1" height="2.3"/>
		<rect id="rect6810-6-9-2-1-0-7-8_2_" x="107.8" y="94.7" class="st87" width="1.6" height="1.6"/>
		<rect id="rect6810-6-9-2-1-2-9_2_" x="102.2" y="95.1" class="st88" width="2.6" height="2.6"/>
		<rect id="rect6810-6-1-6-5_2_" x="92" y="108.7" class="st88" width="3.3" height="3.5"/>
		<rect id="rect6810-6-1-6-3-2_2_" x="95.1" y="103.6" class="st88" width="2.3" height="2.6"/>
		<rect id="rect6810-0-3-5-4-3-3_2_" x="97.8" y="99.2" class="st89" width="2.1" height="2.1"/>
		<rect id="rect6810-6-9-2-9-2-7-8-8-5_2_" x="104.4" y="91.7" class="st87" width="1.7" height="1.9"/>
		<rect id="rect6810-0-3-5-4-3-3-9_2_" x="103.9" y="86.9" class="st89" width="2.1" height="2.1"/>
	</g>
	<g>
		<path class="st41" d="M53.5,48.2c-0.1-0.1-0.1-0.1-0.2-0.2l-3.2-9.8c0,0,0-0.1,0-0.1c0-0.1,0-0.2,0.1-0.2c0.1-0.1,0.2-0.1,0.2-0.1
			h1c0.1,0,0.2,0,0.3,0.1c0.1,0.1,0.1,0.1,0.2,0.2l2.4,7.7l2.4-7.7c0-0.1,0.1-0.2,0.2-0.2c0.1-0.1,0.2-0.1,0.3-0.1h1.1
			c0.1,0,0.2,0,0.2,0.1c0.1,0.1,0.1,0.1,0.1,0.2c0,0,0,0.1,0,0.1L55.4,48c0,0.1-0.1,0.2-0.2,0.2c-0.1,0.1-0.2,0.1-0.3,0.1h-1.1
			C53.7,48.3,53.6,48.3,53.5,48.2z"/>
		<path class="st41" d="M61.2,47.8c-0.5-0.3-1-0.7-1.3-1.3c-0.3-0.5-0.5-1.1-0.5-1.8v-1.6c0-0.6,0.2-1.2,0.5-1.8
			c0.3-0.5,0.7-1,1.3-1.3c0.5-0.3,1.1-0.5,1.8-0.5c0.6,0,1.2,0.2,1.8,0.5c0.5,0.3,1,0.7,1.3,1.3c0.3,0.5,0.5,1.1,0.5,1.8v1
			c0,0.2-0.1,0.3-0.2,0.4c-0.1,0.1-0.3,0.2-0.4,0.2h-4.6v0.1c0,0.5,0.2,0.9,0.5,1.2c0.3,0.3,0.7,0.5,1.2,0.5h2.3
			c0.1,0,0.2,0,0.2,0.1c0.1,0.1,0.1,0.1,0.1,0.2v1.1c0,0.1,0,0.2-0.1,0.2c-0.1,0.1-0.1,0.1-0.2,0.1H63
			C62.4,48.3,61.8,48.1,61.2,47.8z M64.7,43.2v-0.1c0-0.5-0.2-0.9-0.5-1.2c-0.3-0.3-0.7-0.5-1.2-0.5c-0.5,0-0.9,0.2-1.2,0.5
			c-0.3,0.3-0.5,0.7-0.5,1.2v0.1H64.7z"/>
		<path class="st41" d="M68.1,48.2C68,48.1,68,48,68,47.9v-1.1c0-0.1,0-0.2,0.1-0.2c0.1-0.1,0.1-0.1,0.2-0.1h1.1v-5.1h-1.3
			c-0.1,0-0.2,0-0.2-0.1c-0.1-0.1-0.1-0.1-0.1-0.2v-1c0-0.1,0-0.2,0.1-0.2c0.1-0.1,0.1-0.1,0.2-0.1h2.3c0.2,0,0.3,0.1,0.4,0.2
			c0.1,0.1,0.2,0.3,0.2,0.4V41l0.8-0.6c0.3-0.2,0.5-0.4,0.8-0.5c0.2-0.1,0.5-0.1,0.8-0.1h0.5c0.1,0,0.2,0,0.2,0.1
			c0.1,0.1,0.1,0.1,0.1,0.2v1.1c0,0.1,0,0.2-0.1,0.2c-0.1,0.1-0.1,0.1-0.2,0.1h-0.4c-0.3,0-0.5,0-0.7,0.1c-0.2,0.1-0.5,0.3-0.9,0.6
			l-0.8,0.6v3.7h1.5c0.1,0,0.2,0,0.2,0.1c0.1,0.1,0.1,0.1,0.1,0.2v1.1c0,0.1,0,0.2-0.1,0.2c-0.1,0.1-0.1,0.1-0.2,0.1h-4.3
			C68.2,48.3,68.1,48.2,68.1,48.2z"/>
		<path class="st41" d="M77.1,48c-0.1-0.1-0.2-0.3-0.2-0.5v-6h-1.2c-0.1,0-0.2,0-0.2-0.1c-0.1-0.1-0.1-0.1-0.1-0.2v-1.1
			c0-0.1,0-0.2,0.1-0.2c0.1-0.1,0.1-0.1,0.2-0.1h2.2c0.2,0,0.4,0.1,0.5,0.2c0.1,0.1,0.2,0.3,0.2,0.5v6h1.2c0.1,0,0.2,0,0.2,0.1
			c0.1,0.1,0.1,0.1,0.1,0.2v1.1c0,0.1,0,0.2-0.1,0.2c-0.1,0.1-0.1,0.1-0.2,0.1h-2.2C77.4,48.3,77.2,48.2,77.1,48z M77,38.8
			c-0.1-0.1-0.1-0.1-0.1-0.2v-1.6c0-0.1,0-0.2,0.1-0.2c0.1-0.1,0.1-0.1,0.2-0.1h1c0.1,0,0.2,0,0.2,0.1c0.1,0.1,0.1,0.1,0.1,0.2v1.6
			c0,0.1,0,0.2-0.1,0.2c-0.1,0.1-0.1,0.1-0.2,0.1h-1C77.1,38.8,77.1,38.8,77,38.8z"/>
		<path class="st41" d="M82.5,48.2c-0.1-0.1-0.1-0.1-0.1-0.2v-6.5h-1.2c-0.1,0-0.2,0-0.2-0.1c-0.1-0.1-0.1-0.1-0.1-0.2v-1
			c0-0.1,0-0.2,0.1-0.2c0.1-0.1,0.1-0.1,0.2-0.1h1.2v-0.5c0-0.8,0.2-1.4,0.7-1.9c0.5-0.5,1.1-0.7,1.9-0.7h1.4c0.1,0,0.2,0,0.2,0.1
			c0.1,0.1,0.1,0.1,0.1,0.2v1c0,0.1,0,0.2-0.1,0.2c-0.1,0.1-0.1,0.1-0.2,0.1H85c-0.2,0-0.4,0.1-0.6,0.2s-0.2,0.4-0.2,0.6v0.6h5.4
			c0.2,0,0.4,0.1,0.5,0.2c0.1,0.1,0.2,0.3,0.2,0.5v6h1.2c0.1,0,0.2,0,0.2,0.1c0.1,0.1,0.1,0.1,0.1,0.2v1.1c0,0.1,0,0.2-0.1,0.2
			c-0.1,0.1-0.1,0.1-0.2,0.1h-2.2c-0.2,0-0.4-0.1-0.5-0.2c-0.1-0.1-0.2-0.3-0.2-0.5v-6h-4.4v6.5c0,0.1,0,0.2-0.1,0.2
			c-0.1,0.1-0.1,0.1-0.2,0.1h-1.1C82.6,48.3,82.6,48.2,82.5,48.2z M88.7,38.8c-0.1-0.1-0.1-0.1-0.1-0.2v-1.7c0-0.1,0-0.2,0.1-0.2
			c0.1-0.1,0.1-0.1,0.2-0.1H90c0.1,0,0.2,0,0.2,0.1c0.1,0.1,0.1,0.1,0.1,0.2v1.7c0,0.1,0,0.2-0.1,0.2c-0.1,0.1-0.1,0.1-0.2,0.1h-1.1
			C88.8,38.9,88.7,38.8,88.7,38.8z"/>
		<path class="st41" d="M94.7,47.8c-0.5-0.3-1-0.7-1.3-1.3C93.1,46,93,45.4,93,44.7v-1.6c0-0.6,0.2-1.2,0.5-1.8
			c0.3-0.5,0.7-1,1.3-1.3c0.5-0.3,1.1-0.5,1.8-0.5c0.6,0,1.2,0.2,1.8,0.5c0.5,0.3,1,0.7,1.3,1.3c0.3,0.5,0.5,1.1,0.5,1.8v1
			c0,0.2-0.1,0.3-0.2,0.4c-0.1,0.1-0.3,0.2-0.4,0.2h-4.6v0.1c0,0.5,0.2,0.9,0.5,1.2c0.3,0.3,0.7,0.5,1.2,0.5h2.3
			c0.1,0,0.2,0,0.2,0.1c0.1,0.1,0.1,0.1,0.1,0.2v1.1c0,0.1,0,0.2-0.1,0.2c-0.1,0.1-0.1,0.1-0.2,0.1h-2.3
			C95.8,48.3,95.3,48.1,94.7,47.8z M98.2,43.2v-0.1c0-0.5-0.2-0.9-0.5-1.2c-0.3-0.3-0.7-0.5-1.2-0.5c-0.5,0-0.9,0.2-1.2,0.5
			c-0.3,0.3-0.5,0.7-0.5,1.2v0.1H98.2z"/>
		<path class="st41" d="M103.3,48c-0.5-0.3-0.9-0.7-1.2-1.2c-0.3-0.5-0.4-1.1-0.4-1.7v-2c0-0.6,0.1-1.2,0.4-1.7
			c0.3-0.5,0.7-0.9,1.2-1.2c0.5-0.3,1-0.5,1.6-0.5c0.4,0,0.7,0.1,1.1,0.2c0.3,0.1,0.6,0.3,0.9,0.5v-3c0-0.1,0-0.2,0.1-0.2
			c0.1-0.1,0.1-0.1,0.2-0.1h1.1c0.1,0,0.2,0,0.2,0.1c0.1,0.1,0.1,0.1,0.1,0.2v10.6c0,0.1,0,0.2-0.1,0.2c-0.1,0.1-0.1,0.1-0.2,0.1h-1
			c-0.1,0-0.2,0-0.2-0.1c-0.1-0.1-0.1-0.1-0.1-0.2v-0.7c-0.3,0.4-0.6,0.7-1,0.9c-0.4,0.2-0.8,0.3-1.2,0.3
			C104.3,48.4,103.8,48.3,103.3,48z M106.4,46.2c0.3-0.3,0.5-0.7,0.5-1.2v-2c0-0.5-0.2-0.9-0.5-1.2s-0.8-0.5-1.2-0.5
			c-0.5,0-0.9,0.2-1.2,0.5c-0.3,0.3-0.5,0.7-0.5,1.2v2c0,0.5,0.2,0.9,0.5,1.2c0.3,0.3,0.7,0.5,1.2,0.5
			C105.6,46.8,106,46.6,106.4,46.2z"/>
		<path class="st41" d="M116.9,48.3c-0.2,0-0.4-0.1-0.5-0.3l-2.6-7.7c0-0.1,0-0.1,0-0.1c0-0.1,0-0.2,0.1-0.2
			c0.1-0.1,0.2-0.1,0.3-0.1h1c0.1,0,0.2,0,0.3,0.1c0.1,0.1,0.1,0.1,0.2,0.2l1.8,5.9l1.6-5.9c0-0.1,0.1-0.2,0.2-0.2
			c0.1-0.1,0.2-0.1,0.3-0.1h1c0.1,0,0.2,0,0.3,0.1c0.1,0.1,0.1,0.1,0.2,0.2l1.8,5.9l1.7-5.9c0-0.1,0.1-0.2,0.2-0.2
			c0.1-0.1,0.2-0.1,0.3-0.1h1c0.1,0,0.2,0,0.3,0.1c0.1,0.1,0.1,0.1,0.1,0.2c0,0,0,0.1,0,0.1l-2.4,7.7c0,0.1-0.1,0.2-0.2,0.2
			c-0.1,0.1-0.2,0.1-0.3,0.1l-1.2,0c-0.1,0-0.2,0-0.3-0.1c-0.1-0.1-0.1-0.1-0.2-0.2l-1.7-5.6l-1.6,5.6c0,0.1-0.1,0.2-0.2,0.2
			c-0.1,0.1-0.2,0.1-0.3,0.1L116.9,48.3z"/>
		<path class="st41" d="M129.3,48c-0.1-0.1-0.2-0.3-0.2-0.5v-6h-1.2c-0.1,0-0.2,0-0.2-0.1c-0.1-0.1-0.1-0.1-0.1-0.2v-1.1
			c0-0.1,0-0.2,0.1-0.2c0.1-0.1,0.1-0.1,0.2-0.1h2.2c0.2,0,0.4,0.1,0.5,0.2c0.1,0.1,0.2,0.3,0.2,0.5v6h1.2c0.1,0,0.2,0,0.2,0.1
			c0.1,0.1,0.1,0.1,0.1,0.2v1.1c0,0.1,0,0.2-0.1,0.2c-0.1,0.1-0.1,0.1-0.2,0.1h-2.2C129.6,48.3,129.4,48.2,129.3,48z M129.2,38.8
			c-0.1-0.1-0.1-0.1-0.1-0.2v-1.6c0-0.1,0-0.2,0.1-0.2c0.1-0.1,0.1-0.1,0.2-0.1h1c0.1,0,0.2,0,0.2,0.1c0.1,0.1,0.1,0.1,0.1,0.2v1.6
			c0,0.1,0,0.2-0.1,0.2c-0.1,0.1-0.1,0.1-0.2,0.1h-1C129.4,38.8,129.3,38.8,129.2,38.8z"/>
		<path class="st41" d="M135.1,47.5c-0.5-0.5-0.7-1.1-0.7-1.9v-4.2h-1c-0.1,0-0.2,0-0.2-0.1c-0.1-0.1-0.1-0.1-0.1-0.2v-1
			c0-0.1,0-0.2,0.1-0.2c0.1-0.1,0.1-0.1,0.2-0.1h1v-1.6c0-0.1,0-0.2,0.1-0.2c0.1-0.1,0.1-0.1,0.2-0.1h1.1c0.1,0,0.2,0,0.2,0.1
			c0.1,0.1,0.1,0.1,0.1,0.2v1.6h2.5c0.1,0,0.2,0,0.2,0.1c0.1,0.1,0.1,0.1,0.1,0.2v1c0,0.1,0,0.2-0.1,0.2c-0.1,0.1-0.1,0.1-0.2,0.1
			h-2.5v4.1c0,0.3,0.1,0.5,0.3,0.7c0.2,0.2,0.4,0.3,0.7,0.3l1.5,0c0.1,0,0.2,0,0.2,0.1c0.1,0.1,0.1,0.1,0.1,0.2v1
			c0,0.1,0,0.2-0.1,0.2c-0.1,0.1-0.1,0.1-0.2,0.1h-1.7C136.2,48.3,135.6,48,135.1,47.5z"/>
		<path class="st41" d="M140.9,48.2c-0.1-0.1-0.1-0.1-0.1-0.2V37.3c0-0.1,0-0.2,0.1-0.2c0.1-0.1,0.1-0.1,0.2-0.1h1.1
			c0.1,0,0.2,0,0.2,0.1c0.1,0.1,0.1,0.1,0.1,0.2v3.2c0.3-0.3,0.6-0.5,1-0.7c0.4-0.2,0.7-0.2,1.1-0.2c0.6,0,1.1,0.1,1.6,0.4
			c0.5,0.3,0.8,0.6,1.1,1.1c0.3,0.5,0.4,1,0.4,1.6v5.2c0,0.1,0,0.2-0.1,0.2c-0.1,0.1-0.1,0.1-0.2,0.1h-1.1c-0.1,0-0.2,0-0.2-0.1
			c-0.1-0.1-0.1-0.1-0.1-0.2v-5c0-0.5-0.1-0.9-0.4-1.2c-0.3-0.3-0.6-0.4-1.1-0.4c-0.6,0-1,0.2-1.4,0.6c-0.3,0.4-0.5,0.9-0.5,1.6v4.5
			c0,0.1,0,0.2-0.1,0.2c-0.1,0.1-0.1,0.1-0.2,0.1h-1.1C141,48.3,140.9,48.2,140.9,48.2z"/>
	</g>
	<g>
		<path class="st41" d="M56.3,165.4c-0.2-0.2-0.3-0.4-0.3-0.6v-13.3c0-0.3,0.1-0.5,0.3-0.6c0.2-0.2,0.4-0.3,0.6-0.3h4.2
			c1.1,0,2.1,0.3,3,0.8c0.9,0.5,1.6,1.2,2.1,2.1c0.5,0.9,0.8,1.9,0.8,3v3.3c0,1.1-0.3,2.1-0.8,3c-0.5,0.9-1.2,1.6-2.1,2.1
			c-0.9,0.5-1.9,0.8-3,0.8H57C56.7,165.6,56.5,165.5,56.3,165.4z M61,163.2c0.6,0,1.2-0.2,1.7-0.5c0.5-0.3,0.9-0.7,1.2-1.2
			c0.3-0.5,0.5-1.1,0.5-1.7v-3.4c0-0.6-0.2-1.2-0.5-1.7c-0.3-0.5-0.7-0.9-1.2-1.2c-0.5-0.3-1.1-0.5-1.7-0.5h-2.4v10.2H61z"/>
		<path class="st41" d="M72.6,165.1c-0.9-0.5-1.5-1.2-2-2.2c-0.5-0.9-0.7-1.9-0.7-3.1v-9c0-0.1,0-0.2,0.1-0.3
			c0.1-0.1,0.2-0.1,0.3-0.1H72c0.1,0,0.2,0,0.3,0.1c0.1,0.1,0.1,0.2,0.1,0.3v9.1c0,1,0.3,1.8,0.8,2.5c0.6,0.6,1.3,0.9,2.2,0.9
			c0.9,0,1.6-0.3,2.2-0.9c0.6-0.6,0.8-1.4,0.8-2.5v-9.1c0-0.1,0-0.2,0.1-0.3c0.1-0.1,0.2-0.1,0.3-0.1h1.7c0.1,0,0.2,0,0.3,0.1
			c0.1,0.1,0.1,0.2,0.1,0.3v9c0,1.1-0.2,2.2-0.7,3.1c-0.5,0.9-1.2,1.6-2,2.2c-0.9,0.5-1.8,0.8-2.9,0.8
			C74.5,165.9,73.5,165.7,72.6,165.1z"/>
		<path class="st41" d="M84.6,165.5c-0.1-0.1-0.1-0.2-0.1-0.3v-14.1c0-0.2,0.1-0.3,0.2-0.4c0.1-0.1,0.3-0.2,0.4-0.2h1.7
			c0.2,0,0.4,0.1,0.6,0.3l5.1,8.6l1,1.8v-10.3c0-0.1,0-0.2,0.1-0.3c0.1-0.1,0.2-0.1,0.3-0.1h1.5c0.1,0,0.2,0,0.3,0.1
			c0.1,0.1,0.1,0.2,0.1,0.3V165c0,0.2-0.1,0.3-0.2,0.4c-0.1,0.1-0.3,0.2-0.4,0.2h-1.8c-0.2,0-0.4-0.1-0.6-0.3l-5.3-8.9l-0.8-1.4
			v10.2c0,0.1,0,0.3-0.1,0.3c-0.1,0.1-0.2,0.1-0.3,0.1H85C84.8,165.6,84.7,165.6,84.6,165.5z"/>
		<path class="st41" d="M99,165.5c-0.1-0.1-0.1-0.2-0.1-0.3v-1.5c0-0.1,0-0.2,0.1-0.3c0.1-0.1,0.2-0.1,0.3-0.1h1.8v-10.4h-1.8
			c-0.1,0-0.2,0-0.3-0.1c-0.1-0.1-0.1-0.2-0.1-0.3v-1.5c0-0.1,0-0.2,0.1-0.3c0.1-0.1,0.2-0.1,0.3-0.1h6.2c0.1,0,0.2,0,0.3,0.1
			c0.1,0.1,0.1,0.2,0.1,0.3v1.5c0,0.1,0,0.2-0.1,0.3c-0.1,0.1-0.2,0.1-0.3,0.1h-1.8v10.4h1.8c0.1,0,0.2,0,0.3,0.1s0.1,0.2,0.1,0.3
			v1.5c0,0.1,0,0.2-0.1,0.3c-0.1,0.1-0.2,0.1-0.3,0.1h-6.2C99.2,165.6,99.1,165.6,99,165.5z"/>
		<path class="st41" d="M112.2,165.5c-0.1-0.1-0.1-0.2-0.1-0.3V153h-3.6c-0.1,0-0.2,0-0.3-0.1c-0.1-0.1-0.1-0.2-0.1-0.3v-1.6
			c0-0.1,0-0.2,0.1-0.3c0.1-0.1,0.2-0.1,0.3-0.1h9.7c0.1,0,0.2,0,0.3,0.1c0.1,0.1,0.1,0.2,0.1,0.3v1.6c0,0.1,0,0.2-0.1,0.3
			c-0.1,0.1-0.2,0.1-0.3,0.1h-3.6v12.2c0,0.1,0,0.2-0.1,0.3c-0.1,0.1-0.2,0.1-0.3,0.1h-1.7C112.4,165.6,112.3,165.6,112.2,165.5z"/>
		<path class="st41" d="M121.5,165.4c-0.2-0.2-0.3-0.4-0.3-0.6v-13.3c0-0.3,0.1-0.5,0.3-0.6c0.2-0.2,0.4-0.3,0.6-0.3h7.2
			c0.1,0,0.2,0,0.3,0.1c0.1,0.1,0.1,0.2,0.1,0.3v1.6c0,0.1,0,0.2-0.1,0.3c-0.1,0.1-0.2,0.1-0.3,0.1h-5.6v3.6h4.1
			c0.1,0,0.2,0,0.3,0.1c0.1,0.1,0.1,0.2,0.1,0.3v1.5c0,0.1,0,0.2-0.1,0.3c-0.1,0.1-0.2,0.1-0.3,0.1h-4.1v4.2h5.6
			c0.1,0,0.2,0,0.3,0.1c0.1,0.1,0.1,0.2,0.1,0.3v1.6c0,0.1,0,0.2-0.1,0.3c-0.1,0.1-0.2,0.1-0.3,0.1h-7.2
			C121.8,165.6,121.6,165.5,121.5,165.4z"/>
		<path class="st41" d="M132.8,165.5c-0.1-0.1-0.1-0.2-0.1-0.3v-13.8c0-0.3,0.1-0.5,0.3-0.6c0.2-0.2,0.4-0.3,0.6-0.3h4
			c0.9,0,1.7,0.2,2.4,0.6c0.7,0.4,1.3,1,1.7,1.7c0.4,0.7,0.6,1.5,0.6,2.3c0,1-0.3,1.9-0.9,2.7c-0.6,0.8-1.4,1.3-2.4,1.6l3.5,5.4
			c0.1,0.1,0.1,0.2,0.1,0.3c0,0.1,0,0.2-0.1,0.3c-0.1,0.1-0.2,0.1-0.3,0.1h-1.7c-0.2,0-0.4-0.1-0.6-0.3l-3.5-5.7h-1v5.5
			c0,0.1,0,0.2-0.1,0.3c-0.1,0.1-0.2,0.1-0.3,0.1h-1.7C133,165.6,132.9,165.6,132.8,165.5z M137.4,157.2c0.6,0,1.2-0.2,1.6-0.6
			c0.4-0.4,0.6-0.9,0.6-1.5c0-0.6-0.2-1.2-0.6-1.6c-0.4-0.4-1-0.6-1.6-0.6h-2.2v4.3H137.4z"/>
	</g>
	<rect x="25" y="59.3" class="st80" width="150" height="81.4"/>
	<rect x="25" y="25" class="st80" width="150" height="150"/>
	<line class="st80" x1="146.5" y1="158.6" x2="175" y2="158.6"/>
	<line class="st80" x1="25" y1="158.6" x2="49.8" y2="158.6"/>
	<line class="st80" x1="156.8" y1="43.5" x2="175" y2="43.5"/>
	<line class="st80" x1="25" y1="43.5" x2="43.2" y2="43.5"/>
</g>
</svg>
