<?xml version="1.0" encoding="utf-8"?>
<!-- Generator: Adobe Illustrator 25.2.0, SVG Export Plug-In . SVG Version: 6.00 Build 0)  -->
<svg version="1.1" id="Layer_1" xmlns="http://www.w3.org/2000/svg" xmlns:xlink="http://www.w3.org/1999/xlink" x="0px" y="0px"
	 width="200px" height="200px" viewBox="0 0 200 200" style="enable-background:new 0 0 200 200;" xml:space="preserve">
<style type="text/css">
	.st0{fill:#0E0333;}
	.st1{clip-path:url(#SVGID_2_);fill:none;stroke:#3B3058;stroke-width:2;stroke-miterlimit:10;}
	.st2{clip-path:url(#SVGID_4_);fill:none;stroke:#3B3058;stroke-width:2;stroke-miterlimit:10;}
	.st3{clip-path:url(#SVGID_4_);fill:none;stroke:#3B3058;stroke-width:3;stroke-miterlimit:10;}
	.st4{clip-path:url(#SVGID_4_);fill:none;stroke:#3B3058;stroke-width:4;stroke-miterlimit:10;}
	.st5{clip-path:url(#SVGID_4_);fill:none;stroke:#3B3058;stroke-width:5;stroke-miterlimit:10;}
	.st6{clip-path:url(#SVGID_4_);fill:none;stroke:#3B3058;stroke-width:6;stroke-miterlimit:10;}
	.st7{clip-path:url(#SVGID_4_);fill:none;stroke:#3B3058;stroke-width:7;stroke-miterlimit:10;}
	.st8{fill-rule:evenodd;clip-rule:evenodd;fill:#0E0333;}
	.st9{fill:none;stroke:#02E2AC;stroke-linecap:round;stroke-linejoin:round;stroke-dasharray:0,3.999;}
	.st10{fill:none;stroke:#02E2AC;stroke-width:1.04;stroke-linecap:round;stroke-linejoin:round;stroke-dasharray:0,3.9929;}
	.st11{fill:none;stroke:#02E2AC;stroke-width:1.08;stroke-linecap:round;stroke-linejoin:round;stroke-dasharray:0,4.0096;}
	.st12{fill:none;stroke:#02E2AC;stroke-width:1.12;stroke-linecap:round;stroke-linejoin:round;stroke-dasharray:0,4.0034;}
	.st13{fill:none;stroke:#02E2AC;stroke-width:1.16;stroke-linecap:round;stroke-linejoin:round;stroke-dasharray:0,3.9968;}
	.st14{fill:none;stroke:#02E2AC;stroke-width:1.2;stroke-linecap:round;stroke-linejoin:round;stroke-dasharray:0,3.9897;}
	.st15{fill:none;stroke:#02E2AC;stroke-width:1.24;stroke-linecap:round;stroke-linejoin:round;stroke-dasharray:0,4.009;}
	.st16{fill:none;stroke:#02E2AC;stroke-width:1.28;stroke-linecap:round;stroke-linejoin:round;stroke-dasharray:0,4.0017;}
	.st17{fill:none;stroke:#02E2AC;stroke-width:1.32;stroke-linecap:round;stroke-linejoin:round;stroke-dasharray:0,3.9938;}
	.st18{fill:none;stroke:#02E2AC;stroke-width:1.36;stroke-linecap:round;stroke-linejoin:round;stroke-dasharray:0,3.9851;}
	.st19{fill:none;stroke:#02E2AC;stroke-width:1.4;stroke-linecap:round;stroke-linejoin:round;stroke-dasharray:0,4.0082;}
	.st20{fill:none;stroke:#02E2AC;stroke-width:1.44;stroke-linecap:round;stroke-linejoin:round;stroke-dasharray:0,3.9993;}
	.st21{fill:none;stroke:#02E2AC;stroke-width:1.48;stroke-linecap:round;stroke-linejoin:round;stroke-dasharray:0,3.9894;}
	.st22{fill:none;stroke:#02E2AC;stroke-width:1.52;stroke-linecap:round;stroke-linejoin:round;stroke-dasharray:0,4.0166;}
	.st23{fill:none;stroke:#02E2AC;stroke-width:1.56;stroke-linecap:round;stroke-linejoin:round;stroke-dasharray:0,4.0062;}
	.st24{fill:none;stroke:#02E2AC;stroke-width:1.6;stroke-linecap:round;stroke-linejoin:round;stroke-dasharray:0,3.9945;}
	.st25{fill:none;stroke:#02E2AC;stroke-width:1.64;stroke-linecap:round;stroke-linejoin:round;stroke-dasharray:0,3.9813;}
	.st26{fill:none;stroke:#02E2AC;stroke-width:1.68;stroke-linecap:round;stroke-linejoin:round;stroke-dasharray:0,4.0171;}
	.st27{fill:none;stroke:#02E2AC;stroke-width:1.72;stroke-linecap:round;stroke-linejoin:round;stroke-dasharray:0,4.0036;}
	.st28{fill:none;stroke:#02E2AC;stroke-width:1.76;stroke-linecap:round;stroke-linejoin:round;stroke-dasharray:0,3.9877;}
	.st29{fill:none;stroke:#02E2AC;stroke-width:1.8;stroke-linecap:round;stroke-linejoin:round;stroke-dasharray:0,3.9686;}
	.st30{fill:none;stroke:#02E2AC;stroke-width:1.84;stroke-linecap:round;stroke-linejoin:round;stroke-dasharray:0,4.0196;}
	.st31{fill:none;stroke:#02E2AC;stroke-width:1.88;stroke-linecap:round;stroke-linejoin:round;stroke-dasharray:0,3.9993;}
	.st32{fill:none;stroke:#02E2AC;stroke-width:1.92;stroke-linecap:round;stroke-linejoin:round;stroke-dasharray:0,3.973;}
	.st33{fill:none;stroke:#02E2AC;stroke-width:1.96;stroke-linecap:round;stroke-linejoin:round;stroke-dasharray:0,4.0535;}
	.st34{fill:none;stroke:#02E2AC;stroke-width:2;stroke-linecap:round;stroke-linejoin:round;stroke-dasharray:0,4.0266;}
	.st35{fill-rule:evenodd;clip-rule:evenodd;fill:#15EBB7;}
	.st36{fill-rule:evenodd;clip-rule:evenodd;fill:#FFFFFF;}
	.st37{fill:#F35890;}
	.st38{fill:#02E2AC;}
	.st39{fill:#15EBB7;}
	.st40{fill:#FFFFFF;}
	.st41{fill:#3B3058;}
	.st42{fill:#FB8A61;}
	.st43{fill:#41B2FF;fill-opacity:0.9939;}
	.st44{fill-rule:evenodd;clip-rule:evenodd;fill:#5096C8;}
	.st45{fill-rule:evenodd;clip-rule:evenodd;fill:#FFD086;}
	.st46{fill-rule:evenodd;clip-rule:evenodd;fill:#270B0B;fill-opacity:0.9939;}
	.st47{fill-rule:evenodd;clip-rule:evenodd;fill:#CD8A03;fill-opacity:0.9939;}
	.st48{fill-rule:evenodd;clip-rule:evenodd;fill:#402801;fill-opacity:0.9939;}
	.st49{fill-rule:evenodd;clip-rule:evenodd;fill:#FBBC38;fill-opacity:0.9939;}
	.st50{fill-rule:evenodd;clip-rule:evenodd;fill:#FCC24D;fill-opacity:0.9939;}
	.st51{fill:none;}
	.st52{fill:#FABB37;}
	.st53{fill:#FFD086;}
	.st54{fill:#FBC14C;}
	.st55{fill:#CC8902;}
	.st56{fill:#4285F4;}
	.st57{fill:#34A853;}
	.st58{fill:#FBBC04;}
	.st59{fill:#EA4335;}
	.st60{fill-rule:evenodd;clip-rule:evenodd;fill:#FCCDD3;}
	.st61{filter:url(#Adobe_OpacityMaskFilter);}
	.st62{mask:url(#mask-2_1_);fill-rule:evenodd;clip-rule:evenodd;fill:#6534FF;}
	.st63{fill-rule:evenodd;clip-rule:evenodd;fill:#FEFEFE;}
	.st64{fill-rule:evenodd;clip-rule:evenodd;fill:#6534FF;}
	.st65{fill:#8C65F7;}
	.st66{fill:#6F3FF5;}
	.st67{fill:#5932C4;}
	.st68{fill:#9B95B0;}
	.st69{fill:#5BF1CD;}
	.st70{fill:#11BC92;}
	.st71{fill:#F579A6;}
	.st72{fill:#D44D6E;}
	.st73{opacity:0.5;fill:#0E0333;}
	.st74{fill:#D6D6D6;}
	.st75{fill:#FFEEA9;}
	.st76{fill:url(#SVGID_5_);}
	.st77{opacity:0.5;clip-path:url(#SVGID_7_);fill:none;stroke:url(#SVGID_8_);stroke-width:0.75;stroke-miterlimit:10;}
	.st78{opacity:0.5;clip-path:url(#SVGID_7_);fill:none;stroke:url(#SVGID_9_);stroke-width:0.75;stroke-miterlimit:10;}
	.st79{fill:none;stroke:#9B95B0;stroke-width:2;stroke-miterlimit:10;}
	.st80{fill:none;stroke:#3B3058;stroke-width:3;stroke-miterlimit:10;}
	.st81{fill:#FFFFFF;stroke:#3B3058;stroke-width:3;stroke-miterlimit:10;}
	.st82{fill:#616161;fill-opacity:0.9939;}
	.st83{fill-rule:evenodd;clip-rule:evenodd;fill:#818181;fill-opacity:0.9939;}
	.st84{fill-rule:evenodd;clip-rule:evenodd;fill:#A1A1A1;}
	.st85{fill-rule:evenodd;clip-rule:evenodd;fill:#2F2F2F;fill-opacity:0.9939;}
	.st86{fill-rule:evenodd;clip-rule:evenodd;fill:#616161;fill-opacity:0.9939;}
	.st87{fill:#3E3E3E;}
	.st88{fill:#818181;fill-opacity:0.9939;}
	.st89{fill:#2F2F2F;fill-opacity:0.9939;}
	.st90{fill:none;stroke:#02E2AC;stroke-width:3;stroke-miterlimit:10;}
	.st91{fill:#383838;}
	
		.st92{fill:none;stroke:#383838;stroke-width:3;stroke-linecap:round;stroke-linejoin:round;stroke-miterlimit:10;stroke-dasharray:0,10;}
	.st93{fill:none;stroke:#383838;stroke-width:3;stroke-miterlimit:10;}
</style>
<g id="Pattern">
</g>
<g>
	<g>
		<path class="st41" d="M53.8,60c-0.1,0-0.1-0.1-0.1-0.2L51,51.5c0,0,0-0.1,0-0.1c0-0.1,0-0.2,0.1-0.2c0.1-0.1,0.1-0.1,0.2-0.1h0.9
			c0.1,0,0.2,0,0.2,0.1c0.1,0.1,0.1,0.1,0.1,0.2l2,6.5l2-6.5c0-0.1,0.1-0.2,0.1-0.2c0.1-0.1,0.2-0.1,0.2-0.1h0.9
			c0.1,0,0.2,0,0.2,0.1c0.1,0.1,0.1,0.1,0.1,0.2c0,0,0,0.1,0,0.1l-2.7,8.3c0,0.1-0.1,0.1-0.1,0.2C55.2,60,55.1,60,55,60h-1
			C54,60,53.9,60,53.8,60z"/>
		<path class="st41" d="M61.6,59.6c-0.5-0.3-0.8-0.6-1.1-1.1c-0.3-0.5-0.4-1-0.4-1.5v-1.3c0-0.5,0.1-1,0.4-1.5s0.6-0.8,1.1-1.1
			c0.5-0.3,0.9-0.4,1.5-0.4c0.5,0,1,0.1,1.5,0.4c0.5,0.3,0.8,0.6,1.1,1.1c0.3,0.5,0.4,1,0.4,1.5v0.8c0,0.1-0.1,0.3-0.2,0.4
			C65.8,57,65.7,57,65.5,57h-3.9v0.1c0,0.4,0.1,0.8,0.4,1c0.3,0.3,0.6,0.4,1,0.4h2c0.1,0,0.1,0,0.2,0.1s0.1,0.1,0.1,0.2v0.9
			c0,0.1,0,0.1-0.1,0.2S65.2,60,65.1,60h-2C62.6,60,62.1,59.8,61.6,59.6z M64.6,55.7v-0.1c0-0.4-0.1-0.8-0.4-1s-0.6-0.4-1-0.4
			c-0.4,0-0.8,0.1-1,0.4c-0.3,0.3-0.4,0.6-0.4,1v0.1H64.6z"/>
		<path class="st41" d="M68.6,59.9c0,0-0.1-0.1-0.1-0.2v-0.9c0-0.1,0-0.1,0.1-0.2c0,0,0.1-0.1,0.2-0.1h0.9v-4.3h-1.1
			c-0.1,0-0.1,0-0.2-0.1c0,0-0.1-0.1-0.1-0.2v-0.9c0-0.1,0-0.1,0.1-0.2s0.1-0.1,0.2-0.1h1.9c0.1,0,0.3,0.1,0.4,0.2
			c0.1,0.1,0.2,0.2,0.2,0.4v0.4l0.7-0.5c0.2-0.2,0.5-0.3,0.6-0.4c0.2-0.1,0.4-0.1,0.6-0.1h0.4c0.1,0,0.1,0,0.2,0.1
			c0,0,0.1,0.1,0.1,0.2v1c0,0.1,0,0.1-0.1,0.2c0,0-0.1,0.1-0.2,0.1h-0.3c-0.2,0-0.4,0-0.6,0.1c-0.2,0.1-0.4,0.2-0.7,0.5l-0.7,0.5
			v3.1h1.2c0.1,0,0.1,0,0.2,0.1c0,0,0.1,0.1,0.1,0.2v0.9c0,0.1,0,0.1-0.1,0.2S72.5,60,72.5,60h-3.6C68.8,60,68.7,59.9,68.6,59.9z"/>
		<path class="st41" d="M77.5,59.8c-0.1-0.1-0.2-0.3-0.2-0.4v-5.1h-1c-0.1,0-0.1,0-0.2-0.1c0,0-0.1-0.1-0.1-0.2v-0.9
			c0-0.1,0-0.1,0.1-0.2s0.1-0.1,0.2-0.1h1.9c0.2,0,0.3,0.1,0.4,0.2c0.1,0.1,0.2,0.3,0.2,0.4v5.1h1c0.1,0,0.1,0,0.2,0.1
			c0,0,0.1,0.1,0.1,0.2v0.9c0,0.1,0,0.1-0.1,0.2c0,0-0.1,0.1-0.2,0.1h-1.9C77.8,60,77.6,59.9,77.5,59.8z M77.4,51.9
			c0,0-0.1-0.1-0.1-0.2v-1.4c0-0.1,0-0.1,0.1-0.2c0,0,0.1-0.1,0.2-0.1h0.8c0.1,0,0.1,0,0.2,0.1c0,0,0.1,0.1,0.1,0.2v1.4
			c0,0.1,0,0.1-0.1,0.2c0,0-0.1,0.1-0.2,0.1h-0.8C77.6,52,77.5,52,77.4,51.9z"/>
		<path class="st41" d="M83.3,59.9c0,0-0.1-0.1-0.1-0.2v-5.5h-1c-0.1,0-0.1,0-0.2-0.1S82,54.1,82,54v-0.9c0-0.1,0-0.1,0.1-0.2
			s0.1-0.1,0.2-0.1h1v-0.4c0-0.6,0.2-1.2,0.6-1.6c0.4-0.4,0.9-0.6,1.6-0.6h1.2c0.1,0,0.1,0,0.2,0.1c0,0,0.1,0.1,0.1,0.2v0.8
			c0,0.1,0,0.1-0.1,0.2c0,0-0.1,0.1-0.2,0.1h-1.2c-0.2,0-0.4,0.1-0.5,0.2c-0.1,0.1-0.2,0.3-0.2,0.5v0.5h4.6c0.2,0,0.3,0.1,0.4,0.2
			c0.1,0.1,0.2,0.3,0.2,0.4v5.1h1c0.1,0,0.1,0,0.2,0.1s0.1,0.1,0.1,0.2v0.9c0,0.1,0,0.1-0.1,0.2S91,60,91,60h-1.9
			c-0.2,0-0.3-0.1-0.4-0.2c-0.1-0.1-0.2-0.3-0.2-0.4v-5.1h-3.7v5.5c0,0.1,0,0.1-0.1,0.2c0,0-0.1,0.1-0.2,0.1h-1
			C83.5,60,83.4,59.9,83.3,59.9z M88.5,52c0,0-0.1-0.1-0.1-0.2v-1.4c0-0.1,0-0.1,0.1-0.2c0,0,0.1-0.1,0.2-0.1h0.9
			c0.1,0,0.1,0,0.2,0.1c0,0,0.1,0.1,0.1,0.2v1.4c0,0.1,0,0.1-0.1,0.2S89.8,52,89.7,52h-0.9C88.7,52,88.6,52,88.5,52z"/>
		<path class="st41" d="M94.9,59.6c-0.5-0.3-0.8-0.6-1.1-1.1c-0.3-0.5-0.4-1-0.4-1.5v-1.3c0-0.5,0.1-1,0.4-1.5
			c0.3-0.5,0.6-0.8,1.1-1.1c0.5-0.3,0.9-0.4,1.5-0.4c0.5,0,1,0.1,1.5,0.4c0.5,0.3,0.8,0.6,1.1,1.1c0.3,0.5,0.4,1,0.4,1.5v0.8
			c0,0.1-0.1,0.3-0.2,0.4C99.1,57,99,57,98.8,57h-3.9v0.1c0,0.4,0.1,0.8,0.4,1c0.3,0.3,0.6,0.4,1,0.4h2c0.1,0,0.1,0,0.2,0.1
			s0.1,0.1,0.1,0.2v0.9c0,0.1,0,0.1-0.1,0.2S98.5,60,98.4,60h-2C95.9,60,95.4,59.8,94.9,59.6z M97.9,55.7v-0.1c0-0.4-0.1-0.8-0.4-1
			s-0.6-0.4-1-0.4c-0.4,0-0.8,0.1-1,0.4c-0.3,0.3-0.4,0.6-0.4,1v0.1H97.9z"/>
		<path class="st41" d="M103.4,59.7c-0.4-0.3-0.8-0.6-1-1.1c-0.3-0.4-0.4-0.9-0.4-1.4v-1.7c0-0.5,0.1-1,0.4-1.4
			c0.2-0.4,0.6-0.8,1-1.1c0.4-0.3,0.9-0.4,1.4-0.4c0.3,0,0.6,0,0.9,0.1c0.3,0.1,0.5,0.2,0.8,0.4v-2.5c0-0.1,0-0.1,0.1-0.2
			c0,0,0.1-0.1,0.2-0.1h1c0.1,0,0.1,0,0.2,0.1c0,0,0.1,0.1,0.1,0.2v9c0,0.1,0,0.1-0.1,0.2c0,0-0.1,0.1-0.2,0.1h-0.8
			c-0.1,0-0.1,0-0.2-0.1s-0.1-0.1-0.1-0.2v-0.6c-0.2,0.3-0.5,0.6-0.8,0.8c-0.3,0.2-0.7,0.3-1,0.3C104.3,60.1,103.8,60,103.4,59.7z
			 M106,58.3c0.3-0.3,0.4-0.6,0.4-1v-1.7c0-0.4-0.1-0.8-0.4-1c-0.3-0.3-0.6-0.4-1-0.4c-0.4,0-0.8,0.1-1,0.4c-0.3,0.3-0.4,0.6-0.4,1
			v1.7c0,0.4,0.1,0.8,0.4,1c0.3,0.3,0.6,0.4,1,0.4C105.4,58.7,105.7,58.6,106,58.3z"/>
		<path class="st41" d="M117.4,60c-0.2,0-0.3-0.1-0.4-0.3l-2.2-6.5c0,0,0-0.1,0-0.1c0-0.1,0-0.2,0.1-0.2c0.1-0.1,0.1-0.1,0.2-0.1
			h0.9c0.1,0,0.2,0,0.2,0.1s0.1,0.1,0.1,0.2l1.5,5l1.4-5c0-0.1,0.1-0.1,0.1-0.2c0.1,0,0.1-0.1,0.2-0.1h0.9c0.1,0,0.2,0,0.2,0.1
			c0.1,0,0.1,0.1,0.1,0.2l1.5,5l1.4-5c0-0.1,0.1-0.1,0.1-0.2c0.1,0,0.1-0.1,0.2-0.1h0.8c0.1,0,0.2,0,0.2,0.1
			c0.1,0.1,0.1,0.1,0.1,0.2c0,0,0,0.1,0,0.1l-2.1,6.5c0,0.1-0.1,0.1-0.1,0.2s-0.2,0.1-0.2,0.1l-1,0c-0.1,0-0.2,0-0.2-0.1
			c-0.1,0-0.1-0.1-0.1-0.2l-1.4-4.7l-1.3,4.7c0,0.1-0.1,0.1-0.1,0.2c-0.1,0-0.2,0.1-0.2,0.1L117.4,60z"/>
		<path class="st41" d="M129.1,59.8c-0.1-0.1-0.2-0.3-0.2-0.4v-5.1h-1c-0.1,0-0.1,0-0.2-0.1c0,0-0.1-0.1-0.1-0.2v-0.9
			c0-0.1,0-0.1,0.1-0.2s0.1-0.1,0.2-0.1h1.9c0.2,0,0.3,0.1,0.4,0.2c0.1,0.1,0.2,0.3,0.2,0.4v5.1h1c0.1,0,0.1,0,0.2,0.1
			c0,0,0.1,0.1,0.1,0.2v0.9c0,0.1,0,0.1-0.1,0.2c0,0-0.1,0.1-0.2,0.1h-1.9C129.4,60,129.2,59.9,129.1,59.8z M129.1,51.9
			c0,0-0.1-0.1-0.1-0.2v-1.4c0-0.1,0-0.1,0.1-0.2c0,0,0.1-0.1,0.2-0.1h0.8c0.1,0,0.1,0,0.2,0.1c0,0,0.1,0.1,0.1,0.2v1.4
			c0,0.1,0,0.1-0.1,0.2c0,0-0.1,0.1-0.2,0.1h-0.8C129.2,52,129.1,52,129.1,51.9z"/>
		<path class="st41" d="M135.3,59.4c-0.4-0.4-0.6-0.9-0.6-1.6v-3.6h-0.9c-0.1,0-0.1,0-0.2-0.1c0,0-0.1-0.1-0.1-0.2v-0.9
			c0-0.1,0-0.1,0.1-0.2c0,0,0.1-0.1,0.2-0.1h0.9v-1.3c0-0.1,0-0.1,0.1-0.2c0,0,0.1-0.1,0.2-0.1h1c0.1,0,0.1,0,0.2,0.1
			c0,0,0.1,0.1,0.1,0.2v1.3h2.1c0.1,0,0.1,0,0.2,0.1c0,0,0.1,0.1,0.1,0.2V54c0,0.1,0,0.1-0.1,0.2c0,0-0.1,0.1-0.2,0.1h-2.1v3.5
			c0,0.2,0.1,0.4,0.2,0.6c0.1,0.1,0.3,0.2,0.6,0.2l1.3,0c0.1,0,0.1,0,0.2,0.1c0,0,0.1,0.1,0.1,0.2v0.9c0,0.1,0,0.1-0.1,0.2
			c0,0-0.1,0.1-0.2,0.1h-1.4C136.2,60,135.7,59.8,135.3,59.4z"/>
		<path class="st41" d="M141.4,59.9c0,0-0.1-0.1-0.1-0.2v-9c0-0.1,0-0.1,0.1-0.2c0,0,0.1-0.1,0.2-0.1h1c0.1,0,0.1,0,0.2,0.1
			c0,0,0.1,0.1,0.1,0.2v2.7c0.2-0.2,0.5-0.4,0.8-0.6c0.3-0.1,0.6-0.2,0.9-0.2c0.5,0,1,0.1,1.4,0.3c0.4,0.2,0.7,0.5,0.9,0.9
			c0.2,0.4,0.3,0.8,0.3,1.4v4.4c0,0.1,0,0.1-0.1,0.2c0,0-0.1,0.1-0.2,0.1h-1c-0.1,0-0.1,0-0.2-0.1c0,0-0.1-0.1-0.1-0.2v-4.2
			c0-0.4-0.1-0.8-0.3-1c-0.2-0.2-0.5-0.4-0.9-0.4c-0.5,0-0.9,0.2-1.2,0.5c-0.3,0.3-0.4,0.8-0.4,1.3v3.8c0,0.1,0,0.1-0.1,0.2
			c0,0-0.1,0.1-0.2,0.1h-1C141.5,60,141.5,59.9,141.4,59.9z"/>
	</g>
	<g>
		<path class="st41" d="M61.6,152.2c-0.8-0.5-1.4-1.1-1.9-1.9c-0.5-0.8-0.7-1.7-0.7-2.6v-4.2c0-1,0.2-1.8,0.7-2.6
			c0.5-0.8,1.1-1.4,1.9-1.9c0.8-0.5,1.7-0.7,2.6-0.7c0.8,0,1.6,0.1,2.3,0.4c0.7,0.3,1.3,0.7,1.8,1.3c0.1,0.1,0.1,0.2,0.1,0.3
			c0,0.1-0.1,0.3-0.2,0.4l-0.9,0.9c-0.1,0.1-0.2,0.2-0.3,0.2c-0.1,0-0.3-0.1-0.4-0.2c-0.7-0.7-1.5-1.1-2.5-1.1c-0.5,0-1,0.1-1.4,0.4
			c-0.4,0.3-0.8,0.6-1,1.1c-0.3,0.5-0.4,0.9-0.4,1.5v4.2c0,0.5,0.1,1,0.4,1.5s0.6,0.8,1,1.1s0.9,0.4,1.4,0.4s1-0.1,1.4-0.4
			c0.4-0.3,0.8-0.6,1-1s0.4-0.9,0.4-1.4v-1h-2.7c-0.1,0-0.2,0-0.3-0.1c-0.1-0.1-0.1-0.2-0.1-0.3v-1.4c0-0.1,0-0.2,0.1-0.3
			c0.1-0.1,0.2-0.1,0.3-0.1h4.2c0.2,0,0.4,0.1,0.6,0.2c0.2,0.2,0.2,0.4,0.2,0.6v2.3c0,1-0.2,1.8-0.7,2.6c-0.5,0.8-1.1,1.4-1.9,1.9
			c-0.8,0.5-1.7,0.7-2.6,0.7C63.2,152.9,62.4,152.6,61.6,152.2z"/>
		<path class="st41" d="M76.5,152.2c-0.8-0.5-1.4-1.1-1.9-1.9c-0.5-0.8-0.7-1.7-0.7-2.6v-4.2c0-1,0.2-1.8,0.7-2.6
			c0.5-0.8,1.1-1.4,1.9-1.9c0.8-0.5,1.7-0.7,2.6-0.7c1,0,1.8,0.2,2.6,0.7c0.8,0.5,1.4,1.1,1.9,1.9c0.5,0.8,0.7,1.7,0.7,2.6v4.2
			c0,1-0.2,1.8-0.7,2.6c-0.5,0.8-1.1,1.4-1.9,1.9c-0.8,0.5-1.7,0.7-2.6,0.7C78.2,152.9,77.3,152.6,76.5,152.2z M80.6,150.1
			c0.4-0.3,0.8-0.6,1-1.1c0.3-0.5,0.4-0.9,0.4-1.5v-4.2c0-0.5-0.1-1-0.4-1.5c-0.3-0.5-0.6-0.8-1-1.1c-0.4-0.3-0.9-0.4-1.4-0.4
			c-0.5,0-1,0.1-1.4,0.4c-0.4,0.3-0.8,0.6-1,1.1c-0.3,0.5-0.4,0.9-0.4,1.5v4.2c0,0.5,0.1,1,0.4,1.5s0.6,0.8,1,1.1s0.9,0.4,1.4,0.4
			C79.7,150.5,80.2,150.4,80.6,150.1z"/>
		<path class="st41" d="M91.7,152.2c-0.8-0.5-1.4-1.1-1.9-1.9c-0.5-0.8-0.7-1.7-0.7-2.6v-4.2c0-1,0.2-1.8,0.7-2.6
			c0.5-0.8,1.1-1.4,1.9-1.9c0.8-0.5,1.7-0.7,2.6-0.7c1,0,1.8,0.2,2.6,0.7c0.8,0.5,1.4,1.1,1.9,1.9c0.5,0.8,0.7,1.7,0.7,2.6v4.2
			c0,1-0.2,1.8-0.7,2.6c-0.5,0.8-1.1,1.4-1.9,1.9c-0.8,0.5-1.7,0.7-2.6,0.7C93.4,152.9,92.5,152.6,91.7,152.2z M95.8,150.1
			c0.4-0.3,0.8-0.6,1-1.1s0.4-0.9,0.4-1.5v-4.2c0-0.5-0.1-1-0.4-1.5c-0.3-0.5-0.6-0.8-1-1.1c-0.4-0.3-0.9-0.4-1.4-0.4
			s-1,0.1-1.4,0.4c-0.4,0.3-0.8,0.6-1,1.1c-0.3,0.5-0.4,0.9-0.4,1.5v4.2c0,0.5,0.1,1,0.4,1.5c0.3,0.5,0.6,0.8,1,1.1s0.9,0.4,1.4,0.4
			S95.3,150.4,95.8,150.1z"/>
		<path class="st41" d="M106.9,152.2c-0.8-0.5-1.4-1.1-1.9-1.9c-0.5-0.8-0.7-1.7-0.7-2.6v-4.2c0-1,0.2-1.8,0.7-2.6
			c0.5-0.8,1.1-1.4,1.9-1.9c0.8-0.5,1.7-0.7,2.6-0.7c0.8,0,1.6,0.1,2.3,0.4c0.7,0.3,1.3,0.7,1.8,1.3c0.1,0.1,0.1,0.2,0.1,0.3
			c0,0.1-0.1,0.3-0.2,0.4l-0.9,0.9c-0.1,0.1-0.2,0.2-0.3,0.2c-0.1,0-0.3-0.1-0.4-0.2c-0.7-0.7-1.5-1.1-2.5-1.1c-0.5,0-1,0.1-1.4,0.4
			c-0.4,0.3-0.8,0.6-1,1.1c-0.3,0.5-0.4,0.9-0.4,1.5v4.2c0,0.5,0.1,1,0.4,1.5c0.3,0.5,0.6,0.8,1,1.1s0.9,0.4,1.4,0.4s1-0.1,1.4-0.4
			c0.4-0.3,0.8-0.6,1-1c0.3-0.4,0.4-0.9,0.4-1.4v-1h-2.7c-0.1,0-0.2,0-0.3-0.1c-0.1-0.1-0.1-0.2-0.1-0.3v-1.4c0-0.1,0-0.2,0.1-0.3
			c0.1-0.1,0.2-0.1,0.3-0.1h4.2c0.2,0,0.4,0.1,0.6,0.2c0.2,0.2,0.2,0.4,0.2,0.6v2.3c0,1-0.2,1.8-0.7,2.6c-0.5,0.8-1.1,1.4-1.9,1.9
			c-0.8,0.5-1.7,0.7-2.6,0.7C108.6,152.9,107.7,152.6,106.9,152.2z"/>
		<path class="st41" d="M119.6,152.4c-0.2-0.2-0.2-0.4-0.2-0.6v-12.9c0-0.1,0-0.2,0.1-0.3c0.1-0.1,0.2-0.1,0.3-0.1h1.6
			c0.1,0,0.2,0,0.3,0.1c0.1,0.1,0.1,0.2,0.1,0.3v11.5h4.6c0.1,0,0.2,0,0.3,0.1c0.1,0.1,0.1,0.2,0.1,0.3v1.5c0,0.1,0,0.2-0.1,0.3
			s-0.2,0.1-0.3,0.1h-6.2C120,152.6,119.8,152.5,119.6,152.4z"/>
		<path class="st41" d="M131.3,152.4c-0.2-0.2-0.2-0.4-0.2-0.6v-12.5c0-0.2,0.1-0.4,0.2-0.6c0.2-0.2,0.4-0.2,0.6-0.2h6.8
			c0.1,0,0.2,0,0.3,0.1c0.1,0.1,0.1,0.2,0.1,0.3v1.5c0,0.1,0,0.2-0.1,0.3c-0.1,0.1-0.2,0.1-0.3,0.1h-5.2v3.4h3.9
			c0.1,0,0.2,0,0.3,0.1c0.1,0.1,0.1,0.2,0.1,0.3v1.4c0,0.1,0,0.2-0.1,0.3c-0.1,0.1-0.2,0.1-0.3,0.1h-3.9v3.9h5.2
			c0.1,0,0.2,0,0.3,0.1c0.1,0.1,0.1,0.2,0.1,0.3v1.5c0,0.1,0,0.2-0.1,0.3s-0.2,0.1-0.3,0.1h-6.8
			C131.6,152.6,131.4,152.5,131.3,152.4z"/>
	</g>
	<polygon class="st80" points="175,130.5 25,130.5 44.1,100 25,69.5 175,69.5 155.7,100 	"/>
	<rect x="44.1" y="38.9" class="st80" width="111.9" height="122.1"/>
	<circle class="st80" cx="100" cy="100" r="30.4"/>
	<path class="st41" d="M117.1,100.4c0-1.2-0.1-2.4-0.3-3.5h-16.4v6.7h9.4c-0.4,2.2-1.6,4.1-3.5,5.3v0c-1.6,1.1-3.6,1.7-5.9,1.7
		c-4.5,0-8.4-3.1-9.8-7.2h0c-0.7-2.2-0.7-4.5,0-6.7c1.4-4.1,5.2-7.2,9.8-7.2c2.5,0,4.9,0.9,6.7,2.6l5-5c-3.2-3-7.3-4.6-11.7-4.5
		c-6.6,0-12.6,3.7-15.6,9.6c-2.5,4.9-2.5,10.7,0,15.7c3,5.9,9,9.6,15.6,9.6c4.7,0,8.7-1.5,11.6-4.2l0,0
		C115.2,110.2,117.1,105.7,117.1,100.4z"/>
</g>
</svg>
