<?xml version="1.0" encoding="utf-8"?>
<!-- Generator: Adobe Illustrator 25.2.0, SVG Export Plug-In . SVG Version: 6.00 Build 0)  -->
<svg version="1.1" id="Layer_1" xmlns="http://www.w3.org/2000/svg" xmlns:xlink="http://www.w3.org/1999/xlink" x="0px" y="0px"
	 width="200px" height="230px" viewBox="0 0 200 230" style="enable-background:new 0 0 200 230;" xml:space="preserve">
<style type="text/css">
	.st0{fill:#0E0333;}
	.st1{clip-path:url(#SVGID_2_);fill:none;stroke:#3B3058;stroke-width:2;stroke-miterlimit:10;}
	.st2{clip-path:url(#SVGID_4_);fill:none;stroke:#3B3058;stroke-width:2;stroke-miterlimit:10;}
	.st3{clip-path:url(#SVGID_4_);fill:none;stroke:#3B3058;stroke-width:3;stroke-miterlimit:10;}
	.st4{clip-path:url(#SVGID_4_);fill:none;stroke:#3B3058;stroke-width:4;stroke-miterlimit:10;}
	.st5{clip-path:url(#SVGID_4_);fill:none;stroke:#3B3058;stroke-width:5;stroke-miterlimit:10;}
	.st6{clip-path:url(#SVGID_4_);fill:none;stroke:#3B3058;stroke-width:6;stroke-miterlimit:10;}
	.st7{clip-path:url(#SVGID_4_);fill:none;stroke:#3B3058;stroke-width:7;stroke-miterlimit:10;}
	.st8{fill-rule:evenodd;clip-rule:evenodd;fill:#0E0333;}
	.st9{fill:none;stroke:#02E2AC;stroke-linecap:round;stroke-linejoin:round;stroke-dasharray:0,3.999;}
	.st10{fill:none;stroke:#02E2AC;stroke-width:1.04;stroke-linecap:round;stroke-linejoin:round;stroke-dasharray:0,3.9929;}
	.st11{fill:none;stroke:#02E2AC;stroke-width:1.08;stroke-linecap:round;stroke-linejoin:round;stroke-dasharray:0,4.0096;}
	.st12{fill:none;stroke:#02E2AC;stroke-width:1.12;stroke-linecap:round;stroke-linejoin:round;stroke-dasharray:0,4.0034;}
	.st13{fill:none;stroke:#02E2AC;stroke-width:1.16;stroke-linecap:round;stroke-linejoin:round;stroke-dasharray:0,3.9968;}
	.st14{fill:none;stroke:#02E2AC;stroke-width:1.2;stroke-linecap:round;stroke-linejoin:round;stroke-dasharray:0,3.9897;}
	.st15{fill:none;stroke:#02E2AC;stroke-width:1.24;stroke-linecap:round;stroke-linejoin:round;stroke-dasharray:0,4.009;}
	.st16{fill:none;stroke:#02E2AC;stroke-width:1.28;stroke-linecap:round;stroke-linejoin:round;stroke-dasharray:0,4.0017;}
	.st17{fill:none;stroke:#02E2AC;stroke-width:1.32;stroke-linecap:round;stroke-linejoin:round;stroke-dasharray:0,3.9938;}
	.st18{fill:none;stroke:#02E2AC;stroke-width:1.36;stroke-linecap:round;stroke-linejoin:round;stroke-dasharray:0,3.9851;}
	.st19{fill:none;stroke:#02E2AC;stroke-width:1.4;stroke-linecap:round;stroke-linejoin:round;stroke-dasharray:0,4.0082;}
	.st20{fill:none;stroke:#02E2AC;stroke-width:1.44;stroke-linecap:round;stroke-linejoin:round;stroke-dasharray:0,3.9993;}
	.st21{fill:none;stroke:#02E2AC;stroke-width:1.48;stroke-linecap:round;stroke-linejoin:round;stroke-dasharray:0,3.9894;}
	.st22{fill:none;stroke:#02E2AC;stroke-width:1.52;stroke-linecap:round;stroke-linejoin:round;stroke-dasharray:0,4.0166;}
	.st23{fill:none;stroke:#02E2AC;stroke-width:1.56;stroke-linecap:round;stroke-linejoin:round;stroke-dasharray:0,4.0062;}
	.st24{fill:none;stroke:#02E2AC;stroke-width:1.6;stroke-linecap:round;stroke-linejoin:round;stroke-dasharray:0,3.9945;}
	.st25{fill:none;stroke:#02E2AC;stroke-width:1.64;stroke-linecap:round;stroke-linejoin:round;stroke-dasharray:0,3.9813;}
	.st26{fill:none;stroke:#02E2AC;stroke-width:1.68;stroke-linecap:round;stroke-linejoin:round;stroke-dasharray:0,4.0171;}
	.st27{fill:none;stroke:#02E2AC;stroke-width:1.72;stroke-linecap:round;stroke-linejoin:round;stroke-dasharray:0,4.0036;}
	.st28{fill:none;stroke:#02E2AC;stroke-width:1.76;stroke-linecap:round;stroke-linejoin:round;stroke-dasharray:0,3.9877;}
	.st29{fill:none;stroke:#02E2AC;stroke-width:1.8;stroke-linecap:round;stroke-linejoin:round;stroke-dasharray:0,3.9686;}
	.st30{fill:none;stroke:#02E2AC;stroke-width:1.84;stroke-linecap:round;stroke-linejoin:round;stroke-dasharray:0,4.0196;}
	.st31{fill:none;stroke:#02E2AC;stroke-width:1.88;stroke-linecap:round;stroke-linejoin:round;stroke-dasharray:0,3.9993;}
	.st32{fill:none;stroke:#02E2AC;stroke-width:1.92;stroke-linecap:round;stroke-linejoin:round;stroke-dasharray:0,3.973;}
	.st33{fill:none;stroke:#02E2AC;stroke-width:1.96;stroke-linecap:round;stroke-linejoin:round;stroke-dasharray:0,4.0535;}
	.st34{fill:none;stroke:#02E2AC;stroke-width:2;stroke-linecap:round;stroke-linejoin:round;stroke-dasharray:0,4.0266;}
	.st35{fill-rule:evenodd;clip-rule:evenodd;fill:#15EBB7;}
	.st36{fill-rule:evenodd;clip-rule:evenodd;fill:#FFFFFF;}
	.st37{fill:#F35890;}
	.st38{fill:#02E2AC;}
	.st39{fill:#15EBB7;}
	.st40{fill:#FFFFFF;}
	.st41{fill:#3B3058;}
	.st42{fill:#FB8A61;}
	.st43{fill:#41B2FF;fill-opacity:0.9939;}
	.st44{fill-rule:evenodd;clip-rule:evenodd;fill:#5096C8;}
	.st45{fill-rule:evenodd;clip-rule:evenodd;fill:#FFD086;}
	.st46{fill-rule:evenodd;clip-rule:evenodd;fill:#270B0B;fill-opacity:0.9939;}
	.st47{fill-rule:evenodd;clip-rule:evenodd;fill:#CD8A03;fill-opacity:0.9939;}
	.st48{fill-rule:evenodd;clip-rule:evenodd;fill:#402801;fill-opacity:0.9939;}
	.st49{fill-rule:evenodd;clip-rule:evenodd;fill:#FBBC38;fill-opacity:0.9939;}
	.st50{fill-rule:evenodd;clip-rule:evenodd;fill:#FCC24D;fill-opacity:0.9939;}
	.st51{fill:none;}
	.st52{fill:#FABB37;}
	.st53{fill:#FFD086;}
	.st54{fill:#FBC14C;}
	.st55{fill:#CC8902;}
	.st56{fill:#4285F4;}
	.st57{fill:#34A853;}
	.st58{fill:#FBBC04;}
	.st59{fill:#EA4335;}
	.st60{fill-rule:evenodd;clip-rule:evenodd;fill:#FCCDD3;}
	.st61{filter:url(#Adobe_OpacityMaskFilter);}
	.st62{mask:url(#mask-2_1_);fill-rule:evenodd;clip-rule:evenodd;fill:#6534FF;}
	.st63{fill-rule:evenodd;clip-rule:evenodd;fill:#FEFEFE;}
	.st64{fill-rule:evenodd;clip-rule:evenodd;fill:#6534FF;}
	.st65{fill:#8C65F7;}
	.st66{fill:#6F3FF5;}
	.st67{fill:#5932C4;}
	.st68{fill:#9B95B0;}
	.st69{fill:#5BF1CD;}
	.st70{fill:#11BC92;}
	.st71{fill:#F579A6;}
	.st72{fill:#D44D6E;}
	.st73{opacity:0.5;fill:#0E0333;}
	.st74{fill:#D6D6D6;}
	.st75{fill:#FFEEA9;}
	.st76{fill:url(#SVGID_5_);}
	.st77{opacity:0.5;clip-path:url(#SVGID_7_);fill:none;stroke:url(#SVGID_8_);stroke-width:0.75;stroke-miterlimit:10;}
	.st78{opacity:0.5;clip-path:url(#SVGID_7_);fill:none;stroke:url(#SVGID_9_);stroke-width:0.75;stroke-miterlimit:10;}
	.st79{fill:none;stroke:#9B95B0;stroke-width:2;stroke-miterlimit:10;}
	.st80{fill:none;stroke:#3B3058;stroke-width:3;stroke-miterlimit:10;}
	.st81{fill:#FFFFFF;stroke:#3B3058;stroke-width:3;stroke-miterlimit:10;}
	.st82{fill:#616161;fill-opacity:0.9939;}
	.st83{fill-rule:evenodd;clip-rule:evenodd;fill:#818181;fill-opacity:0.9939;}
	.st84{fill-rule:evenodd;clip-rule:evenodd;fill:#A1A1A1;}
	.st85{fill-rule:evenodd;clip-rule:evenodd;fill:#2F2F2F;fill-opacity:0.9939;}
	.st86{fill-rule:evenodd;clip-rule:evenodd;fill:#616161;fill-opacity:0.9939;}
	.st87{fill:#3E3E3E;}
	.st88{fill:#818181;fill-opacity:0.9939;}
	.st89{fill:#2F2F2F;fill-opacity:0.9939;}
	.st90{fill:none;stroke:#02E2AC;stroke-width:3;stroke-miterlimit:10;}
	.st91{fill:#383838;}
	
		.st92{fill:none;stroke:#383838;stroke-width:3;stroke-linecap:round;stroke-linejoin:round;stroke-miterlimit:10;stroke-dasharray:0,10;}
	.st93{fill:none;stroke:#383838;stroke-width:3;stroke-miterlimit:10;}
</style>
<g id="Pattern">
</g>
<g>
	<g>
		<path class="st41" d="M149.7,139.2c0,0.1-0.1,0.2-0.1,0.2c-0.1,1.1-0.6,2.1-1.3,2.9c-0.3,0.4-0.6,0.7-1,1.1
			c0.1,0.1,0.1,0.2,0.1,0.3c1.9,2.9,1.9,5.9,0.4,9c-0.2,0.3-0.2,0.6,0,0.9c0.7,1.2,1,2.5,1,3.9c0,2.8,0,5.6,0,8.4c0,0.1,0,0.3,0,0.4
			c-0.1,0.3-0.4,0.5-0.7,0.5c-0.3,0-0.6-0.2-0.7-0.6c0-0.2,0-0.4,0-0.5c0-2.6,0-5.2,0-7.7c0-2-0.6-3.7-1.9-5.1c-1-1.2-2-2.4-3.1-3.6
			c-0.8,0.9-1.6,1.9-2.4,2.8c0.1,0.2,0.2,0.3,0.3,0.4c0.6,0.7,1.3,1.5,1.9,2.2c0.9,1,1.4,2.2,1.4,3.5c0,2.6,0,5.1,0,7.7
			c0,0.1,0,0.3-0.1,0.4c-0.1,0.3-0.4,0.5-0.8,0.5c-0.3,0-0.6-0.3-0.6-0.6c0-0.2,0-0.3,0-0.5c0-2.4,0-4.8,0-7.1
			c0-1.2-0.3-2.2-1.1-3.1c-0.6-0.6-1.1-1.3-1.6-1.9c-0.1-0.1-0.2-0.3-0.4-0.4c-1.1,1.3-2.2,2.5-3.3,3.8c0.6,0.7,1.2,1.4,1.8,2
			c0.4,0.5,0.7,1,0.8,1.6c0,0.2,0.1,0.5,0.1,0.8c0,1.5,0,3,0,4.5c0,0.1,0,0.3,0,0.4c-0.1,0.4-0.4,0.6-0.7,0.6
			c-0.4,0-0.7-0.2-0.7-0.6c0-0.2,0-0.3,0-0.5c0-1.4,0-2.8,0-4.2c0-0.7-0.2-1.2-0.7-1.7c-0.5-0.5-1-1.1-1.5-1.7
			c-0.2,0.2-0.3,0.3-0.4,0.5c-0.8,1.1-1.3,2.4-1.3,3.8c0,1.1,0,2.2,0,3.3c0,0.1,0,0.3,0,0.4c0,0.4-0.3,0.6-0.7,0.7
			c-0.4,0-0.7-0.2-0.8-0.6c0-0.1,0-0.1,0-0.2c0-1.3,0-2.7,0.1-4c0.1-1.2,0.4-2.3,1-3.4c0.1-0.1,0.1-0.2,0.1-0.3
			c-1.7-3.3-1.6-6.5,0.4-9.6c-0.3-0.3-0.6-0.7-0.9-1c-1.1-1.3-1.6-2.7-1.5-4.4c0.1-1.3,0.5-2.6,1.4-3.6c0.3-0.4,0.7-0.8,1-1.2
			c-0.3-0.4-0.6-0.7-0.9-1.1c-2-2.4-2-5.7,0-8.1c0.3-0.3,0.6-0.7,0.9-1.1c-0.3-0.4-0.6-0.7-0.9-1.1c-2-2.3-2-5.7,0-8
			c0.3-0.4,0.6-0.7,0.9-1.1c-0.3-0.4-0.6-0.7-0.9-1.1c-2-2.3-2-5.7,0-8c0.3-0.3,0.6-0.7,0.9-1.1c-0.1-0.1-0.2-0.2-0.3-0.3
			c-0.2-0.3-0.5-0.5-0.7-0.8c-1.9-2.3-1.9-5.6,0-7.9c0.3-0.4,0.6-0.7,1-1.1c-0.3-0.4-0.7-0.8-1-1.2c-1.7-2-1.9-4.9-0.6-7.1
			c0.2-0.3,0.4-0.6,0.7-0.9c0.3-0.3,0.6-0.7,0.9-1c-0.3-0.4-0.6-0.7-0.9-1.1c-1.5-1.8-1.8-3.8-1.1-6.1c0.2-0.7,0.6-1.4,1.1-1.9
			c0.3-0.4,0.6-0.7,0.9-1.1c0-0.1-0.1-0.2-0.1-0.2c-1-1.5-1.5-3.1-1.5-4.9c0-2.7,0-5.4,0-8.1c0-0.2,0-0.4,0.1-0.5
			c0.1-0.3,0.4-0.5,0.8-0.5c0.3,0,0.6,0.3,0.6,0.6c0,0.2,0,0.3,0,0.5c0,2.6,0,5.2,0,7.8c0,1.3,0.2,2.5,0.9,3.6
			c0.2,0.4,0.4,0.7,0.7,1c1.1,1.3,2.2,2.5,3.2,3.8c0.1,0.1,0.1,0.2,0.1,0.3c0.9-1,1.7-2,2.5-2.9c-0.6-0.6-1.1-1.3-1.6-1.9
			c-0.3-0.3-0.5-0.6-0.8-0.9c-0.7-0.9-1.2-1.9-1.2-3c0-1.7,0-3.5,0-5.2c0-0.9,0-1.7,0-2.6c0-0.1,0-0.3,0-0.4
			c0.1-0.4,0.4-0.7,0.8-0.7c0.4,0,0.6,0.3,0.7,0.7c0,0.1,0,0.3,0,0.4c0,2.4,0,4.8,0,7.1c0,1.1,0.3,2.1,1.1,2.9
			c0.7,0.8,1.4,1.6,2.1,2.4c1.1-1.3,2.2-2.5,3.3-3.8c-0.1-0.2-0.2-0.3-0.3-0.4c-0.5-0.5-1-1.1-1.5-1.6c-0.6-0.6-0.8-1.4-0.8-2.2
			c0-1.6,0-3.1,0-4.7c0-0.1,0-0.2,0-0.3c0.1-0.4,0.3-0.6,0.7-0.6c0.4,0,0.7,0.2,0.7,0.6c0,0.2,0,0.3,0,0.5c0,1.4,0,2.8,0,4.3
			c0,0.7,0.2,1.2,0.6,1.7c0.5,0.5,1,1.1,1.5,1.7c0.7-0.8,1.2-1.7,1.4-2.7c0.2-0.7,0.2-1.4,0.3-2c0-1,0-1.9,0-2.9c0-0.1,0-0.3,0-0.4
			c0.1-0.3,0.3-0.6,0.7-0.6c0.4,0,0.7,0.2,0.8,0.6c0,0.1,0,0.1,0,0.2c0,1.4,0,2.8-0.1,4.2c-0.1,1.4-0.6,2.6-1.4,3.8
			c-0.1,0.1-0.1,0.2-0.2,0.3c0.3,0.3,0.6,0.7,0.9,1c0.8,0.9,1.4,1.9,1.4,3.2c0,0.1,0.1,0.2,0.1,0.3c0,0.5,0,0.9,0,1.4
			c0,0-0.1,0.1-0.1,0.1c-0.1,1.3-0.7,2.4-1.6,3.3c-0.3,0.3-0.5,0.6-0.8,0.9c0.4,0.4,0.7,0.8,1,1.2c0.7,0.9,1.2,1.8,1.3,2.9
			c0,0.1,0.1,0.2,0.1,0.2c0,0.5,0,0.9,0,1.4c-0.1,0.3-0.1,0.6-0.2,0.8c-0.2,0.9-0.7,1.8-1.3,2.5c-0.3,0.3-0.6,0.7-0.9,1.1
			c0.4,0.4,0.7,0.8,1,1.2c0.7,0.8,1.2,1.8,1.3,2.9c0,0.1,0.1,0.2,0.1,0.2c0,0.5,0,0.9,0,1.4c0,0.1-0.1,0.2-0.1,0.3
			c-0.1,1.2-0.6,2.2-1.4,3.2c-0.3,0.3-0.6,0.7-0.9,1c0.4,0.4,0.7,0.8,1,1.2c0.7,0.8,1.2,1.8,1.3,2.9c0,0.1,0.1,0.2,0.1,0.3
			c0,0.5,0,0.9,0,1.4c0,0-0.1,0.1-0.1,0.1c-0.1,1.3-0.7,2.4-1.6,3.3c-0.3,0.3-0.5,0.6-0.8,0.9c0.4,0.4,0.7,0.8,1,1.2
			c0.7,0.9,1.2,1.8,1.3,2.9c0,0.1,0.1,0.2,0.1,0.2c0,0.5,0,0.9,0,1.4c-0.1,0.3-0.1,0.6-0.2,0.8c-0.2,0.9-0.6,1.7-1.2,2.4
			c-0.3,0.4-0.7,0.8-1,1.2c0.4,0.4,0.7,0.8,1,1.2c0.7,0.8,1.2,1.8,1.3,2.9c0,0.1,0.1,0.2,0.1,0.2c0,0.5,0,0.9,0,1.4
			c0,0.1-0.1,0.2-0.1,0.3c-0.1,1.2-0.6,2.2-1.4,3.2c-0.3,0.3-0.6,0.7-0.9,1c0.4,0.4,0.7,0.8,1,1.2c0.7,0.8,1.2,1.8,1.3,2.9
			c0,0.1,0.1,0.2,0.1,0.3C149.7,138.3,149.7,138.7,149.7,139.2z M139,122.6c1.1,1.3,2.3,2.6,3.4,3.9c0.1-0.2,0.2-0.3,0.3-0.4
			c1.4-1.6,2.8-3.3,4.3-4.9c1-1.1,1.4-2.4,1.1-3.9c-0.2-1.3-1-2.3-1.9-3.2C143.9,117,141.5,119.8,139,122.6z M142.4,106.2
			c1.7-2,3.3-3.8,4.9-5.8c0.7-0.9,0.9-1.9,0.9-3.1c-0.1-1.5-0.9-2.5-1.9-3.5c-2.4,2.8-4.8,5.6-7.3,8.4
			C140.2,103.6,141.3,104.9,142.4,106.2z M146.3,83.7c-2.5,2.8-4.9,5.6-7.3,8.4c1.2,1.3,2.3,2.6,3.4,3.9c0.1-0.1,0.2-0.1,0.2-0.2
			c1.5-1.8,3.1-3.5,4.6-5.3c1-1.2,1.2-2.5,0.9-4C147.9,85.4,147.1,84.5,146.3,83.7z M142.4,136.7c0.1-0.1,0.1-0.1,0.1-0.1
			c1.6-1.8,3.2-3.6,4.8-5.5c1.5-1.8,1.3-4.8-1-6.7c-2.4,2.8-4.8,5.6-7.2,8.4C140.2,134.1,141.3,135.4,142.4,136.7z M146.3,73.5
			c-2.4,2.8-4.8,5.6-7.3,8.4c1.1,1.3,2.3,2.6,3.4,3.9c0.1-0.1,0.1-0.1,0.2-0.2c1.6-1.8,3.1-3.6,4.7-5.4c0.4-0.5,0.7-1,0.8-1.6
			C148.6,76.6,147.9,75,146.3,73.5z M146.3,134.5c-2.4,2.8-4.9,5.6-7.3,8.4c1.1,1.3,2.3,2.6,3.4,3.9c0.1-0.1,0.2-0.2,0.2-0.2
			c1.5-1.8,3.1-3.5,4.6-5.3c1-1.2,1.2-2.5,0.9-4C147.9,136.2,147.1,135.4,146.3,134.5z M138,91c1.2-1.3,2.3-2.6,3.4-3.9
			c-2.4-2.8-4.9-5.6-7.3-8.5c-0.3,0.3-0.5,0.6-0.8,0.9c-1.5,1.8-1.5,4.3,0,6.1c1.1,1.3,2.2,2.5,3.3,3.8
			C137.1,89.9,137.5,90.4,138,91z M141.5,137.9c-2.4-2.8-4.9-5.6-7.3-8.5c-0.3,0.3-0.6,0.6-0.8,0.9c-1.5,1.8-1.5,4.3,0,6
			c1.4,1.7,2.9,3.4,4.3,5c0.1,0.1,0.2,0.2,0.4,0.4C139.2,140.5,140.3,139.2,141.5,137.9z M134.2,109.1c-0.3,0.3-0.5,0.6-0.7,0.8
			c-1.6,1.7-1.5,4.5,0,6.2c1.5,1.6,2.9,3.3,4.3,5c0.1,0.1,0.2,0.2,0.3,0.4c1.2-1.4,2.3-2.7,3.4-4C139,114.7,136.6,111.9,134.2,109.1
			z M138,152c1.2-1.3,2.3-2.6,3.4-3.9c-2.4-2.8-4.9-5.6-7.3-8.5c-0.3,0.3-0.5,0.6-0.7,0.9c-1.6,1.8-1.6,4.3,0,6.2
			c1.3,1.5,2.7,3.1,4,4.6C137.6,151.5,137.8,151.7,138,152z M141.5,107.4c-2.4-2.8-4.9-5.6-7.3-8.5c-0.3,0.4-0.6,0.7-0.9,1
			c-1.4,1.7-1.4,4.2,0,5.9c1.5,1.7,3,3.4,4.4,5.2c0.1,0.1,0.2,0.2,0.3,0.3C139.2,110,140.3,108.7,141.5,107.4z M146.3,104
			c-2.4,2.8-4.9,5.6-7.3,8.4c1.1,1.3,2.3,2.6,3.4,4c0.1-0.1,0.2-0.2,0.3-0.3c1.5-1.7,3-3.4,4.5-5.2c1-1.2,1.2-2.5,0.9-4
			C147.9,105.7,147.1,104.9,146.3,104z M134.2,88.7c-0.3,0.3-0.5,0.6-0.8,0.9c-1.5,1.8-1.5,4.3,0,6c1.5,1.7,2.9,3.4,4.4,5.1
			c0.1,0.1,0.2,0.2,0.3,0.3c1.1-1.3,2.3-2.6,3.4-3.9C139,94.4,136.6,91.6,134.2,88.7z M134.2,119.3c-0.3,0.4-0.6,0.7-0.8,1
			c-1.5,1.7-1.5,4.2,0,6c1.5,1.7,3,3.4,4.4,5.1c0.1,0.1,0.2,0.2,0.3,0.3c1.1-1.3,2.2-2.6,3.4-3.9C139,124.9,136.6,122.1,134.2,119.3
			z M146.7,151.8c1.1-2.1,1.1-5.4-0.4-7.1c-1,1.1-1.9,2.2-2.9,3.4C144.5,149.3,145.6,150.6,146.7,151.8z M137.1,153.2
			c-1-1.1-1.9-2.2-2.8-3.3c-1.4,1.7-1.6,5.2-0.4,7C134.9,155.7,135.9,154.4,137.1,153.2z"/>
		<path class="st41" d="M73.8,140.8c0,0.2,0,0.4,0,0.6c0,8.1,0,16.1,0,24.2c0,0.2,0,0.4,0,0.6c-0.1,0.3-0.3,0.6-0.7,0.6
			c-0.4,0-0.7-0.2-0.8-0.6c0-0.1,0-0.2,0-0.3c0-0.2,0-0.4,0-0.5c0-33.6,0-67.2,0-100.8c0-0.2,0-0.4,0-0.5c0-0.5,0.3-0.8,0.7-0.8
			c0.4,0,0.7,0.3,0.7,0.8c0,0.1,0,0.3,0,0.4c0,3.7,0,7.3,0,11c0,0.2,0,0.4,0,0.7c0.6,0.1,1.2,0,1.8,0c0-0.3,0-0.6,0-0.9
			c-0.1-3.8,0.5-7.4,1.8-11c0,0,0,0,0-0.1c0.3-0.9,0.5-1,1.5-0.7c2.5,0.8,5,1.8,7.3,3.1c0.2,0.1,0.3,0.2,0.6,0.3
			c0.1-0.8,0.2-1.4,0.3-2.1c0.2-1.1,0.4-1.3,1.5-1.1c2.6,0.5,5.1,1.4,7.4,2.8c0.1-0.1,0.2-0.2,0.3-0.3c0.7-0.7,1.4-1.5,2.2-2.2
			c0.8-0.8,1-0.8,1.8,0c1,1,1.9,2,2.8,3c0.1,0.1,0.2,0.2,0.3,0.4c0.1-0.1,0.2-0.1,0.3-0.2c2.6-1.8,5.4-2.9,8.5-3.4
			c1-0.2,1.2,0,1.4,1c0.1,0.6,0.2,1.3,0.3,2c0.2-0.1,0.4-0.2,0.5-0.3c2.1-1.2,4.4-2.1,6.7-2.8c0.2,0,0.3-0.1,0.5-0.1
			c0.6-0.1,0.9,0,1.1,0.6c0.4,1.3,0.9,2.7,1.2,4.1c0.6,2.4,0.8,4.9,0.7,7.5c0,0.2,0,0.3,0,0.5c0.6,0,1.2,0,1.8,0c0-0.2,0-0.4,0-0.7
			c0-3.7,0-7.4,0-11.1c0-0.1,0-0.3,0-0.4c0-0.4,0.3-0.7,0.7-0.7c0.4,0,0.7,0.2,0.8,0.6c0,0.1,0,0.2,0,0.3c0,0.2,0,0.3,0,0.5
			c0,33.6,0,67.1,0,100.7c0,0.3,0,0.5,0,0.8c-0.1,0.4-0.4,0.7-0.8,0.7c-0.4,0-0.6-0.3-0.7-0.7c0-0.2,0-0.3,0-0.5c0-8,0-16.1,0-24.1
			c0-0.2,0-0.4,0-0.6c0,0,0,0-0.1,0c-0.1,0.1-0.1,0.2-0.2,0.3c-0.7,1.9-1.5,3.8-2.5,5.6c-0.1,0.2-0.2,0.4-0.2,0.6
			c0,6.1,0,12.2,0,18.4c0,0.2,0,0.3,0,0.5c-0.1,0.4-0.3,0.6-0.7,0.6c-0.4,0-0.7-0.2-0.8-0.6c0-0.2,0-0.4,0-0.6c0-5.2,0-10.3,0-15.5
			c0-0.2,0-0.4,0-0.7c-0.2,0.2-0.3,0.3-0.3,0.4c-0.8,1-1.6,2-2.4,3c-0.2,0.3-0.3,0.5-0.3,0.8c0,4,0,8,0,12c0,0.2,0,0.3,0,0.5
			c0,0.4-0.3,0.7-0.7,0.7c-0.4,0-0.7-0.3-0.7-0.7c0-0.2,0-0.4,0-0.5c0-3.4,0-6.7,0-10.1c0-0.2,0-0.4,0-0.7c-0.1,0.1-0.2,0.2-0.3,0.2
			c-0.8,0.9-1.7,1.8-2.5,2.7c-0.2,0.2-0.2,0.4-0.2,0.7c0,2.4,0,4.9,0,7.3c0,0.2,0,0.4,0,0.5c-0.1,0.4-0.4,0.6-0.8,0.6
			c-0.4,0-0.6-0.3-0.7-0.7c0-0.1,0-0.3,0-0.4c0-1.8,0-3.6,0-5.4c0-0.2,0-0.4,0-0.6c-0.2,0.1-0.3,0.2-0.4,0.3
			c-0.8,0.8-1.5,1.6-2.3,2.4c-3,3.2-6.8,4.7-11.2,4.4c-3.5-0.2-6.5-1.6-9-4.2c-0.8-0.8-1.6-1.7-2.4-2.5c-0.1-0.1-0.2-0.3-0.3-0.4
			c0,0-0.1,0-0.1,0c0,0.2,0,0.4,0,0.6c0,1.8,0,3.6,0,5.3c0,0.2,0,0.4,0,0.6c-0.1,0.4-0.4,0.6-0.8,0.5c-0.3,0-0.6-0.3-0.7-0.6
			c0-0.2,0-0.3,0-0.5c0-2.4,0-4.8,0-7.2c0-0.3-0.1-0.6-0.3-0.8c-0.8-0.8-1.6-1.7-2.4-2.5c-0.1-0.1-0.2-0.2-0.2-0.3c0,0-0.1,0-0.1,0
			c0,0.2,0,0.4,0,0.6c0,3.4,0,6.8,0,10.2c0,0.2,0,0.3,0,0.5c0,0.4-0.3,0.6-0.7,0.6c-0.4,0-0.7-0.2-0.8-0.6c0-0.2,0-0.4,0-0.6
			c0-3.9,0-7.9,0-11.8c0-0.4-0.1-0.7-0.4-1.1c-0.9-1-1.7-2-2.6-3.1c-0.1,0.1-0.1,0.3-0.1,0.5c0,2,0,4,0,6c0,3.1,0,6.2,0,9.4
			c0,0.2,0,0.4,0,0.6c-0.1,0.4-0.4,0.6-0.8,0.5c-0.3,0-0.6-0.3-0.6-0.6c0-0.2,0-0.4,0-0.5c0-6,0-12,0-18c0-0.3-0.1-0.6-0.2-0.9
			c-1-1.7-1.8-3.5-2.4-5.4C74.1,141.1,74,141,73.8,140.8C73.9,140.8,73.9,140.8,73.8,140.8z M73.9,128.8c0,0.2,0,0.3,0,0.3
			c0,2.1,0,4.2,0.4,6.4c1,6.3,3.6,11.7,7.9,16.4c3,3.3,6,6.5,9.1,9.7c4.8,5.1,13,5,17.8,0c3-3.2,6-6.4,9-9.6
			c3.1-3.4,5.4-7.3,6.8-11.7c1.2-3.6,1.6-7.3,1.5-11.1c0,0,0,0-0.1-0.1c-0.1,0.1-0.1,0.2-0.2,0.3c-1.5,3.1-3.8,5.7-6.5,7.8
			c-0.1,0.1-0.3,0.2-0.4,0.3c-0.3,0.2-0.7,0.1-0.9-0.2c-0.2-0.3-0.2-0.6,0.1-0.9c0.1-0.1,0.2-0.1,0.3-0.2c0.8-0.7,1.6-1.3,2.3-2
			c2.2-2.1,3.8-4.6,4.8-7.5c0.3-1,0.6-1.9,0.6-2.9c0-5.6,0-11.2,0-16.8c0-0.1,0-0.3,0-0.5c-0.1,0.2-0.2,0.4-0.3,0.5
			c-2.2,3.3-5.2,5.3-9.1,5.7c-1,0.1-2,0.1-3,0.1c-0.6,0-1.2,0.1-1.8,0.2c-4.8,0.9-8.3,5.2-8.2,10c0,3.6,0,7.3,0,10.9
			c0,0.1,0,0.3,0,0.4c0,0.5-0.3,0.8-0.7,0.8c-0.4,0-0.7-0.3-0.8-0.8c0-0.1,0-0.3,0-0.4c0-3.6,0-7.2,0-10.8c0-0.8,0.1-1.6,0.2-2.4
			c0.8-5,5.2-9,10.2-9.4c1-0.1,2.1,0,3.1-0.1c4.4-0.2,7.5-2.4,9.5-6.3c0.1-0.1,0.1-0.2,0.1-0.4c-0.1,0-0.1-0.1-0.1-0.1
			c-0.2-0.2-0.4-0.3-0.7-0.5c-4.1-2.8-8.6-4.6-13.3-5.8c-0.3-0.1-0.5,0-0.7,0.2c-0.8,0.8-1.7,1.6-2.7,2.2c-3.9,2.4-8,3.1-12.3,1.6
			c-2.2-0.8-4.1-2-5.7-3.6c-0.4-0.4-0.7-0.5-1.2-0.3c-0.6,0.2-1.2,0.3-1.7,0.5c-4.2,1.2-8.1,3-11.7,5.5c-0.2,0.1-0.3,0.2-0.5,0.4
			c0.1,0.2,0.1,0.3,0.2,0.4c1.5,3,3.8,5,7,5.9c1,0.3,2.1,0.4,3.2,0.4c1,0,1.9,0,2.9,0.1c5.8,0.8,10,5.7,10,11.5c0,3.7,0,7.4,0,11.1
			c0,0.1,0,0.3,0,0.4c0,0.4-0.4,0.7-0.7,0.7c-0.4,0-0.7-0.2-0.7-0.6c0-0.2,0-0.4,0-0.6c0-3.6,0-7.2,0-10.8c0-0.6,0-1.3-0.1-1.9
			c-0.6-4-3.8-7.4-7.9-8.2c-0.7-0.1-1.4-0.2-2.2-0.2c-1.2,0-2.4,0-3.6-0.2c-3.7-0.7-6.6-2.6-8.5-5.8c-0.1-0.1-0.1-0.2-0.3-0.3
			c0,0.3,0,0.4,0,0.5c0,5.4,0,10.8,0,16.1c0,0.2,0,0.4,0,0.6c0.2,2,0.8,3.8,1.7,5.5c1.4,2.8,3.5,5,5.9,6.9c0.1,0.1,0.3,0.2,0.4,0.3
			c0.2,0.2,0.3,0.6,0.1,0.8c-0.2,0.3-0.5,0.4-0.8,0.2c-0.1,0-0.2-0.1-0.3-0.2c-2.9-2.2-5.2-4.8-6.8-8C74.1,129.1,74,129,73.9,128.8z
			 M92.1,90.1c0.2,0.1,0.4,0.2,0.7,0.4c1.8,0.8,3.6,1.3,5.5,1.5c3.7,0.2,7.1-0.8,10-3c3.4-2.6,5.2-6.1,5.5-10.5c0-0.6,0-0.6-0.5-0.9
			c-2.9-1.4-5.9-1.9-9.1-1.4c-5.1,0.9-8.8,3.7-11,8.5C92.5,86.4,92.1,88.2,92.1,90.1z M121.4,65.1c-0.2,0.1-0.4,0.1-0.5,0.1
			c-2.3,0.8-4.5,1.8-6.6,3c-0.3,0.2-0.5,0.4-0.5,0.9c0,2.1-0.4,4.1-1.3,6.1c0,0.1-0.1,0.2-0.1,0.3c0.8,0.4,1.5,0.7,2.2,1.1
			c0.5,0.2,0.7,0.6,0.7,1.2c0,3-0.8,5.8-2.4,8.4c-0.1,0.2-0.2,0.3-0.3,0.5c0.2,0.1,0.3,0.1,0.5,0.1c0.9,0.2,1.9,0.4,2.8,0.7
			c0.5,0.2,0.9,0.1,1.3-0.2c0.4-0.3,0.8-0.5,1.1-0.8c0.4-0.4,0.8-0.9,1.2-1.3c2.4-3.2,3.5-6.7,3.5-10.7c0-2.4-0.3-4.7-0.9-7
			C121.9,66.7,121.7,65.9,121.4,65.1z M86.2,87c-0.2-0.2-0.3-0.4-0.4-0.6c-2.5-3.7-3.2-7.8-2.2-12.2C84,73,84,73,85.2,72.9
			c0.6,0,1.3-0.1,1.9-0.1c-0.2-1.4-0.3-2.7-0.5-4.1c-2.5-1.6-5.1-2.8-7.9-3.7c-0.1,0.2-0.1,0.3-0.2,0.4c-1.1,3.4-1.7,6.9-1.4,10.4
			c0.2,3.7,1.6,6.9,3.9,9.8c0.4,0.5,0.9,0.9,1.4,1.3c0.3,0.2,0.7,0.4,1.1,0.5c0.1,0,0.3,0.1,0.4,0C84.6,87.4,85.4,87.2,86.2,87z
			 M74.1,103.1c0.3-0.2,0.4-0.3,0.6-0.4c1.3-0.9,2.7-1.8,4.2-2.5c5.9-3,12.3-4.5,18.9-4.8c4.9-0.2,9.8,0.3,14.6,1.5
			c4.7,1.2,9.2,3.1,13.2,5.9c0.1,0.1,0.2,0.1,0.3,0.2c0.1-0.4,0.2-0.7,0.2-1c0.1-1,0.1-1-0.7-1.6c-6.8-4.2-14.2-6.3-22.2-6.9
			c-3.5-0.2-6.9-0.1-10.4,0.4c-4.5,0.6-8.8,1.9-13,3.7c-2,0.9-3.9,1.9-5.7,3.1c-0.3,0.2-0.4,0.3-0.3,0.7
			C74,101.9,74,102.4,74.1,103.1z M96.4,78.1c-3.1-3-8-4.1-11.2-3.6c-0.8,2.6-0.6,6.3,1,9.5c1,2.1,3.4,4.8,4.5,5.2
			C91,84.6,93,81,96.4,78.1z M99.3,65.2c-2.1,1.7-6.1,7.2-6.3,8.9c1.7,0.7,3.3,1.8,4.7,3c2.5-1.6,5.2-2.5,8.2-2.7
			C104.3,70.9,102.1,67.9,99.3,65.2z M109.1,97.7c-6-1.1-11.9-1.1-17.9,0C96.6,102.9,104.3,102.5,109.1,97.7z M104.3,68.6
			c0,0.1,0,0.1,0,0.1c1.2,1.7,2.3,3.5,3,5.5c0.1,0.2,0.2,0.3,0.4,0.3c0.3,0,0.7,0,1,0.1c0.7,0.1,1.4,0.2,2.1,0.4
			c1.4-2.4,1.7-7.5,1.1-9.7C109.2,65.9,106.6,66.9,104.3,68.6z M105.7,92.2c7.3,0.9,14.2,3.1,20.5,7c0-0.1,0.1-0.1,0.1-0.2
			c0-0.6,0-1.1,0-1.7c0-0.4-0.1-0.6-0.5-0.8c-0.1-0.1-0.3-0.1-0.4-0.2c-5.2-2.8-10.8-4.6-16.7-5.5c-0.3-0.1-0.6,0-0.9,0.2
			c-0.6,0.3-1.2,0.6-1.8,1C106,92,105.9,92.1,105.7,92.2z M73.8,99.2c3-1.9,6.1-3.3,9.4-4.4c3.2-1.1,6.6-1.9,10-2.4
			c-0.1-0.1-0.3-0.2-0.4-0.3c-0.6-0.3-1.2-0.6-1.7-0.9c-0.3-0.2-0.6-0.2-1-0.2c-4.1,0.8-8.1,1.9-11.9,3.6c-1.3,0.6-2.6,1.3-3.9,1.9
			c-0.2,0.1-0.4,0.2-0.4,0.5C73.8,97.7,73.8,98.4,73.8,99.2z M88.4,65.3C88,68,88.1,70.5,88.8,73c0.9,0.2,1.8,0.4,2.7,0.6
			c0.9-2.1,2.1-3.9,3.5-5.8C92.9,66.6,90.7,65.8,88.4,65.3z M126.3,93.3c-0.1-0.1-0.2-0.1-0.3-0.2c-2.6-1.4-5.3-2.5-8.1-3.5
			c-2-0.6-4-1.2-6-1.6c-0.1,0-0.4,0-0.4,0c-0.5,0.4-0.9,0.9-1.4,1.4c5.7,1,11.2,2.8,16.3,5.5C126.3,94.4,126.3,93.8,126.3,93.3z
			 M124.2,77.7c-0.3,2.1-0.9,4-1.9,5.7c0.7,0.9,1.5,1.7,2.1,2.6c0.6,0.9,1.2,1.8,1.8,2.8c0-3.8,0-7.4,0-11.1
			C125.6,77.7,124.9,77.7,124.2,77.7z M88.9,89.8c-0.5-0.5-0.9-0.8-1.3-1.2c-0.2-0.2-0.4-0.3-0.7-0.2c-4.3,1-8.4,2.5-12.4,4.5
			c-0.9,0.5-0.7,0.2-0.7,1.2c0,0.3,0,0.6,0,1C78.6,92.5,83.6,90.8,88.9,89.8z M77.8,83.5c-1-1.9-1.6-3.8-2-5.8c-0.7,0-1.3,0-2,0
			c0,0.2,0,0.3,0,0.4c0,3.5,0,7,0,10.6c0,0,0,0,0,0c0,0,0,0,0.1,0C75,86.8,76.2,85,77.8,83.5z M81.4,88.3c-0.5-0.5-1.1-1-1.5-1.6
			c-0.5-0.6-0.9-1.2-1.4-1.8c-1.5,1.3-3.8,5-3.9,6.2C76.9,90.1,79.2,89.2,81.4,88.3z M118.5,88.3c2.4,0.8,4.7,1.8,6.9,2.8
			c0,0,0,0,0,0c0,0,0,0,0,0c-0.5-1.8-2.5-5-4-6.2C120.7,86.1,119.8,87.3,118.5,88.3z"/>
		<path class="st41" d="M62,149.2c-0.8,1-1.6,1.9-2.4,2.8c0.1,0.1,0.2,0.3,0.3,0.4c0.7,0.8,1.4,1.6,2.1,2.4c0.9,1,1.3,2.2,1.3,3.5
			c0,2.5,0,5,0,7.5c0,0.1,0,0.2,0,0.3c0,0.5-0.3,0.8-0.8,0.8c-0.4,0-0.7-0.3-0.7-0.8c0-0.1,0-0.3,0-0.4c0-2.4,0-4.8,0-7.1
			c0-1.1-0.3-2.1-1.1-2.9c-0.7-0.8-1.4-1.6-2.1-2.4c-1.1,1.3-2.2,2.5-3.3,3.8c0.2,0.2,0.3,0.4,0.5,0.5c0.4,0.5,0.8,1,1.3,1.4
			c0.6,0.6,0.9,1.4,0.9,2.3c0,1.6,0,3.1,0,4.7c0,0.1,0,0.3,0,0.4c-0.1,0.3-0.4,0.5-0.7,0.5c-0.3,0-0.6-0.2-0.7-0.5
			c0-0.2,0-0.3,0-0.5c0-1.4,0-2.8,0-4.2c0-0.7-0.2-1.3-0.7-1.8c-0.5-0.5-0.9-1-1.5-1.7c-0.1,0.2-0.2,0.3-0.2,0.4
			c-1,1.2-1.4,2.7-1.4,4.2c0,1,0,2,0,3c0,0.2,0,0.4,0,0.5c-0.1,0.4-0.4,0.6-0.7,0.6c-0.4,0-0.7-0.3-0.7-0.6c0-0.3,0-0.7,0-1
			c0-0.8,0-1.5,0-2.3c0-1.5,0.3-3,1.1-4.3c0-0.1,0.1-0.2,0.1-0.2c-1.7-3.3-1.6-6.5,0.4-9.6c-0.3-0.4-0.6-0.7-1-1.1
			c-0.5-0.6-0.9-1.3-1.2-2.1c-0.6-2.1-0.2-4.1,1.2-5.8c0.3-0.4,0.6-0.7,0.9-1.1c-0.3-0.3-0.5-0.7-0.8-1c-1.1-1.1-1.6-2.5-1.6-4
			c0-1.5,0.4-2.9,1.4-4c0.3-0.4,0.7-0.8,1-1.2c-0.3-0.4-0.6-0.7-0.9-1.1c-1-1.1-1.5-2.5-1.5-3.9c0-1.5,0.4-2.8,1.4-4
			c0.3-0.4,0.7-0.8,1-1.2c-0.4-0.4-0.7-0.8-1-1.2c-0.9-1.1-1.4-2.4-1.4-3.9c0-1.4,0.4-2.8,1.4-3.9c0.3-0.4,0.7-0.8,1-1.2
			c-0.3-0.4-0.6-0.7-0.9-1.1c-1-1.1-1.5-2.5-1.5-3.9c0-1.4,0.4-2.8,1.4-3.9c0.3-0.4,0.7-0.8,1-1.2c-0.3-0.3-0.6-0.7-0.9-1
			c-0.6-0.7-1-1.4-1.3-2.3c-0.6-2.1-0.2-4.1,1.2-5.8c0.3-0.3,0.6-0.7,0.9-1.1c-0.1-0.1-0.2-0.2-0.3-0.3c-0.3-0.3-0.6-0.7-0.8-1
			c-1.7-2.2-1.7-5.4,0-7.6c0.4-0.4,0.7-0.9,1.1-1.3c-0.1-0.2-0.2-0.3-0.3-0.4c-0.9-1.4-1.3-2.9-1.3-4.5c0-2.8,0-5.5,0-8.3
			c0-0.1,0-0.3,0-0.4c0-0.3,0.3-0.6,0.7-0.6c0.4,0,0.7,0.2,0.8,0.6c0,0.2,0,0.4,0,0.7c0,2.6,0,5.2,0,7.8c0,1.9,0.6,3.5,1.8,4.9
			c1,1.1,1.9,2.2,2.8,3.3c0.1,0.1,0.2,0.3,0.4,0.4c0.8-0.9,1.6-1.9,2.4-2.8c-0.1-0.2-0.2-0.3-0.4-0.4c-0.7-0.8-1.3-1.6-2-2.4
			c-0.8-0.9-1.2-2-1.2-3.3c0-2.6,0-5.2,0-7.8c0-0.1,0-0.3,0-0.4c0.1-0.3,0.4-0.5,0.7-0.5c0.3,0,0.6,0.2,0.7,0.5c0,0.2,0,0.4,0,0.5
			c0,2.4,0,4.7,0,7.1c0,1.2,0.3,2.3,1.2,3.2c0.7,0.7,1.3,1.5,2,2.3c1.1-1.2,2.2-2.5,3.3-3.8c-0.1-0.1-0.2-0.2-0.3-0.4
			c-0.5-0.5-0.9-1.1-1.4-1.6c-0.6-0.7-1-1.5-1-2.4c0-1.5,0-3.1,0-4.6c0-0.1,0-0.3,0.1-0.4c0.1-0.3,0.4-0.5,0.8-0.5
			c0.3,0,0.6,0.3,0.6,0.6c0,0.2,0,0.3,0,0.5c0,1.4,0,2.8,0,4.3c0,0.7,0.2,1.2,0.6,1.7c0.5,0.5,1,1.1,1.5,1.7
			c0.3-0.4,0.5-0.7,0.7-1.1c0.7-1.2,1-2.4,1-3.8c0-0.9,0-1.9,0-2.8c0-0.1,0-0.3,0-0.4c0.1-0.3,0.3-0.6,0.7-0.6
			c0.4,0,0.7,0.2,0.8,0.6c0,0.1,0,0.3,0,0.4c0,1.1,0,2.1,0,3.2c0,1.7-0.5,3.2-1.4,4.6c-0.1,0.1-0.1,0.2-0.2,0.3
			c0.3,0.4,0.6,0.7,0.9,1.1c2,2.3,2,5.6,0,7.9c-0.3,0.4-0.6,0.7-1,1.1c0.3,0.4,0.6,0.7,0.9,1c2,2.2,2.1,5.9,0,8.2
			c-0.3,0.3-0.5,0.6-0.8,1c0.1,0.1,0.2,0.2,0.3,0.4c0.2,0.3,0.5,0.6,0.7,0.9c1.9,2.2,1.9,5.6,0,7.8c-0.3,0.4-0.6,0.7-1,1.2
			c0.3,0.4,0.6,0.8,1,1.1c1.7,2,2,4.9,0.6,7.1c-0.3,0.5-0.7,0.9-1.1,1.4c-0.1,0.2-0.3,0.3-0.4,0.5c0.3,0.4,0.6,0.7,0.9,1.1
			c1.5,1.8,1.8,3.9,1.1,6.1c-0.2,0.7-0.6,1.3-1.1,1.9c-0.3,0.3-0.6,0.7-0.9,1.1c0.3,0.4,0.6,0.7,0.9,1.1c2,2.4,2,5.7,0,8.1
			c-0.3,0.3-0.6,0.7-0.9,1c0.1,0.1,0.2,0.2,0.3,0.3c0.2,0.3,0.5,0.5,0.7,0.8c1.9,2.3,1.9,5.6,0,7.9c-0.3,0.4-0.6,0.7-0.9,1.1
			c2,3.2,2.1,6.4,0.3,9.7c0,0.1,0.1,0.2,0.1,0.2c0.7,1.3,1.1,2.8,1.1,4.3c0,2.7,0,5.4,0,8.1c0,0.1,0,0.3,0,0.4
			c-0.1,0.4-0.4,0.6-0.7,0.6c-0.4,0-0.6-0.3-0.7-0.6c0-0.2,0-0.3,0-0.5c0-2.6,0-5.2,0-7.7c0-0.8-0.1-1.5-0.3-2.3
			c-0.3-0.9-0.7-1.8-1.3-2.5c-1.1-1.2-2.1-2.5-3.2-3.7C62.2,149.4,62.1,149.3,62,149.2z M58.6,92.1c1.1,1.3,2.3,2.6,3.4,3.9
			c0.1-0.1,0.1-0.1,0.2-0.2c1.6-1.8,3.1-3.6,4.7-5.5c0.3-0.4,0.6-0.9,0.7-1.4c0.6-2.1-0.1-3.8-1.7-5.3C63.4,86.5,61,89.3,58.6,92.1z
			 M62,116.4c0.1-0.1,0.2-0.1,0.2-0.2c1.5-1.8,3.1-3.6,4.6-5.4c0.6-0.7,0.9-1.6,1-2.6c0.1-1.7-0.7-3-1.9-4.2
			c-2.4,2.8-4.8,5.6-7.3,8.4C59.7,113.8,60.8,115.1,62,116.4z M62,126.6c0.1-0.1,0.2-0.2,0.3-0.3c1.5-1.7,3-3.5,4.5-5.2
			c1.5-1.7,1.7-4.8-0.9-6.9c-2.4,2.8-4.8,5.6-7.2,8.4C59.7,124,60.8,125.2,62,126.6z M53.7,119.3c-0.3,0.3-0.6,0.6-0.8,0.9
			c-1.5,1.7-1.5,4.3,0,6c1.5,1.7,2.9,3.4,4.4,5.1c0.1,0.1,0.2,0.2,0.3,0.3c1.1-1.3,2.2-2.6,3.4-3.9
			C58.6,124.9,56.2,122.1,53.7,119.3z M53.7,88.7c-0.3,0.3-0.5,0.6-0.7,0.8c-1.6,1.7-1.5,4.5,0,6.2c1.5,1.6,2.9,3.3,4.3,4.9
			c0.1,0.1,0.2,0.2,0.4,0.4c1.1-1.3,2.3-2.6,3.4-3.9C58.6,94.4,56.2,91.6,53.7,88.7z M57.6,152c1.1-1.3,2.3-2.6,3.4-3.9
			c-2.5-2.8-4.9-5.6-7.3-8.5c-0.3,0.3-0.6,0.6-0.8,0.9c-1.5,1.8-1.5,4.3,0,6c1.4,1.7,2.9,3.4,4.3,5C57.4,151.7,57.5,151.8,57.6,152z
			 M65.9,124.3c-2.5,2.8-4.9,5.6-7.3,8.5c1.1,1.3,2.3,2.6,3.4,3.9c0.1-0.1,0.1-0.1,0.2-0.1c1.6-1.8,3.2-3.7,4.8-5.5
			c1.3-1.5,1.2-3.9,0-5.5C66.6,125.2,66.3,124.8,65.9,124.3z M61,117.5c-2.5-2.8-4.9-5.6-7.3-8.4c-0.3,0.3-0.6,0.6-0.8,0.9
			c-1.5,1.8-1.5,4.3,0,6c1.4,1.7,2.9,3.3,4.3,5c0.1,0.1,0.2,0.3,0.4,0.4C58.8,120.2,59.9,118.9,61,117.5z M53.7,78.6
			c-0.3,0.4-0.6,0.7-0.8,1c-1.5,1.7-1.5,4.2,0,6c1.5,1.7,3,3.4,4.4,5.2c0.1,0.1,0.2,0.2,0.3,0.3c1.1-1.3,2.2-2.6,3.4-3.9
			C58.6,84.2,56.2,81.4,53.7,78.6z M65.9,73.5c-2.5,2.9-4.9,5.6-7.3,8.5c1.1,1.3,2.3,2.6,3.4,3.9c0.1-0.1,0.1-0.1,0.2-0.1
			c1.6-1.8,3.2-3.6,4.7-5.4c1.2-1.5,1.3-3.8,0.2-5.4C66.7,74.4,66.3,74,65.9,73.5z M58.6,143c1.1,1.3,2.3,2.6,3.4,3.9
			c0.1-0.1,0.2-0.1,0.2-0.2c1.5-1.8,3.1-3.6,4.6-5.4c0.3-0.4,0.6-0.9,0.8-1.4c0.6-2,0-3.8-1.7-5.3C63.4,137.4,61,140.1,58.6,143z
			 M53.7,98.9c-0.3,0.4-0.6,0.7-0.8,1c-1.5,1.7-1.5,4.2,0,6c1.5,1.7,3,3.4,4.4,5.2c0.1,0.1,0.2,0.2,0.3,0.3c1.1-1.3,2.2-2.6,3.4-3.9
			C58.6,104.5,56.2,101.8,53.7,98.9z M62,106.3c0.1-0.1,0.1-0.2,0.2-0.3c1.5-1.8,3.1-3.5,4.6-5.3c0.3-0.4,0.6-0.9,0.8-1.4
			c0.7-2,0.1-3.8-1.7-5.4c-2.4,2.8-4.8,5.6-7.3,8.4C59.7,103.6,60.9,104.9,62,106.3z M61,137.9c-2.4-2.8-4.9-5.6-7.3-8.5
			c-0.5,0.6-1.1,1.1-1.4,1.8c-0.8,1.8-0.7,3.5,0.6,5c1.4,1.7,3,3.4,4.4,5.2c0.1,0.1,0.2,0.2,0.3,0.4C58.8,140.5,59.9,139.2,61,137.9
			z M65.9,144.7c-1,1.1-1.9,2.2-2.9,3.4c1.1,1.3,2.2,2.5,3.3,3.8C67.4,149.9,67.3,146.6,65.9,144.7z M53.4,156.9
			c1.1-1.3,2.2-2.5,3.2-3.7c-1-1.1-1.9-2.2-2.8-3.3C52.4,151.7,52.2,155,53.4,156.9z"/>
		<path class="st41" d="M100,152.5c-4.1-0.1-7.3-1.8-9.6-5.1c-0.1-0.2-0.2-0.3-0.3-0.5c-0.3-0.5-0.2-0.8,0.3-1.2
			c0.1-0.1,0.2-0.2,0.4-0.2c2-0.9,4-1.9,6-2.8c0.5-0.3,1.1-0.2,1.7-0.1c0.3,0.1,0.6,0.2,0.8,0.3c0.5,0.3,1,0.3,1.6,0
			c0.2-0.1,0.5-0.2,0.8-0.3c0.6-0.1,1.2-0.2,1.7,0.1c2,0.9,3.9,1.8,5.9,2.8c0.2,0.1,0.4,0.2,0.5,0.3c0.4,0.3,0.5,0.6,0.3,1.1
			c-0.1,0.2-0.2,0.3-0.3,0.5c-2,3-4.8,4.7-8.4,5.1c-0.2,0-0.5,0.1-0.7,0.1C100.4,152.5,100.2,152.5,100,152.5z M91.7,146.6
			c2.1,2.9,4.9,4.4,8.4,4.3c3.5,0,6.2-1.5,8.3-4.4c-0.2-0.1-0.4-0.2-0.6-0.3c-1.6-0.7-3.2-1.5-4.8-2.2c-0.5-0.2-0.9-0.2-1.4,0
			c-0.1,0.1-0.3,0.1-0.4,0.2c-0.5,0.2-1,0.3-1.5,0.2c-0.3-0.1-0.7-0.2-1-0.4c-0.6-0.3-1.1-0.3-1.7-0.1c-1.6,0.8-3.2,1.5-4.7,2.2
			C92.1,146.4,91.9,146.5,91.7,146.6z"/>
		<path class="st41" d="M112.2,124c-1.3,0-2.6,0-3.9,0c-0.1,0-0.3,0-0.4,0c-0.5,0-0.8-0.3-0.8-0.8c0-0.6,0.1-1.2,0.2-1.8
			c0.8-3.1,3.6-5.3,6.8-5.3c2.5,0,5,0,7.6,0c0.8,0,1,0.3,1,1.1c-0.2,3.4-2.5,6.1-5.9,6.7c-0.5,0.1-1,0.1-1.5,0.1
			C114.3,124,113.3,124,112.2,124z M121.2,117.7c-0.2,0-0.3,0-0.4,0c-2.3,0-4.5,0-6.8,0c-2.5,0-4.7,1.9-5.3,4.3c0,0.2,0,0.3-0.1,0.5
			c0.1,0,0.1,0.1,0.2,0.1c2.4,0,4.7,0.1,7.1,0c2.5-0.1,4.6-1.9,5.2-4.3C121.2,118,121.2,117.9,121.2,117.7z"/>
		<path class="st41" d="M87.9,124c-1.3,0-2.7,0.1-4,0c-3.5-0.2-6.5-3.3-6.5-6.8c0-0.8,0.2-1,1-1c2.5,0,5.1,0,7.6,0
			c3.8,0,6.9,3.1,7,6.8c0,0.8-0.2,1.1-1,1.1C90.6,124,89.3,124,87.9,124C87.9,124,87.9,124,87.9,124z M91.4,122.5c0-0.1,0-0.2,0-0.2
			c-0.4-2.6-2.8-4.6-5.4-4.7c-2.2,0-4.5,0-6.7,0c-0.1,0-0.3,0-0.4,0c0.1,0.7,0.3,1.3,0.6,1.8c1.1,1.9,2.7,2.9,4.9,3
			c2.2,0.1,4.5,0,6.7,0C91.2,122.5,91.3,122.5,91.4,122.5z"/>
		<path class="st41" d="M99.7,155.1c1.2,0,2.3,0,3.5,0c0.1,0,0.3,0,0.4,0c0.4,0,0.6,0.3,0.6,0.7c0,0.4-0.2,0.7-0.6,0.7
			c-0.1,0-0.3,0-0.4,0c-2.4,0-4.8,0-7.1,0c-0.1,0-0.3,0-0.4,0c-0.4-0.1-0.6-0.4-0.6-0.8c0-0.3,0.3-0.6,0.6-0.7c0.1,0,0.3,0,0.4,0
			C97.3,155.1,98.5,155.1,99.7,155.1z"/>
		<path class="st41" d="M100.1,147.9c-0.8,0-1.6,0-2.3,0c-0.1,0-0.3,0-0.4,0c-0.3-0.1-0.6-0.3-0.6-0.7c0-0.3,0.2-0.6,0.5-0.7
			c0.2,0,0.3-0.1,0.5-0.1c1.6,0,3.2,0,4.8,0c0.1,0,0.3,0,0.4,0c0.4,0.1,0.6,0.4,0.6,0.8c0,0.4-0.3,0.6-0.7,0.7c-0.4,0-0.8,0-1.1,0
			C101.1,147.9,100.6,147.9,100.1,147.9z"/>
	</g>
	<g>
		<path class="st41" d="M53,46.7c-0.1-0.1-0.1-0.1-0.2-0.2l-3.3-10.1c0,0,0-0.1,0-0.1c0-0.1,0-0.2,0.1-0.3c0.1-0.1,0.2-0.1,0.3-0.1
			h1.1c0.1,0,0.2,0,0.3,0.1c0.1,0.1,0.1,0.1,0.2,0.3l2.5,7.9l2.5-7.9c0-0.1,0.1-0.2,0.2-0.3c0.1-0.1,0.2-0.1,0.3-0.1h1.1
			c0.1,0,0.2,0,0.3,0.1c0.1,0.1,0.1,0.1,0.1,0.3c0,0.1,0,0.1,0,0.1l-3.3,10.1c0,0.1-0.1,0.2-0.2,0.2c-0.1,0.1-0.2,0.1-0.3,0.1h-1.2
			C53.1,46.7,53,46.7,53,46.7z"/>
		<path class="st41" d="M61,46.2c-0.6-0.3-1-0.8-1.3-1.3c-0.3-0.6-0.5-1.2-0.5-1.8v-1.6c0-0.7,0.2-1.3,0.5-1.8
			c0.3-0.6,0.8-1,1.3-1.3c0.6-0.3,1.2-0.5,1.8-0.5c0.7,0,1.3,0.2,1.8,0.5c0.6,0.3,1,0.8,1.3,1.3c0.3,0.6,0.5,1.2,0.5,1.8v1
			c0,0.2-0.1,0.3-0.2,0.5c-0.1,0.1-0.3,0.2-0.5,0.2H61v0.1c0,0.5,0.2,0.9,0.5,1.3c0.3,0.3,0.8,0.5,1.3,0.5h2.4c0.1,0,0.2,0,0.2,0.1
			c0.1,0.1,0.1,0.1,0.1,0.2v1.1c0,0.1,0,0.2-0.1,0.2c-0.1,0.1-0.1,0.1-0.2,0.1h-2.4C62.1,46.7,61.5,46.5,61,46.2z M64.6,41.4v-0.1
			c0-0.5-0.2-0.9-0.5-1.3s-0.8-0.5-1.3-0.5c-0.5,0-0.9,0.2-1.3,0.5c-0.3,0.3-0.5,0.8-0.5,1.3v0.1H64.6z"/>
		<path class="st41" d="M68,46.6c-0.1-0.1-0.1-0.1-0.1-0.2v-1.1c0-0.1,0-0.2,0.1-0.2c0.1-0.1,0.1-0.1,0.2-0.1h1.2v-5.2h-1.3
			c-0.1,0-0.2,0-0.2-0.1c-0.1-0.1-0.1-0.1-0.1-0.2v-1.1c0-0.1,0-0.2,0.1-0.2C67.9,38,68,38,68.1,38h2.3c0.2,0,0.3,0.1,0.5,0.2
			c0.1,0.1,0.2,0.3,0.2,0.5v0.5l0.8-0.7c0.3-0.2,0.6-0.4,0.8-0.5c0.2-0.1,0.5-0.1,0.8-0.1h0.5c0.1,0,0.2,0,0.2,0.1
			c0.1,0.1,0.1,0.1,0.1,0.2v1.2c0,0.1,0,0.2-0.1,0.2c-0.1,0.1-0.1,0.1-0.2,0.1h-0.4c-0.3,0-0.5,0-0.7,0.1c-0.2,0.1-0.5,0.3-0.9,0.6
			l-0.8,0.7v3.8h1.5c0.1,0,0.2,0,0.2,0.1c0.1,0.1,0.1,0.1,0.1,0.2v1.1c0,0.1,0,0.2-0.1,0.2c-0.1,0.1-0.1,0.1-0.2,0.1h-4.4
			C68.1,46.7,68.1,46.6,68,46.6z"/>
		<path class="st41" d="M77.3,46.5c-0.1-0.1-0.2-0.3-0.2-0.5v-6.2h-1.2c-0.1,0-0.2,0-0.2-0.1c-0.1-0.1-0.1-0.1-0.1-0.2v-1.1
			c0-0.1,0-0.2,0.1-0.2c0.1-0.1,0.1-0.1,0.2-0.1h2.3c0.2,0,0.4,0.1,0.5,0.2s0.2,0.3,0.2,0.5v6.2h1.2c0.1,0,0.2,0,0.2,0.1
			s0.1,0.1,0.1,0.2v1.1c0,0.1,0,0.2-0.1,0.2c-0.1,0.1-0.1,0.1-0.2,0.1h-2.3C77.6,46.7,77.4,46.6,77.3,46.5z M77.2,36.9
			c-0.1-0.1-0.1-0.1-0.1-0.2V35c0-0.1,0-0.2,0.1-0.2c0.1-0.1,0.1-0.1,0.2-0.1h1c0.1,0,0.2,0,0.2,0.1c0.1,0.1,0.1,0.1,0.1,0.2v1.7
			c0,0.1,0,0.2-0.1,0.2c-0.1,0.1-0.1,0.1-0.2,0.1h-1C77.3,37,77.3,36.9,77.2,36.9z"/>
		<path class="st41" d="M82.9,46.6c-0.1-0.1-0.1-0.1-0.1-0.2v-6.7h-1.2c-0.1,0-0.2,0-0.2-0.1c-0.1-0.1-0.1-0.1-0.1-0.2v-1.1
			c0-0.1,0-0.2,0.1-0.2c0.1-0.1,0.1-0.1,0.2-0.1h1.2v-0.5c0-0.8,0.2-1.4,0.7-1.9c0.5-0.5,1.1-0.7,1.9-0.7h1.4c0.1,0,0.2,0,0.2,0.1
			c0.1,0.1,0.1,0.1,0.1,0.2v1c0,0.1,0,0.2-0.1,0.2s-0.1,0.1-0.2,0.1h-1.4c-0.3,0-0.5,0.1-0.6,0.2c-0.1,0.2-0.2,0.4-0.2,0.6V38h5.6
			c0.2,0,0.4,0.1,0.5,0.2c0.1,0.1,0.2,0.3,0.2,0.5v6.2h1.2c0.1,0,0.2,0,0.2,0.1s0.1,0.1,0.1,0.2v1.1c0,0.1,0,0.2-0.1,0.2
			c-0.1,0.1-0.1,0.1-0.2,0.1h-2.3c-0.2,0-0.4-0.1-0.5-0.2c-0.1-0.1-0.2-0.3-0.2-0.5v-6.2h-4.5v6.7c0,0.1,0,0.2-0.1,0.2
			c-0.1,0.1-0.1,0.1-0.2,0.1h-1.2C83,46.7,82.9,46.6,82.9,46.6z M89.2,36.9c-0.1-0.1-0.1-0.1-0.1-0.2v-1.7c0-0.1,0-0.2,0.1-0.2
			c0.1-0.1,0.1-0.1,0.2-0.1h1.2c0.1,0,0.2,0,0.2,0.1c0.1,0.1,0.1,0.1,0.1,0.2v1.7c0,0.1,0,0.2-0.1,0.2C90.8,37,90.7,37,90.6,37h-1.2
			C89.4,37,89.3,37,89.2,36.9z"/>
		<path class="st41" d="M95.5,46.2c-0.6-0.3-1-0.8-1.3-1.3c-0.3-0.6-0.5-1.2-0.5-1.8v-1.6c0-0.7,0.2-1.3,0.5-1.8
			c0.3-0.6,0.8-1,1.3-1.3c0.6-0.3,1.2-0.5,1.8-0.5c0.7,0,1.3,0.2,1.8,0.5c0.6,0.3,1,0.8,1.3,1.3c0.3,0.6,0.5,1.2,0.5,1.8v1
			c0,0.2-0.1,0.3-0.2,0.5c-0.1,0.1-0.3,0.2-0.5,0.2h-4.7v0.1c0,0.5,0.2,0.9,0.5,1.3c0.3,0.3,0.8,0.5,1.3,0.5h2.4
			c0.1,0,0.2,0,0.2,0.1s0.1,0.1,0.1,0.2v1.1c0,0.1,0,0.2-0.1,0.2c-0.1,0.1-0.1,0.1-0.2,0.1h-2.4C96.6,46.7,96,46.5,95.5,46.2z
			 M99.1,41.4v-0.1c0-0.5-0.2-0.9-0.5-1.3s-0.8-0.5-1.3-0.5c-0.5,0-0.9,0.2-1.3,0.5c-0.3,0.3-0.5,0.8-0.5,1.3v0.1H99.1z"/>
		<path class="st41" d="M104.3,46.4c-0.5-0.3-0.9-0.7-1.2-1.3c-0.3-0.5-0.5-1.1-0.5-1.7v-2.1c0-0.6,0.2-1.2,0.5-1.7
			c0.3-0.5,0.7-1,1.2-1.3c0.5-0.3,1.1-0.5,1.7-0.5c0.4,0,0.8,0.1,1.1,0.2c0.4,0.1,0.7,0.3,0.9,0.5v-3.1c0-0.1,0-0.2,0.1-0.2
			c0.1-0.1,0.1-0.1,0.2-0.1h1.2c0.1,0,0.2,0,0.2,0.1c0.1,0.1,0.1,0.1,0.1,0.2v11c0,0.1,0,0.2-0.1,0.2c-0.1,0.1-0.1,0.1-0.2,0.1h-1
			c-0.1,0-0.2,0-0.2-0.1c-0.1-0.1-0.1-0.1-0.1-0.2v-0.7c-0.3,0.4-0.6,0.7-1,0.9c-0.4,0.2-0.8,0.3-1.3,0.3
			C105.4,46.9,104.8,46.7,104.3,46.4z M107.5,44.6c0.4-0.3,0.5-0.8,0.5-1.3v-2c0-0.5-0.2-0.9-0.5-1.3c-0.4-0.3-0.8-0.5-1.3-0.5
			c-0.5,0-0.9,0.2-1.3,0.5c-0.3,0.3-0.5,0.8-0.5,1.3v2c0,0.5,0.2,0.9,0.5,1.3c0.3,0.3,0.8,0.5,1.3,0.5
			C106.7,45.1,107.1,45,107.5,44.6z"/>
		<path class="st41" d="M118.3,46.8c-0.2,0-0.4-0.1-0.5-0.3l-2.7-8c0-0.1,0-0.1,0-0.1c0-0.1,0-0.2,0.1-0.3c0.1-0.1,0.2-0.1,0.3-0.1
			h1.1c0.1,0,0.2,0,0.3,0.1c0.1,0.1,0.1,0.1,0.2,0.2l1.9,6.1l1.7-6.1c0-0.1,0.1-0.2,0.2-0.2c0.1-0.1,0.2-0.1,0.3-0.1h1.1
			c0.1,0,0.2,0,0.3,0.1c0.1,0.1,0.1,0.1,0.2,0.2l1.8,6.1l1.7-6.1c0-0.1,0.1-0.2,0.2-0.2c0.1-0.1,0.2-0.1,0.3-0.1h1
			c0.1,0,0.2,0,0.3,0.1c0.1,0.1,0.1,0.1,0.1,0.3c0,0,0,0.1,0,0.1l-2.5,8c0,0.1-0.1,0.2-0.2,0.2c-0.1,0.1-0.2,0.1-0.3,0.1l-1.2,0
			c-0.1,0-0.2,0-0.3-0.1c-0.1-0.1-0.1-0.1-0.2-0.2l-1.7-5.7l-1.6,5.7c0,0.1-0.1,0.2-0.2,0.2c-0.1,0.1-0.2,0.1-0.3,0.1L118.3,46.8z"
			/>
		<path class="st41" d="M131.1,46.5c-0.1-0.1-0.2-0.3-0.2-0.5v-6.2h-1.2c-0.1,0-0.2,0-0.2-0.1c-0.1-0.1-0.1-0.1-0.1-0.2v-1.1
			c0-0.1,0-0.2,0.1-0.2c0.1-0.1,0.1-0.1,0.2-0.1h2.3c0.2,0,0.4,0.1,0.5,0.2c0.1,0.1,0.2,0.3,0.2,0.5v6.2h1.2c0.1,0,0.2,0,0.2,0.1
			s0.1,0.1,0.1,0.2v1.1c0,0.1,0,0.2-0.1,0.2c-0.1,0.1-0.1,0.1-0.2,0.1h-2.3C131.4,46.7,131.2,46.6,131.1,46.5z M131,36.9
			c-0.1-0.1-0.1-0.1-0.1-0.2V35c0-0.1,0-0.2,0.1-0.2c0.1-0.1,0.1-0.1,0.2-0.1h1c0.1,0,0.2,0,0.2,0.1c0.1,0.1,0.1,0.1,0.1,0.2v1.7
			c0,0.1,0,0.2-0.1,0.2c-0.1,0.1-0.1,0.1-0.2,0.1h-1C131.2,37,131.1,36.9,131,36.9z"/>
		<path class="st41" d="M137.1,45.9c-0.5-0.5-0.7-1.1-0.7-1.9v-4.3h-1c-0.1,0-0.2,0-0.2-0.1s-0.1-0.1-0.1-0.2v-1.1
			c0-0.1,0-0.2,0.1-0.2c0.1-0.1,0.1-0.1,0.2-0.1h1v-1.6c0-0.1,0-0.2,0.1-0.2c0.1-0.1,0.1-0.1,0.2-0.1h1.2c0.1,0,0.2,0,0.2,0.1
			c0.1,0.1,0.1,0.1,0.1,0.2V38h2.6c0.1,0,0.2,0,0.2,0.1c0.1,0.1,0.1,0.1,0.1,0.2v1.1c0,0.1,0,0.2-0.1,0.2c-0.1,0.1-0.1,0.1-0.2,0.1
			h-2.6V44c0,0.3,0.1,0.5,0.3,0.7c0.2,0.2,0.4,0.3,0.7,0.3l1.6,0c0.1,0,0.2,0,0.2,0.1c0.1,0.1,0.1,0.1,0.1,0.2v1.1
			c0,0.1,0,0.2-0.1,0.2c-0.1,0.1-0.1,0.1-0.2,0.1H139C138.2,46.7,137.5,46.4,137.1,45.9z"/>
		<path class="st41" d="M143,46.6c-0.1-0.1-0.1-0.1-0.1-0.2v-11c0-0.1,0-0.2,0.1-0.2c0.1-0.1,0.1-0.1,0.2-0.1h1.2
			c0.1,0,0.2,0,0.2,0.1c0.1,0.1,0.1,0.1,0.1,0.2v3.3c0.3-0.3,0.6-0.5,1-0.7c0.4-0.2,0.8-0.3,1.2-0.3c0.6,0,1.2,0.1,1.7,0.4
			c0.5,0.3,0.9,0.6,1.1,1.1c0.3,0.5,0.4,1,0.4,1.7v5.4c0,0.1,0,0.2-0.1,0.2c-0.1,0.1-0.1,0.1-0.2,0.1h-1.2c-0.1,0-0.2,0-0.2-0.1
			c-0.1-0.1-0.1-0.1-0.1-0.2v-5.2c0-0.5-0.1-0.9-0.4-1.2c-0.3-0.3-0.7-0.4-1.2-0.4c-0.6,0-1.1,0.2-1.4,0.6c-0.3,0.4-0.5,0.9-0.5,1.6
			v4.6c0,0.1,0,0.2-0.1,0.2c-0.1,0.1-0.1,0.1-0.2,0.1h-1.2C143.2,46.7,143.1,46.6,143,46.6z"/>
	</g>
	<g>
		<path class="st41" d="M72.5,195.9c-0.1-0.1-0.1-0.2-0.1-0.3v-1.3c0-0.1,0-0.2,0.1-0.3c0.1-0.1,0.2-0.1,0.3-0.1h1.6v-9.5h-1.6
			c-0.1,0-0.2,0-0.3-0.1c-0.1-0.1-0.1-0.2-0.1-0.3v-1.3c0-0.1,0-0.2,0.1-0.3c0.1-0.1,0.2-0.1,0.3-0.1h5.6c0.1,0,0.2,0,0.3,0.1
			c0.1,0.1,0.1,0.2,0.1,0.3v1.3c0,0.1,0,0.2-0.1,0.3c-0.1,0.1-0.2,0.1-0.3,0.1h-1.6v9.5h1.6c0.1,0,0.2,0,0.3,0.1
			c0.1,0.1,0.1,0.2,0.1,0.3v1.3c0,0.1,0,0.2-0.1,0.3c-0.1,0.1-0.2,0.1-0.3,0.1h-5.6C72.7,196,72.6,196,72.5,195.9z"/>
		<path class="st41" d="M81.7,195.8c-0.2-0.2-0.2-0.4-0.2-0.6v-12.1c0-0.2,0.1-0.4,0.2-0.6c0.2-0.2,0.4-0.2,0.6-0.2H86
			c1,0,1.9,0.2,2.7,0.7c0.8,0.5,1.4,1.1,1.9,1.9c0.5,0.8,0.7,1.7,0.7,2.7v3c0,1-0.2,1.9-0.7,2.7c-0.5,0.8-1.1,1.5-1.9,1.9
			c-0.8,0.5-1.7,0.7-2.7,0.7h-3.8C82,196,81.8,195.9,81.7,195.8z M85.9,193.8c0.5,0,1.1-0.1,1.5-0.4c0.5-0.3,0.8-0.6,1.1-1.1
			c0.3-0.5,0.4-1,0.4-1.5v-3.1c0-0.5-0.1-1.1-0.4-1.5c-0.3-0.5-0.6-0.8-1.1-1.1c-0.5-0.3-1-0.4-1.5-0.4h-2.1v9.2H85.9z"/>
		<path class="st41" d="M94.2,195.8c-0.2-0.2-0.2-0.4-0.2-0.6v-12.1c0-0.2,0.1-0.4,0.2-0.6c0.2-0.2,0.4-0.2,0.6-0.2h6.5
			c0.1,0,0.2,0,0.3,0.1c0.1,0.1,0.1,0.2,0.1,0.3v1.4c0,0.1,0,0.2-0.1,0.3c-0.1,0.1-0.2,0.1-0.3,0.1h-5v3.3h3.7c0.1,0,0.2,0,0.3,0.1
			c0.1,0.1,0.1,0.2,0.1,0.3v1.4c0,0.1,0,0.2-0.1,0.3c-0.1,0.1-0.2,0.1-0.3,0.1h-3.7v3.8h5c0.1,0,0.2,0,0.3,0.1
			c0.1,0.1,0.1,0.2,0.1,0.3v1.4c0,0.1,0,0.2-0.1,0.3c-0.1,0.1-0.2,0.1-0.3,0.1h-6.5C94.5,196,94.3,195.9,94.2,195.8z"/>
		<path class="st41" d="M104.5,195.9c-0.1-0.1-0.1-0.2-0.1-0.3v-12.8c0-0.2,0.1-0.3,0.2-0.4c0.1-0.1,0.2-0.2,0.4-0.2h1.6
			c0.2,0,0.4,0.1,0.5,0.3l4.6,7.8l0.9,1.6v-9.3c0-0.1,0-0.2,0.1-0.3c0.1-0.1,0.2-0.1,0.3-0.1h1.4c0.1,0,0.2,0,0.3,0.1
			c0.1,0.1,0.1,0.2,0.1,0.3v12.8c0,0.2-0.1,0.3-0.2,0.4c-0.1,0.1-0.2,0.2-0.4,0.2h-1.6c-0.2,0-0.4-0.1-0.5-0.3l-4.8-8.1l-0.7-1.3
			v9.2c0,0.1,0,0.2-0.1,0.3c-0.1,0.1-0.2,0.1-0.3,0.1h-1.4C104.6,196,104.5,196,104.5,195.9z"/>
		<path class="st41" d="M117.1,195.9c-0.1-0.1-0.1-0.2-0.1-0.3c0-0.1,0-0.1,0-0.2l4.2-12.8c0-0.1,0.1-0.2,0.2-0.3
			c0.1-0.1,0.2-0.1,0.4-0.1h1.5c0.1,0,0.3,0,0.4,0.1c0.1,0.1,0.2,0.2,0.2,0.3l4.2,12.8c0,0,0,0.1,0,0.2c0,0.1,0,0.2-0.1,0.3
			c-0.1,0.1-0.2,0.1-0.3,0.1h-1.4c-0.1,0-0.3,0-0.4-0.1c-0.1-0.1-0.2-0.2-0.2-0.3l-0.9-2.8h-4.5l-0.9,2.8c0,0.1-0.1,0.2-0.2,0.3
			c-0.1,0.1-0.2,0.1-0.4,0.1h-1.3C117.3,196,117.2,196,117.1,195.9z M124,190.6l-1.6-5.1l-1.6,5.1H124z"/>
	</g>
	<rect x="37.2" y="25.2" class="st80" width="125.6" height="179.5"/>
	<rect x="25" y="55" class="st80" width="150" height="119.9"/>
</g>
</svg>
