<?xml version="1.0" encoding="utf-8"?>
<!-- Generator: Adobe Illustrator 25.2.0, SVG Export Plug-In . SVG Version: 6.00 Build 0)  -->
<svg version="1.1" id="Layer_1" xmlns="http://www.w3.org/2000/svg" xmlns:xlink="http://www.w3.org/1999/xlink" x="0px" y="0px"
	 width="200px" height="250px" viewBox="0 0 200 250" style="enable-background:new 0 0 200 250;" xml:space="preserve">
<style type="text/css">
	.st0{fill:#0E0333;}
	.st1{clip-path:url(#SVGID_2_);fill:none;stroke:#3B3058;stroke-width:2;stroke-miterlimit:10;}
	.st2{clip-path:url(#SVGID_4_);fill:none;stroke:#3B3058;stroke-width:2;stroke-miterlimit:10;}
	.st3{clip-path:url(#SVGID_4_);fill:none;stroke:#3B3058;stroke-width:3;stroke-miterlimit:10;}
	.st4{clip-path:url(#SVGID_4_);fill:none;stroke:#3B3058;stroke-width:4;stroke-miterlimit:10;}
	.st5{clip-path:url(#SVGID_4_);fill:none;stroke:#3B3058;stroke-width:5;stroke-miterlimit:10;}
	.st6{clip-path:url(#SVGID_4_);fill:none;stroke:#3B3058;stroke-width:6;stroke-miterlimit:10;}
	.st7{clip-path:url(#SVGID_4_);fill:none;stroke:#3B3058;stroke-width:7;stroke-miterlimit:10;}
	.st8{fill-rule:evenodd;clip-rule:evenodd;fill:#0E0333;}
	.st9{fill:none;stroke:#02E2AC;stroke-linecap:round;stroke-linejoin:round;stroke-dasharray:0,3.999;}
	.st10{fill:none;stroke:#02E2AC;stroke-width:1.04;stroke-linecap:round;stroke-linejoin:round;stroke-dasharray:0,3.9929;}
	.st11{fill:none;stroke:#02E2AC;stroke-width:1.08;stroke-linecap:round;stroke-linejoin:round;stroke-dasharray:0,4.0096;}
	.st12{fill:none;stroke:#02E2AC;stroke-width:1.12;stroke-linecap:round;stroke-linejoin:round;stroke-dasharray:0,4.0034;}
	.st13{fill:none;stroke:#02E2AC;stroke-width:1.16;stroke-linecap:round;stroke-linejoin:round;stroke-dasharray:0,3.9968;}
	.st14{fill:none;stroke:#02E2AC;stroke-width:1.2;stroke-linecap:round;stroke-linejoin:round;stroke-dasharray:0,3.9897;}
	.st15{fill:none;stroke:#02E2AC;stroke-width:1.24;stroke-linecap:round;stroke-linejoin:round;stroke-dasharray:0,4.009;}
	.st16{fill:none;stroke:#02E2AC;stroke-width:1.28;stroke-linecap:round;stroke-linejoin:round;stroke-dasharray:0,4.0017;}
	.st17{fill:none;stroke:#02E2AC;stroke-width:1.32;stroke-linecap:round;stroke-linejoin:round;stroke-dasharray:0,3.9938;}
	.st18{fill:none;stroke:#02E2AC;stroke-width:1.36;stroke-linecap:round;stroke-linejoin:round;stroke-dasharray:0,3.9851;}
	.st19{fill:none;stroke:#02E2AC;stroke-width:1.4;stroke-linecap:round;stroke-linejoin:round;stroke-dasharray:0,4.0082;}
	.st20{fill:none;stroke:#02E2AC;stroke-width:1.44;stroke-linecap:round;stroke-linejoin:round;stroke-dasharray:0,3.9993;}
	.st21{fill:none;stroke:#02E2AC;stroke-width:1.48;stroke-linecap:round;stroke-linejoin:round;stroke-dasharray:0,3.9894;}
	.st22{fill:none;stroke:#02E2AC;stroke-width:1.52;stroke-linecap:round;stroke-linejoin:round;stroke-dasharray:0,4.0166;}
	.st23{fill:none;stroke:#02E2AC;stroke-width:1.56;stroke-linecap:round;stroke-linejoin:round;stroke-dasharray:0,4.0062;}
	.st24{fill:none;stroke:#02E2AC;stroke-width:1.6;stroke-linecap:round;stroke-linejoin:round;stroke-dasharray:0,3.9945;}
	.st25{fill:none;stroke:#02E2AC;stroke-width:1.64;stroke-linecap:round;stroke-linejoin:round;stroke-dasharray:0,3.9813;}
	.st26{fill:none;stroke:#02E2AC;stroke-width:1.68;stroke-linecap:round;stroke-linejoin:round;stroke-dasharray:0,4.0171;}
	.st27{fill:none;stroke:#02E2AC;stroke-width:1.72;stroke-linecap:round;stroke-linejoin:round;stroke-dasharray:0,4.0036;}
	.st28{fill:none;stroke:#02E2AC;stroke-width:1.76;stroke-linecap:round;stroke-linejoin:round;stroke-dasharray:0,3.9877;}
	.st29{fill:none;stroke:#02E2AC;stroke-width:1.8;stroke-linecap:round;stroke-linejoin:round;stroke-dasharray:0,3.9686;}
	.st30{fill:none;stroke:#02E2AC;stroke-width:1.84;stroke-linecap:round;stroke-linejoin:round;stroke-dasharray:0,4.0196;}
	.st31{fill:none;stroke:#02E2AC;stroke-width:1.88;stroke-linecap:round;stroke-linejoin:round;stroke-dasharray:0,3.9993;}
	.st32{fill:none;stroke:#02E2AC;stroke-width:1.92;stroke-linecap:round;stroke-linejoin:round;stroke-dasharray:0,3.973;}
	.st33{fill:none;stroke:#02E2AC;stroke-width:1.96;stroke-linecap:round;stroke-linejoin:round;stroke-dasharray:0,4.0535;}
	.st34{fill:none;stroke:#02E2AC;stroke-width:2;stroke-linecap:round;stroke-linejoin:round;stroke-dasharray:0,4.0266;}
	.st35{fill-rule:evenodd;clip-rule:evenodd;fill:#15EBB7;}
	.st36{fill-rule:evenodd;clip-rule:evenodd;fill:#FFFFFF;}
	.st37{fill:#F35890;}
	.st38{fill:#02E2AC;}
	.st39{fill:#15EBB7;}
	.st40{fill:#FFFFFF;}
	.st41{fill:#3B3058;}
	.st42{fill:#FB8A61;}
	.st43{fill:#41B2FF;fill-opacity:0.9939;}
	.st44{fill-rule:evenodd;clip-rule:evenodd;fill:#5096C8;}
	.st45{fill-rule:evenodd;clip-rule:evenodd;fill:#FFD086;}
	.st46{fill-rule:evenodd;clip-rule:evenodd;fill:#270B0B;fill-opacity:0.9939;}
	.st47{fill-rule:evenodd;clip-rule:evenodd;fill:#CD8A03;fill-opacity:0.9939;}
	.st48{fill-rule:evenodd;clip-rule:evenodd;fill:#402801;fill-opacity:0.9939;}
	.st49{fill-rule:evenodd;clip-rule:evenodd;fill:#FBBC38;fill-opacity:0.9939;}
	.st50{fill-rule:evenodd;clip-rule:evenodd;fill:#FCC24D;fill-opacity:0.9939;}
	.st51{fill:none;}
	.st52{fill:#FABB37;}
	.st53{fill:#FFD086;}
	.st54{fill:#FBC14C;}
	.st55{fill:#CC8902;}
	.st56{fill:#4285F4;}
	.st57{fill:#34A853;}
	.st58{fill:#FBBC04;}
	.st59{fill:#EA4335;}
	.st60{fill-rule:evenodd;clip-rule:evenodd;fill:#FCCDD3;}
	.st61{filter:url(#Adobe_OpacityMaskFilter);}
	.st62{mask:url(#mask-2_1_);fill-rule:evenodd;clip-rule:evenodd;fill:#6534FF;}
	.st63{fill-rule:evenodd;clip-rule:evenodd;fill:#FEFEFE;}
	.st64{fill-rule:evenodd;clip-rule:evenodd;fill:#6534FF;}
	.st65{fill:#8C65F7;}
	.st66{fill:#6F3FF5;}
	.st67{fill:#5932C4;}
	.st68{fill:#9B95B0;}
	.st69{fill:#5BF1CD;}
	.st70{fill:#11BC92;}
	.st71{fill:#F579A6;}
	.st72{fill:#D44D6E;}
	.st73{opacity:0.5;fill:#0E0333;}
	.st74{fill:#D6D6D6;}
	.st75{fill:#FFEEA9;}
	.st76{fill:url(#SVGID_5_);}
	.st77{opacity:0.5;clip-path:url(#SVGID_7_);fill:none;stroke:url(#SVGID_8_);stroke-width:0.75;stroke-miterlimit:10;}
	.st78{opacity:0.5;clip-path:url(#SVGID_7_);fill:none;stroke:url(#SVGID_9_);stroke-width:0.75;stroke-miterlimit:10;}
	.st79{fill:none;stroke:#9B95B0;stroke-width:2;stroke-miterlimit:10;}
	.st80{fill:none;stroke:#3B3058;stroke-width:3;stroke-miterlimit:10;}
	.st81{fill:#FFFFFF;stroke:#3B3058;stroke-width:3;stroke-miterlimit:10;}
	.st82{fill:#616161;fill-opacity:0.9939;}
	.st83{fill-rule:evenodd;clip-rule:evenodd;fill:#818181;fill-opacity:0.9939;}
	.st84{fill-rule:evenodd;clip-rule:evenodd;fill:#A1A1A1;}
	.st85{fill-rule:evenodd;clip-rule:evenodd;fill:#2F2F2F;fill-opacity:0.9939;}
	.st86{fill-rule:evenodd;clip-rule:evenodd;fill:#616161;fill-opacity:0.9939;}
	.st87{fill:#3E3E3E;}
	.st88{fill:#818181;fill-opacity:0.9939;}
	.st89{fill:#2F2F2F;fill-opacity:0.9939;}
	.st90{fill:none;stroke:#02E2AC;stroke-width:3;stroke-miterlimit:10;}
	.st91{fill:#383838;}
	
		.st92{fill:none;stroke:#383838;stroke-width:3;stroke-linecap:round;stroke-linejoin:round;stroke-miterlimit:10;stroke-dasharray:0,10;}
	.st93{fill:none;stroke:#383838;stroke-width:3;stroke-miterlimit:10;}
</style>
<g id="Pattern">
</g>
<g>
	<g>
		<path class="st41" d="M69.1,68.4c-0.1-0.1-0.2-0.2-0.2-0.3l-3.7-11.5c0,0,0-0.1,0-0.1c0-0.1,0-0.2,0.1-0.3
			c0.1-0.1,0.2-0.1,0.3-0.1h1.2c0.1,0,0.2,0,0.3,0.1c0.1,0.1,0.2,0.2,0.2,0.3l2.8,9l2.8-9c0-0.1,0.1-0.2,0.2-0.3
			c0.1-0.1,0.2-0.1,0.3-0.1h1.2c0.1,0,0.2,0,0.3,0.1c0.1,0.1,0.1,0.2,0.1,0.3c0,0.1,0,0.1,0,0.1l-3.7,11.5c0,0.1-0.1,0.2-0.2,0.3
			c-0.1,0.1-0.2,0.1-0.3,0.1h-1.3C69.3,68.5,69.2,68.5,69.1,68.4z"/>
		<path class="st41" d="M78.2,67.9c-0.6-0.4-1.1-0.9-1.5-1.5c-0.4-0.6-0.6-1.3-0.6-2.1v-1.9c0-0.7,0.2-1.4,0.6-2.1
			c0.4-0.6,0.9-1.1,1.5-1.5c0.6-0.4,1.3-0.6,2.1-0.6c0.7,0,1.4,0.2,2.1,0.6c0.6,0.4,1.1,0.9,1.5,1.5c0.4,0.6,0.6,1.3,0.6,2.1v1.2
			c0,0.2-0.1,0.4-0.2,0.5c-0.1,0.1-0.3,0.2-0.5,0.2h-5.4v0.1c0,0.6,0.2,1,0.6,1.4c0.4,0.4,0.9,0.6,1.4,0.6H83c0.1,0,0.2,0,0.3,0.1
			c0.1,0.1,0.1,0.2,0.1,0.3v1.2c0,0.1,0,0.2-0.1,0.3c-0.1,0.1-0.2,0.1-0.3,0.1h-2.7C79.5,68.4,78.8,68.3,78.2,67.9z M82.3,62.5v-0.2
			c0-0.6-0.2-1-0.6-1.4s-0.9-0.6-1.4-0.6c-0.6,0-1,0.2-1.4,0.6c-0.4,0.4-0.6,0.9-0.6,1.4v0.2H82.3z"/>
		<path class="st41" d="M86.2,68.3c-0.1-0.1-0.1-0.2-0.1-0.3v-1.3c0-0.1,0-0.2,0.1-0.3c0.1-0.1,0.2-0.1,0.3-0.1h1.3v-5.9h-1.5
			c-0.1,0-0.2,0-0.3-0.1c-0.1-0.1-0.1-0.2-0.1-0.3v-1.2c0-0.1,0-0.2,0.1-0.3c0.1-0.1,0.2-0.1,0.3-0.1H89c0.2,0,0.4,0.1,0.5,0.2
			s0.2,0.3,0.2,0.5v0.6l0.9-0.7c0.3-0.3,0.6-0.5,0.9-0.6c0.3-0.1,0.6-0.2,0.9-0.2H93c0.1,0,0.2,0,0.3,0.1c0.1,0.1,0.1,0.2,0.1,0.3
			v1.3c0,0.1,0,0.2-0.1,0.3c-0.1,0.1-0.2,0.1-0.3,0.1h-0.4c-0.3,0-0.6,0.1-0.8,0.2c-0.2,0.1-0.6,0.3-1,0.7l-0.9,0.8v4.4h1.7
			c0.1,0,0.2,0,0.3,0.1c0.1,0.1,0.1,0.2,0.1,0.3v1.3c0,0.1,0,0.2-0.1,0.3c-0.1,0.1-0.2,0.1-0.3,0.1h-5
			C86.4,68.4,86.3,68.4,86.2,68.3z"/>
		<path class="st41" d="M96.8,68.2c-0.2-0.2-0.3-0.4-0.3-0.6v-7.1h-1.4c-0.1,0-0.2,0-0.3-0.1c-0.1-0.1-0.1-0.2-0.1-0.3v-1.2
			c0-0.1,0-0.2,0.1-0.3c0.1-0.1,0.2-0.1,0.3-0.1h2.6c0.2,0,0.4,0.1,0.6,0.3c0.2,0.2,0.3,0.4,0.3,0.6v7.1h1.4c0.1,0,0.2,0,0.3,0.1
			c0.1,0.1,0.1,0.2,0.1,0.3v1.2c0,0.1,0,0.2-0.1,0.3s-0.2,0.1-0.3,0.1h-2.6C97.2,68.4,96.9,68.4,96.8,68.2z M96.7,57.3
			c-0.1-0.1-0.1-0.2-0.1-0.3v-1.9c0-0.1,0-0.2,0.1-0.3c0.1-0.1,0.2-0.1,0.3-0.1h1.2c0.1,0,0.2,0,0.3,0.1c0.1,0.1,0.1,0.2,0.1,0.3V57
			c0,0.1,0,0.2-0.1,0.3c-0.1,0.1-0.2,0.1-0.3,0.1H97C96.9,57.4,96.8,57.4,96.7,57.3z"/>
		<path class="st41" d="M103.2,68.3c-0.1-0.1-0.1-0.2-0.1-0.3v-7.6h-1.4c-0.1,0-0.2,0-0.3-0.1c-0.1-0.1-0.1-0.2-0.1-0.3v-1.2
			c0-0.1,0-0.2,0.1-0.3c0.1-0.1,0.2-0.1,0.3-0.1h1.4V58c0-0.9,0.3-1.6,0.8-2.2c0.6-0.6,1.3-0.8,2.2-0.8h1.6c0.1,0,0.2,0,0.3,0.1
			c0.1,0.1,0.1,0.2,0.1,0.3v1.2c0,0.1,0,0.2-0.1,0.3c-0.1,0.1-0.2,0.1-0.3,0.1h-1.6c-0.3,0-0.5,0.1-0.7,0.3
			c-0.2,0.2-0.3,0.4-0.3,0.7v0.7h6.4c0.2,0,0.4,0.1,0.6,0.3c0.2,0.2,0.3,0.4,0.3,0.6v7.1h1.4c0.1,0,0.2,0,0.3,0.1
			c0.1,0.1,0.1,0.2,0.1,0.3v1.2c0,0.1,0,0.2-0.1,0.3c-0.1,0.1-0.2,0.1-0.3,0.1h-2.6c-0.2,0-0.4-0.1-0.6-0.3s-0.3-0.4-0.3-0.6v-7.1
			h-5.1v7.6c0,0.1,0,0.2-0.1,0.3c-0.1,0.1-0.2,0.1-0.3,0.1h-1.3C103.3,68.4,103.2,68.4,103.2,68.3z M110.4,57.3
			c-0.1-0.1-0.1-0.2-0.1-0.3v-2c0-0.1,0-0.2,0.1-0.3c0.1-0.1,0.2-0.1,0.3-0.1h1.3c0.1,0,0.2,0,0.3,0.1c0.1,0.1,0.1,0.2,0.1,0.3v2
			c0,0.1,0,0.2-0.1,0.3c-0.1,0.1-0.2,0.1-0.3,0.1h-1.3C110.6,57.4,110.5,57.4,110.4,57.3z"/>
		<path class="st41" d="M117.5,67.9c-0.6-0.4-1.1-0.9-1.5-1.5c-0.4-0.6-0.6-1.3-0.6-2.1v-1.9c0-0.7,0.2-1.4,0.6-2.1
			c0.4-0.6,0.9-1.1,1.5-1.5c0.6-0.4,1.3-0.6,2.1-0.6c0.7,0,1.4,0.2,2.1,0.6c0.6,0.4,1.1,0.9,1.5,1.5c0.4,0.6,0.6,1.3,0.6,2.1v1.2
			c0,0.2-0.1,0.4-0.2,0.5c-0.1,0.1-0.3,0.2-0.5,0.2h-5.4v0.1c0,0.6,0.2,1,0.6,1.4c0.4,0.4,0.9,0.6,1.4,0.6h2.7c0.1,0,0.2,0,0.3,0.1
			c0.1,0.1,0.1,0.2,0.1,0.3v1.2c0,0.1,0,0.2-0.1,0.3c-0.1,0.1-0.2,0.1-0.3,0.1h-2.7C118.8,68.4,118.2,68.3,117.5,67.9z M121.6,62.5
			v-0.2c0-0.6-0.2-1-0.6-1.4c-0.4-0.4-0.9-0.6-1.4-0.6c-0.6,0-1,0.2-1.4,0.6c-0.4,0.4-0.6,0.9-0.6,1.4v0.2H121.6z"/>
		<path class="st41" d="M127.6,68.1c-0.6-0.4-1.1-0.8-1.4-1.5c-0.4-0.6-0.5-1.3-0.5-2v-2.4c0-0.7,0.2-1.4,0.5-2
			c0.3-0.6,0.8-1.1,1.4-1.5c0.6-0.4,1.2-0.5,1.9-0.5c0.4,0,0.9,0.1,1.3,0.2c0.4,0.1,0.8,0.3,1.1,0.6v-3.5c0-0.1,0-0.2,0.1-0.3
			s0.2-0.1,0.3-0.1h1.3c0.1,0,0.2,0,0.3,0.1c0.1,0.1,0.1,0.2,0.1,0.3v12.5c0,0.1,0,0.2-0.1,0.3c-0.1,0.1-0.2,0.1-0.3,0.1h-1.1
			c-0.1,0-0.2,0-0.3-0.1c-0.1-0.1-0.1-0.2-0.1-0.3v-0.8c-0.3,0.5-0.7,0.8-1.1,1.1c-0.4,0.2-0.9,0.4-1.5,0.4
			C128.8,68.7,128.2,68.5,127.6,68.1z M131.2,66.1c0.4-0.4,0.6-0.9,0.6-1.4v-2.3c0-0.6-0.2-1-0.6-1.4c-0.4-0.4-0.9-0.6-1.4-0.6
			c-0.6,0-1,0.2-1.4,0.6c-0.4,0.4-0.6,0.9-0.6,1.4v2.3c0,0.6,0.2,1,0.6,1.4c0.4,0.4,0.9,0.6,1.4,0.6
			C130.3,66.7,130.8,66.5,131.2,66.1z"/>
		<path class="st41" d="M83.2,84.1c-0.3,0-0.4-0.1-0.5-0.4l-3-9.1c0-0.1,0-0.1,0-0.2c0-0.1,0-0.2,0.1-0.3c0.1-0.1,0.2-0.1,0.3-0.1
			h1.2c0.1,0,0.2,0,0.3,0.1c0.1,0.1,0.2,0.2,0.2,0.3l2.1,7l1.9-7c0-0.1,0.1-0.2,0.2-0.3c0.1-0.1,0.2-0.1,0.3-0.1h1.2
			c0.1,0,0.2,0,0.3,0.1c0.1,0.1,0.2,0.2,0.2,0.3l2.1,7l2-7c0-0.1,0.1-0.2,0.2-0.3c0.1-0.1,0.2-0.1,0.3-0.1h1.1c0.1,0,0.2,0,0.3,0.1
			c0.1,0.1,0.1,0.2,0.1,0.3c0,0,0,0.1,0,0.2l-2.8,9.1c0,0.1-0.1,0.2-0.2,0.3c-0.1,0.1-0.2,0.1-0.3,0.1l-1.4,0c-0.1,0-0.2,0-0.3-0.1
			c-0.1-0.1-0.2-0.2-0.2-0.3l-2-6.5l-1.8,6.5c0,0.1-0.1,0.2-0.2,0.3c-0.1,0.1-0.2,0.1-0.3,0.1L83.2,84.1z"/>
		<path class="st41" d="M97.7,83.7c-0.2-0.2-0.3-0.4-0.3-0.6V76h-1.4c-0.1,0-0.2,0-0.3-0.1c-0.1-0.1-0.1-0.2-0.1-0.3v-1.2
			c0-0.1,0-0.2,0.1-0.3c0.1-0.1,0.2-0.1,0.3-0.1h2.6c0.2,0,0.4,0.1,0.6,0.3s0.3,0.4,0.3,0.6V82h1.4c0.1,0,0.2,0,0.3,0.1
			c0.1,0.1,0.1,0.2,0.1,0.3v1.2c0,0.1,0,0.2-0.1,0.3c-0.1,0.1-0.2,0.1-0.3,0.1h-2.6C98.1,84,97.9,83.9,97.7,83.7z M97.7,72.8
			c-0.1-0.1-0.1-0.2-0.1-0.3v-1.9c0-0.1,0-0.2,0.1-0.3c0.1-0.1,0.2-0.1,0.3-0.1h1.2c0.1,0,0.2,0,0.3,0.1c0.1,0.1,0.1,0.2,0.1,0.3
			v1.9c0,0.1,0,0.2-0.1,0.3c-0.1,0.1-0.2,0.1-0.3,0.1h-1.2C97.8,72.9,97.7,72.9,97.7,72.8z"/>
		<path class="st41" d="M104.5,83.1c-0.6-0.6-0.8-1.3-0.8-2.2v-5h-1.2c-0.1,0-0.2,0-0.3-0.1c-0.1-0.1-0.1-0.2-0.1-0.3v-1.2
			c0-0.1,0-0.2,0.1-0.3c0.1-0.1,0.2-0.1,0.3-0.1h1.2v-1.9c0-0.1,0-0.2,0.1-0.3c0.1-0.1,0.2-0.1,0.3-0.1h1.3c0.1,0,0.2,0,0.3,0.1
			c0.1,0.1,0.1,0.2,0.1,0.3v1.9h2.9c0.1,0,0.2,0,0.3,0.1c0.1,0.1,0.1,0.2,0.1,0.3v1.2c0,0.1,0,0.2-0.1,0.3c-0.1,0.1-0.2,0.1-0.3,0.1
			h-2.9v4.9c0,0.3,0.1,0.6,0.3,0.8s0.5,0.3,0.8,0.3l1.8,0c0.1,0,0.2,0,0.3,0.1s0.1,0.2,0.1,0.3v1.2c0,0.1,0,0.2-0.1,0.3
			s-0.2,0.1-0.3,0.1h-2C105.8,84,105.1,83.7,104.5,83.1z"/>
		<path class="st41" d="M111.3,83.9c-0.1-0.1-0.1-0.2-0.1-0.3V71.1c0-0.1,0-0.2,0.1-0.3c0.1-0.1,0.2-0.1,0.3-0.1h1.3
			c0.1,0,0.2,0,0.3,0.1c0.1,0.1,0.1,0.2,0.1,0.3v3.8c0.3-0.3,0.7-0.6,1.1-0.8c0.4-0.2,0.9-0.3,1.3-0.3c0.7,0,1.3,0.2,1.9,0.5
			c0.5,0.3,1,0.7,1.3,1.3c0.3,0.5,0.4,1.2,0.4,1.9v6.1c0,0.1,0,0.2-0.1,0.3c-0.1,0.1-0.2,0.1-0.3,0.1h-1.3c-0.1,0-0.2,0-0.3-0.1
			s-0.1-0.2-0.1-0.3v-5.9c0-0.6-0.2-1.1-0.5-1.4c-0.3-0.3-0.7-0.5-1.3-0.5c-0.7,0-1.2,0.2-1.6,0.7c-0.4,0.4-0.6,1.1-0.6,1.8v5.3
			c0,0.1,0,0.2-0.1,0.3c-0.1,0.1-0.2,0.1-0.3,0.1h-1.3C111.5,84,111.4,83.9,111.3,83.9z"/>
	</g>
	<g>
		<path class="st41" d="M82,203.4c-0.1-0.1-0.1-0.2-0.1-0.3v-11.2c0-0.2,0.1-0.4,0.2-0.5c0.1-0.1,0.3-0.2,0.5-0.2h3.1
			c0.7,0,1.4,0.2,2,0.5c0.6,0.4,1.1,0.8,1.5,1.5c0.4,0.6,0.5,1.3,0.5,2c0,0.7-0.2,1.4-0.5,2c-0.4,0.6-0.9,1.1-1.5,1.4
			c-0.6,0.4-1.3,0.5-2,0.5H84v4c0,0.1,0,0.2-0.1,0.3c-0.1,0.1-0.2,0.1-0.3,0.1h-1.4C82.1,203.5,82,203.5,82,203.4z M85.6,197.1
			c0.6,0,1-0.2,1.4-0.6c0.4-0.4,0.6-0.9,0.6-1.4c0-0.5-0.2-1-0.6-1.4c-0.4-0.4-0.9-0.6-1.4-0.6H84v4H85.6z"/>
		<path class="st41" d="M94,203.1c-0.7-0.4-1.3-1-1.7-1.7c-0.4-0.7-0.6-1.5-0.6-2.3v-3.7c0-0.8,0.2-1.6,0.6-2.3
			c0.4-0.7,1-1.2,1.7-1.7c0.7-0.4,1.5-0.6,2.3-0.6c0.8,0,1.6,0.2,2.3,0.6c0.7,0.4,1.3,1,1.7,1.7c0.4,0.7,0.6,1.5,0.6,2.3v3.7
			c0,0.8-0.2,1.6-0.6,2.3c-0.4,0.7-1,1.2-1.7,1.7c-0.7,0.4-1.5,0.6-2.3,0.6C95.5,203.7,94.7,203.5,94,203.1z M97.5,201.4
			c0.4-0.2,0.7-0.5,0.9-0.9c0.2-0.4,0.3-0.8,0.3-1.3v-3.7c0-0.4-0.1-0.9-0.3-1.3c-0.2-0.4-0.5-0.7-0.9-0.9c-0.4-0.2-0.8-0.3-1.2-0.3
			s-0.8,0.1-1.2,0.3c-0.4,0.2-0.7,0.5-0.9,0.9c-0.2,0.4-0.3,0.8-0.3,1.3v3.7c0,0.4,0.1,0.9,0.3,1.3c0.2,0.4,0.5,0.7,0.9,0.9
			c0.4,0.2,0.8,0.3,1.2,0.3S97.1,201.6,97.5,201.4z"/>
		<path class="st41" d="M102.3,203.4c-0.1-0.1-0.1-0.2-0.1-0.3c0-0.1,0-0.1,0-0.1l3.7-11.5c0-0.1,0.1-0.2,0.2-0.3
			c0.1-0.1,0.2-0.1,0.3-0.1h1.3c0.1,0,0.2,0,0.3,0.1c0.1,0.1,0.2,0.2,0.2,0.3l3.7,11.5c0,0,0,0.1,0,0.1c0,0.1,0,0.2-0.1,0.3
			c-0.1,0.1-0.2,0.1-0.3,0.1h-1.2c-0.1,0-0.2,0-0.3-0.1s-0.2-0.2-0.2-0.3l-0.8-2.5h-4l-0.8,2.5c0,0.1-0.1,0.2-0.2,0.3
			c-0.1,0.1-0.2,0.1-0.3,0.1h-1.2C102.5,203.5,102.4,203.5,102.3,203.4z M108.6,198.7l-1.4-4.6l-1.4,4.6H108.6z"/>
		<path class="st41" d="M114.2,203.4c-0.1-0.1-0.1-0.2-0.1-0.3v-11.2c0-0.2,0.1-0.4,0.2-0.5c0.1-0.1,0.3-0.2,0.5-0.2h3.1
			c0.7,0,1.4,0.2,2,0.5c0.6,0.4,1.1,0.8,1.5,1.5c0.4,0.6,0.5,1.3,0.5,2c0,0.7-0.2,1.4-0.5,2s-0.9,1.1-1.5,1.4
			c-0.6,0.4-1.3,0.5-2,0.5h-1.7v4c0,0.1,0,0.2-0.1,0.3c-0.1,0.1-0.2,0.1-0.3,0.1h-1.4C114.4,203.5,114.3,203.5,114.2,203.4z
			 M117.8,197.1c0.6,0,1-0.2,1.4-0.6c0.4-0.4,0.6-0.9,0.6-1.4c0-0.5-0.2-1-0.6-1.4c-0.4-0.4-0.9-0.6-1.4-0.6h-1.6v4H117.8z"/>
	</g>
	<polygon class="st80" points="31.3,72.3 31.3,177.7 31.3,177.7 100,230.5 168.7,177.7 168.7,177.7 168.7,72.3 168.7,72.3 100,19.5 
			"/>
	<polygon class="st80" points="25,67.4 25,182.6 25,182.6 100,240.2 175,182.6 175,182.6 175,67.4 175,67.4 100,9.8 	"/>
	<line class="st80" x1="25" y1="67.4" x2="76.5" y2="105.3"/>
	<line class="st80" x1="175" y1="182.6" x2="126.2" y2="144.1"/>
	<line class="st80" x1="175" y1="67.4" x2="123.5" y2="105.3"/>
	<line class="st80" x1="25" y1="182.6" x2="73.8" y2="144.1"/>
	<path id="Logo_1_" class="st41" d="M132,122.4c-0.3-0.6-0.7-1.3-1.1-1.9c-1.3-1.9-2-4-1.8-6.3c0.1-0.8,0-1.6,0-2.4
		c0-2-0.9-3.7-2.6-4.8c-0.9-0.6-1.9-1.2-3-1.7c-1.6-0.8-2.9-2-3.7-3.7c-0.4-0.8-0.9-1.7-1.4-2.5c-1.2-2-2.9-3.1-5.3-3.1
		c-1,0-2.1,0-3.1,0c-1.7,0.1-3.3-0.4-4.8-1.3c-0.9-0.6-1.8-1.2-2.8-1.6c-1.9-0.9-3.7-1-5.6,0c-0.7,0.4-1.4,0.7-2,1.2
		c-1.9,1.3-4,2-6.4,1.8c-0.8-0.1-1.7,0-2.5,0c-1.7,0-3.1,0.6-4.2,1.9c-0.9,1-1.5,2.3-2.1,3.5c-0.9,1.8-2.2,3.1-3.9,3.9
		c-0.8,0.4-1.6,0.8-2.4,1.3c-2,1.2-3,2.9-3,5.3c0,1,0,2.1,0,3.1c0.1,1.7-0.4,3.2-1.3,4.7c-0.6,0.9-1.2,1.9-1.7,2.9
		c-0.8,1.8-0.9,3.6,0,5.3c0.4,0.8,0.8,1.6,1.3,2.3c1.3,1.9,2,3.9,1.7,6.2c-0.1,0.9,0,1.7,0,2.6c0.1,1.8,0.8,3.3,2.3,4.4
		c1,0.8,2.2,1.3,3.3,1.9c1.1,0.6,2.2,1.3,2.9,2.4c1.1,1.8,2,3.8,3.4,5.4c-0.1,0.2-0.3,0.5-0.4,0.7c-2.1,5-4.2,10.1-6.3,15.1
		c-0.4,0.9-0.2,1.8,0.4,2.5c0.6,0.7,1.5,0.9,2.4,0.6c2.6-0.9,5.2-1.8,7.8-2.7c0.5-0.2,0.7-0.1,0.9,0.4c1.1,2.4,2.3,4.9,3.5,7.3
		c0.4,0.9,1.1,1.4,2.1,1.4c1.1,0,1.7-0.5,2.1-1.5c1.3-3.1,2.6-6.3,3.9-9.4c0.6-1.4,1.2-2.7,1.8-4.2c0.1,0.3,0.3,0.5,0.3,0.7
		c1.8,4.3,3.6,8.6,5.4,13c0.3,0.8,0.9,1.3,1.9,1.4c1.1,0.1,1.9-0.3,2.3-1.3c1.2-2.4,2.3-4.9,3.4-7.3c0.3-0.5,0.5-0.7,1.1-0.5
		c2.4,0.9,4.9,1.7,7.3,2.6c1,0.4,2,0.3,2.7-0.5c0.8-0.9,0.7-1.8,0.3-2.9c-1.3-3-2.5-5.9-3.8-8.9c-1.1-2.6-2.2-5.2-3.3-7.8
		c0,0,0,0,0,0c0.6-1.1,1.2-2.2,1.8-3.3c0.8-1.5,1.9-2.5,3.4-3.2c0.9-0.5,1.8-0.9,2.6-1.5c2-1.2,3-3,3-5.3c0-1.2,0-2.4,0-3.6
		c0-1.2,0.3-2.3,0.9-3.3c0.6-1,1.2-2,1.8-3.1C133.1,126.7,133.2,124.6,132,122.4z M99.8,162.9c-2,4.6-3.9,9.2-5.8,13.8
		c-0.2,0.5-0.6,0.9-1.1,0.9c-0.6,0-1-0.4-1.2-0.9c-1.2-2.6-2.5-5.2-3.7-7.8c-0.3-0.7-0.6-0.8-1.3-0.6c-2.7,1-5.4,1.9-8.1,2.8
		c-0.5,0.2-1,0.3-1.5-0.1c-0.5-0.5-0.4-1.1-0.2-1.6c1.1-2.6,2.2-5.2,3.3-7.8c1.1-2.5,2.1-5.1,3.1-7.6c-0.2-0.2-0.4-0.4-0.6-0.5
		c0.2,0.1,0.4,0.3,0.6,0.5c0.4,0,0.6,0.2,0.9,0.4c0,0,0,0,0,0c-2,4.7-3.9,9.3-5.9,14c-0.1,0.2-0.1,0.4-0.2,0.5
		c-0.1,0.2-0.1,0.4,0,0.6c0.2,0.2,0.4,0.1,0.7,0.1c1.5-0.5,2.9-0.9,4.4-1.4c1.4-0.5,2.9-0.9,4.3-1.4c0.5-0.2,0.7-0.1,0.9,0.4
		c1.3,2.6,2.6,5.2,3.9,7.8c0.2,0.3,0.2,0.8,0.7,0.7c0.4,0,0.5-0.4,0.6-0.7c1.9-4.5,3.8-9.1,5.7-13.6c0.1-0.2,0.1-0.3,0.3-0.4
		C100,161.7,100.1,162.2,99.8,162.9z M87.9,154.8c0.4,0,0.8,0,1.2-0.1c0.8-0.1,1.6,0,2.3,0.2c0.5,0.1,1,0.3,1.4,0.5
		c0.7,0.3,1.4,0.7,2.1,1.1c0.1,0.1,0.3,0.2,0.4,0.3c-0.1-0.1-0.3-0.2-0.4-0.3c-0.7-0.4-1.3-0.8-2.1-1.1c-0.5-0.2-1-0.3-1.4-0.5
		c-0.7-0.2-1.5-0.2-2.3-0.2C88.8,154.7,88.3,154.8,87.9,154.8z M124.5,169.4c0.2,0.5,0.4,1.1-0.1,1.5c-0.4,0.5-1,0.4-1.5,0.2
		c-2.6-0.9-5.2-1.8-7.8-2.7c-1.5-0.5-1.2-0.4-1.8,0.7c-1.2,2.5-2.4,5-3.5,7.4c-0.3,0.6-0.6,1-1.3,1c-0.7,0-1-0.5-1.2-1.1
		c-2.5-6-5-12.1-7.6-18.1c-0.2,0-0.5,0-0.7-0.1c0.2,0,0.4,0,0.7,0.1c0.4,0,0.8-0.1,1.1,0c0,0,0,0,0,0c0.1,0.2,0.1,0.4,0.2,0.6
		c2.3,5.4,4.5,10.8,6.8,16.2c0.1,0.3,0.2,0.6,0.6,0.6c0.4,0,0.5-0.3,0.6-0.6c1.3-2.6,2.6-5.2,3.9-7.8c0.3-0.5,0.5-0.6,1-0.5
		c2.8,0.9,5.6,1.8,8.4,2.7c0.3,0.1,0.6,0.3,0.8,0c0.2-0.3,0.1-0.6,0-0.8c-0.3-0.7-0.6-1.5-0.9-2.2c-1.8-4.3-3.6-8.6-5.4-12.9
		c0.2-0.3,0.5-0.5,0.8-0.7c0.1-0.2,0.2-0.4,0.4-0.5c-0.1,0.2-0.3,0.4-0.4,0.5C120,158.5,122.3,163.9,124.5,169.4z M108.3,154.8
		c0.3-0.1,0.7-0.1,1-0.1c1.1,0,2.2,0,3.3,0c1,0,1.9,0,2.8-0.3c-0.9,0.3-1.8,0.4-2.8,0.3c-1.1,0-2.2,0-3.3,0
		C109,154.7,108.7,154.8,108.3,154.8z M130.7,128.1c-0.6,0.9-1.1,1.9-1.7,2.8c-0.8,1.3-1.2,2.7-1.1,4.2c0,1.5,0.1,3,0,4.4
		c-0.2,1.6-1,2.7-2.4,3.5c-0.8,0.5-1.6,1-2.5,1.4c-1.9,0.9-3.2,2.3-4.2,4.2c-0.4,0.8-0.9,1.6-1.3,2.4c-1,1.7-2.4,2.4-4.3,2.4
		c-1,0-2.1,0-3.1,0c-1.9-0.1-3.6,0.5-5.2,1.5c-0.7,0.5-1.4,0.9-2.1,1.3c-1.9,1.2-3.7,1.1-5.6,0c-0.9-0.6-1.9-1.1-2.8-1.7
		c-1.2-0.7-2.4-1.1-3.8-1.1c-1.3,0-2.6,0-3.9,0c-1.9,0-3.3-0.8-4.3-2.4c-0.3-0.5-0.6-1-0.9-1.6c-1.2-2.7-3.2-4.5-5.8-5.7
		c-0.6-0.3-1.1-0.6-1.7-1c-1.4-0.9-2-2.3-2-4c0-0.8,0-1.6,0-2.3c0.2-2.5-0.4-4.8-1.9-6.8c-0.3-0.4-0.5-0.9-0.8-1.4
		c-1.2-1.9-1.2-3.8,0-5.8c0.6-0.9,1.1-1.9,1.7-2.8c0.7-1.2,1-2.4,1-3.8c0-1.2,0-2.5,0-3.7c0-1.9,0.8-3.4,2.4-4.3
		c0.8-0.5,1.6-0.9,2.4-1.3c1.9-0.9,3.3-2.3,4.2-4.2c0.5-1,1.1-2.1,1.8-3c0.9-1.2,2.1-1.8,3.5-1.9c0.8,0,1.6,0,2.8,0
		c2.3,0.4,4.7-0.5,6.9-2.1c2.7-2,5.3-2,8,0c1.3,0.9,2.6,1.7,4.3,2c1.3,0.2,2.6,0,3.9,0.1c0.6,0,1.2,0,1.8,0c1.6,0.1,2.7,1,3.5,2.3
		c0.5,0.9,1,1.7,1.5,2.6c0.9,1.8,2.3,3.1,4.1,4c1,0.5,2,1.1,3,1.7c1.4,0.9,2,2.3,2,3.9c0,1.1,0,2.1,0,3.2c-0.1,2,0.5,3.7,1.5,5.3
		c0.5,0.8,0.9,1.5,1.4,2.3C131.8,124.6,131.7,126.4,130.7,128.1z M80,123.5c0,0.6,0,1.2,0,1.8c0,0.4,0.1,0.5,0.5,0.5
		c1.1,0,2.3,0,3.4,0c0.6,0,1-0.4,1-0.9c0-0.9,0-1.8,0-2.7c0-0.6-0.3-1-1-1c-1.1,0-2.2,0-3.3,0c-0.5,0-0.6,0.2-0.6,0.6
		C80,122.4,80,122.9,80,123.5 M78.3,125.7c0-1.8,0-3.6,0-5.5c0-0.5,0.1-0.7,0.7-0.7c1.7,0,3.3,0,5,0c1.4,0,2.5,1,2.5,2.4
		c0,1,0,2.1,0,3.1c-0.1,1.3-1.1,2.3-2.4,2.4c-1.1,0-2.2,0-3.4,0c-0.6,0-0.7,0.2-0.7,0.7c0,1.1,0,2.1,0,3.2c0,0.5-0.2,0.9-0.8,0.9
		c-0.5,0-0.8-0.2-0.9-0.6c-0.1-0.2,0-0.4,0-0.6C78.3,129.3,78.3,127.5,78.3,125.7 M115.4,123.5c0,0.6,0,1.2,0,1.8
		c0,0.4,0.1,0.5,0.5,0.5c1.1,0,2.2,0,3.3,0c0.7,0,1-0.4,1-1c0-0.9,0-1.8,0-2.7c0-0.6-0.4-1-1-0.9c-1.1,0-2.1,0-3.2,0
		c-0.5,0-0.7,0.2-0.6,0.6C115.4,122.4,115.4,123,115.4,123.5 M113.7,125.7c0-1.8,0-3.6,0-5.5c0-0.6,0.2-0.7,0.7-0.7c1.7,0,3.3,0,5,0
		c1.4,0,2.5,1,2.5,2.4c0,1,0,2,0,3.1c0,1.4-1.1,2.4-2.4,2.4c-1.1,0-2.3,0-3.4,0c-0.4,0-0.6,0.1-0.6,0.6c0,1,0,2.1,0,3.1
		c0,0.6-0.1,1.1-0.9,1.1c-0.6,0-0.9-0.4-0.9-1C113.7,129.4,113.7,127.6,113.7,125.7 M96.6,125.9c0-0.2,0-0.5-0.1-0.7
		c-0.6-1.2-1.2-2.4-1.8-3.7c-0.3-0.5-0.7-0.5-1,0c-0.6,1.2-1.2,2.3-1.7,3.5c-0.3,0.6-0.2,1.2,0.1,1.8c0.5,1.1,1.1,2.1,1.6,3.2
		c0.1,0.2,0.2,0.5,0.6,0.5c0.3,0,0.4-0.2,0.5-0.5c0.6-1.1,1.1-2.2,1.7-3.3C96.5,126.6,96.6,126.3,96.6,125.9 M90.1,126
		c0-0.4,0-0.9,0.2-1.2c0.7-1.4,1.3-2.8,2.1-4.2c0.8-1.4,2.9-1.3,3.7,0.1c0.6,1.2,1.2,2.5,1.8,3.7c0.5,1,0.5,2,0,3
		c-0.5,1.2-1.1,2.3-1.7,3.5c-0.4,0.9-1.1,1.4-2.1,1.4c-1,0-1.6-0.5-2-1.4c-0.5-1.1-1.1-2.1-1.6-3.2C90.2,127.1,90.1,126.6,90.1,126
		 M106.1,123.7c-0.1,0-0.1,0-0.2,0c-0.2,0.8-0.5,1.5-0.7,2.3c-0.2,0.6-0.8,1.5-0.3,1.8c0.4,0.3,1.3,0.1,2,0.1c0.3,0,0.4-0.1,0.3-0.4
		C106.8,126.2,106.5,125,106.1,123.7 M109.2,132.3c-0.5,0-0.7-0.3-0.8-0.7c-0.2-0.5-0.3-1-0.4-1.5c-0.1-0.4-0.3-0.5-0.7-0.5
		c-0.8,0-1.7,0-2.5,0c-0.4,0-0.6,0.1-0.7,0.5c-0.1,0.5-0.3,1.1-0.5,1.6c-0.1,0.6-0.5,0.8-1,0.6c-0.6-0.1-0.7-0.6-0.6-1.2
		c0.4-1.3,0.7-2.5,1.1-3.8c0.7-2.3,1.4-4.6,2-6.9c0.1-0.4,0.2-0.7,0.6-0.8c0.5-0.1,0.9,0,1.1,0.6c1.1,3.7,2.1,7.4,3.2,11
		C110.2,131.8,109.8,132.3,109.2,132.3"/>
</g>
</svg>
