<?xml version="1.0" encoding="utf-8"?>
<!-- Generator: Adobe Illustrator 25.2.0, SVG Export Plug-In . SVG Version: 6.00 Build 0)  -->
<svg version="1.1" id="Layer_1" xmlns="http://www.w3.org/2000/svg" xmlns:xlink="http://www.w3.org/1999/xlink" x="0px" y="0px"
	 width="200px" height="200px" viewBox="0 0 200 200" style="enable-background:new 0 0 200 200;" xml:space="preserve">
<style type="text/css">
	.st0{fill:#0E0333;}
	.st1{clip-path:url(#SVGID_2_);fill:none;stroke:#3B3058;stroke-width:2;stroke-miterlimit:10;}
	.st2{clip-path:url(#SVGID_4_);fill:none;stroke:#3B3058;stroke-width:2;stroke-miterlimit:10;}
	.st3{clip-path:url(#SVGID_4_);fill:none;stroke:#3B3058;stroke-width:3;stroke-miterlimit:10;}
	.st4{clip-path:url(#SVGID_4_);fill:none;stroke:#3B3058;stroke-width:4;stroke-miterlimit:10;}
	.st5{clip-path:url(#SVGID_4_);fill:none;stroke:#3B3058;stroke-width:5;stroke-miterlimit:10;}
	.st6{clip-path:url(#SVGID_4_);fill:none;stroke:#3B3058;stroke-width:6;stroke-miterlimit:10;}
	.st7{clip-path:url(#SVGID_4_);fill:none;stroke:#3B3058;stroke-width:7;stroke-miterlimit:10;}
	.st8{fill-rule:evenodd;clip-rule:evenodd;fill:#0E0333;}
	.st9{fill:none;stroke:#02E2AC;stroke-linecap:round;stroke-linejoin:round;stroke-dasharray:0,3.999;}
	.st10{fill:none;stroke:#02E2AC;stroke-width:1.04;stroke-linecap:round;stroke-linejoin:round;stroke-dasharray:0,3.9929;}
	.st11{fill:none;stroke:#02E2AC;stroke-width:1.08;stroke-linecap:round;stroke-linejoin:round;stroke-dasharray:0,4.0096;}
	.st12{fill:none;stroke:#02E2AC;stroke-width:1.12;stroke-linecap:round;stroke-linejoin:round;stroke-dasharray:0,4.0034;}
	.st13{fill:none;stroke:#02E2AC;stroke-width:1.16;stroke-linecap:round;stroke-linejoin:round;stroke-dasharray:0,3.9968;}
	.st14{fill:none;stroke:#02E2AC;stroke-width:1.2;stroke-linecap:round;stroke-linejoin:round;stroke-dasharray:0,3.9897;}
	.st15{fill:none;stroke:#02E2AC;stroke-width:1.24;stroke-linecap:round;stroke-linejoin:round;stroke-dasharray:0,4.009;}
	.st16{fill:none;stroke:#02E2AC;stroke-width:1.28;stroke-linecap:round;stroke-linejoin:round;stroke-dasharray:0,4.0017;}
	.st17{fill:none;stroke:#02E2AC;stroke-width:1.32;stroke-linecap:round;stroke-linejoin:round;stroke-dasharray:0,3.9938;}
	.st18{fill:none;stroke:#02E2AC;stroke-width:1.36;stroke-linecap:round;stroke-linejoin:round;stroke-dasharray:0,3.9851;}
	.st19{fill:none;stroke:#02E2AC;stroke-width:1.4;stroke-linecap:round;stroke-linejoin:round;stroke-dasharray:0,4.0082;}
	.st20{fill:none;stroke:#02E2AC;stroke-width:1.44;stroke-linecap:round;stroke-linejoin:round;stroke-dasharray:0,3.9993;}
	.st21{fill:none;stroke:#02E2AC;stroke-width:1.48;stroke-linecap:round;stroke-linejoin:round;stroke-dasharray:0,3.9894;}
	.st22{fill:none;stroke:#02E2AC;stroke-width:1.52;stroke-linecap:round;stroke-linejoin:round;stroke-dasharray:0,4.0166;}
	.st23{fill:none;stroke:#02E2AC;stroke-width:1.56;stroke-linecap:round;stroke-linejoin:round;stroke-dasharray:0,4.0062;}
	.st24{fill:none;stroke:#02E2AC;stroke-width:1.6;stroke-linecap:round;stroke-linejoin:round;stroke-dasharray:0,3.9945;}
	.st25{fill:none;stroke:#02E2AC;stroke-width:1.64;stroke-linecap:round;stroke-linejoin:round;stroke-dasharray:0,3.9813;}
	.st26{fill:none;stroke:#02E2AC;stroke-width:1.68;stroke-linecap:round;stroke-linejoin:round;stroke-dasharray:0,4.0171;}
	.st27{fill:none;stroke:#02E2AC;stroke-width:1.72;stroke-linecap:round;stroke-linejoin:round;stroke-dasharray:0,4.0036;}
	.st28{fill:none;stroke:#02E2AC;stroke-width:1.76;stroke-linecap:round;stroke-linejoin:round;stroke-dasharray:0,3.9877;}
	.st29{fill:none;stroke:#02E2AC;stroke-width:1.8;stroke-linecap:round;stroke-linejoin:round;stroke-dasharray:0,3.9686;}
	.st30{fill:none;stroke:#02E2AC;stroke-width:1.84;stroke-linecap:round;stroke-linejoin:round;stroke-dasharray:0,4.0196;}
	.st31{fill:none;stroke:#02E2AC;stroke-width:1.88;stroke-linecap:round;stroke-linejoin:round;stroke-dasharray:0,3.9993;}
	.st32{fill:none;stroke:#02E2AC;stroke-width:1.92;stroke-linecap:round;stroke-linejoin:round;stroke-dasharray:0,3.973;}
	.st33{fill:none;stroke:#02E2AC;stroke-width:1.96;stroke-linecap:round;stroke-linejoin:round;stroke-dasharray:0,4.0535;}
	.st34{fill:none;stroke:#02E2AC;stroke-width:2;stroke-linecap:round;stroke-linejoin:round;stroke-dasharray:0,4.0266;}
	.st35{fill-rule:evenodd;clip-rule:evenodd;fill:#15EBB7;}
	.st36{fill-rule:evenodd;clip-rule:evenodd;fill:#FFFFFF;}
	.st37{fill:#F35890;}
	.st38{fill:#02E2AC;}
	.st39{fill:#15EBB7;}
	.st40{fill:#FFFFFF;}
	.st41{fill:#3B3058;}
	.st42{fill:#FB8A61;}
	.st43{fill:#41B2FF;fill-opacity:0.9939;}
	.st44{fill-rule:evenodd;clip-rule:evenodd;fill:#5096C8;}
	.st45{fill-rule:evenodd;clip-rule:evenodd;fill:#FFD086;}
	.st46{fill-rule:evenodd;clip-rule:evenodd;fill:#270B0B;fill-opacity:0.9939;}
	.st47{fill-rule:evenodd;clip-rule:evenodd;fill:#CD8A03;fill-opacity:0.9939;}
	.st48{fill-rule:evenodd;clip-rule:evenodd;fill:#402801;fill-opacity:0.9939;}
	.st49{fill-rule:evenodd;clip-rule:evenodd;fill:#FBBC38;fill-opacity:0.9939;}
	.st50{fill-rule:evenodd;clip-rule:evenodd;fill:#FCC24D;fill-opacity:0.9939;}
	.st51{fill:none;}
	.st52{fill:#FABB37;}
	.st53{fill:#FFD086;}
	.st54{fill:#FBC14C;}
	.st55{fill:#CC8902;}
	.st56{fill:#4285F4;}
	.st57{fill:#34A853;}
	.st58{fill:#FBBC04;}
	.st59{fill:#EA4335;}
	.st60{fill-rule:evenodd;clip-rule:evenodd;fill:#FCCDD3;}
	.st61{filter:url(#Adobe_OpacityMaskFilter);}
	.st62{mask:url(#mask-2_1_);fill-rule:evenodd;clip-rule:evenodd;fill:#6534FF;}
	.st63{fill-rule:evenodd;clip-rule:evenodd;fill:#FEFEFE;}
	.st64{fill-rule:evenodd;clip-rule:evenodd;fill:#6534FF;}
	.st65{fill:#8C65F7;}
	.st66{fill:#6F3FF5;}
	.st67{fill:#5932C4;}
	.st68{fill:#9B95B0;}
	.st69{fill:#5BF1CD;}
	.st70{fill:#11BC92;}
	.st71{fill:#F579A6;}
	.st72{fill:#D44D6E;}
	.st73{opacity:0.5;fill:#0E0333;}
	.st74{fill:#D6D6D6;}
	.st75{fill:#FFEEA9;}
	.st76{fill:url(#SVGID_5_);}
	.st77{opacity:0.5;clip-path:url(#SVGID_7_);fill:none;stroke:url(#SVGID_8_);stroke-width:0.75;stroke-miterlimit:10;}
	.st78{opacity:0.5;clip-path:url(#SVGID_7_);fill:none;stroke:url(#SVGID_9_);stroke-width:0.75;stroke-miterlimit:10;}
	.st79{fill:none;stroke:#9B95B0;stroke-width:2;stroke-miterlimit:10;}
	.st80{fill:none;stroke:#3B3058;stroke-width:3;stroke-miterlimit:10;}
	.st81{fill:#FFFFFF;stroke:#3B3058;stroke-width:3;stroke-miterlimit:10;}
	.st82{fill:#616161;fill-opacity:0.9939;}
	.st83{fill-rule:evenodd;clip-rule:evenodd;fill:#818181;fill-opacity:0.9939;}
	.st84{fill-rule:evenodd;clip-rule:evenodd;fill:#A1A1A1;}
	.st85{fill-rule:evenodd;clip-rule:evenodd;fill:#2F2F2F;fill-opacity:0.9939;}
	.st86{fill-rule:evenodd;clip-rule:evenodd;fill:#616161;fill-opacity:0.9939;}
	.st87{fill:#3E3E3E;}
	.st88{fill:#818181;fill-opacity:0.9939;}
	.st89{fill:#2F2F2F;fill-opacity:0.9939;}
	.st90{fill:none;stroke:#02E2AC;stroke-width:3;stroke-miterlimit:10;}
	.st91{fill:#383838;}
	
		.st92{fill:none;stroke:#383838;stroke-width:3;stroke-linecap:round;stroke-linejoin:round;stroke-miterlimit:10;stroke-dasharray:0,10;}
	.st93{fill:none;stroke:#383838;stroke-width:3;stroke-miterlimit:10;}
</style>
<g id="Pattern">
</g>
<g>
	<g>
		<path class="st91" d="M53.5,48.2c-0.1-0.1-0.1-0.1-0.2-0.2l-3.2-9.8c0,0,0-0.1,0-0.1c0-0.1,0-0.2,0.1-0.2c0.1-0.1,0.2-0.1,0.2-0.1
			h1c0.1,0,0.2,0,0.3,0.1c0.1,0.1,0.1,0.1,0.2,0.2l2.4,7.7l2.4-7.7c0-0.1,0.1-0.2,0.2-0.2c0.1-0.1,0.2-0.1,0.3-0.1h1.1
			c0.1,0,0.2,0,0.2,0.1c0.1,0.1,0.1,0.1,0.1,0.2c0,0,0,0.1,0,0.1L55.4,48c0,0.1-0.1,0.2-0.2,0.2c-0.1,0.1-0.2,0.1-0.3,0.1h-1.1
			C53.7,48.3,53.6,48.3,53.5,48.2z"/>
		<path class="st91" d="M61.2,47.8c-0.5-0.3-1-0.7-1.3-1.3c-0.3-0.5-0.5-1.1-0.5-1.8v-1.6c0-0.6,0.2-1.2,0.5-1.8
			c0.3-0.5,0.7-1,1.3-1.3c0.5-0.3,1.1-0.5,1.8-0.5c0.6,0,1.2,0.2,1.8,0.5c0.5,0.3,1,0.7,1.3,1.3s0.5,1.1,0.5,1.8v1
			c0,0.2-0.1,0.3-0.2,0.4c-0.1,0.1-0.3,0.2-0.4,0.2h-4.6v0.1c0,0.5,0.2,0.9,0.5,1.2c0.3,0.3,0.7,0.5,1.2,0.5h2.3
			c0.1,0,0.2,0,0.2,0.1c0.1,0.1,0.1,0.1,0.1,0.2v1.1c0,0.1,0,0.2-0.1,0.2c-0.1,0.1-0.1,0.1-0.2,0.1H63
			C62.4,48.3,61.8,48.1,61.2,47.8z M64.7,43.2v-0.1c0-0.5-0.2-0.9-0.5-1.2c-0.3-0.3-0.7-0.5-1.2-0.5c-0.5,0-0.9,0.2-1.2,0.5
			c-0.3,0.3-0.5,0.7-0.5,1.2v0.1H64.7z"/>
		<path class="st91" d="M68.1,48.2C68,48.1,68,48,68,47.9v-1.1c0-0.1,0-0.2,0.1-0.2c0.1-0.1,0.1-0.1,0.2-0.1h1.1v-5.1h-1.3
			c-0.1,0-0.2,0-0.2-0.1c-0.1-0.1-0.1-0.1-0.1-0.2v-1c0-0.1,0-0.2,0.1-0.2c0.1-0.1,0.1-0.1,0.2-0.1h2.3c0.2,0,0.3,0.1,0.4,0.2
			c0.1,0.1,0.2,0.3,0.2,0.4V41l0.8-0.6c0.3-0.2,0.5-0.4,0.8-0.5c0.2-0.1,0.5-0.1,0.8-0.1h0.5c0.1,0,0.2,0,0.2,0.1
			c0.1,0.1,0.1,0.1,0.1,0.2v1.1c0,0.1,0,0.2-0.1,0.2c-0.1,0.1-0.1,0.1-0.2,0.1h-0.4c-0.3,0-0.5,0-0.7,0.1c-0.2,0.1-0.5,0.3-0.9,0.6
			l-0.8,0.6v3.7h1.5c0.1,0,0.2,0,0.2,0.1c0.1,0.1,0.1,0.1,0.1,0.2v1.1c0,0.1,0,0.2-0.1,0.2c-0.1,0.1-0.1,0.1-0.2,0.1h-4.3
			C68.2,48.3,68.1,48.2,68.1,48.2z"/>
		<path class="st91" d="M77.1,48c-0.1-0.1-0.2-0.3-0.2-0.5v-6h-1.2c-0.1,0-0.2,0-0.2-0.1c-0.1-0.1-0.1-0.1-0.1-0.2v-1.1
			c0-0.1,0-0.2,0.1-0.2c0.1-0.1,0.1-0.1,0.2-0.1h2.2c0.2,0,0.4,0.1,0.5,0.2c0.1,0.1,0.2,0.3,0.2,0.5v6h1.2c0.1,0,0.2,0,0.2,0.1
			c0.1,0.1,0.1,0.1,0.1,0.2v1.1c0,0.1,0,0.2-0.1,0.2s-0.1,0.1-0.2,0.1h-2.2C77.4,48.3,77.2,48.2,77.1,48z M77,38.8
			c-0.1-0.1-0.1-0.1-0.1-0.2v-1.6c0-0.1,0-0.2,0.1-0.2c0.1-0.1,0.1-0.1,0.2-0.1h1c0.1,0,0.2,0,0.2,0.1c0.1,0.1,0.1,0.1,0.1,0.2v1.6
			c0,0.1,0,0.2-0.1,0.2c-0.1,0.1-0.1,0.1-0.2,0.1h-1C77.1,38.8,77.1,38.8,77,38.8z"/>
		<path class="st91" d="M82.5,48.2c-0.1-0.1-0.1-0.1-0.1-0.2v-6.5h-1.2c-0.1,0-0.2,0-0.2-0.1c-0.1-0.1-0.1-0.1-0.1-0.2v-1
			c0-0.1,0-0.2,0.1-0.2c0.1-0.1,0.1-0.1,0.2-0.1h1.2v-0.5c0-0.8,0.2-1.4,0.7-1.9c0.5-0.5,1.1-0.7,1.9-0.7h1.4c0.1,0,0.2,0,0.2,0.1
			c0.1,0.1,0.1,0.1,0.1,0.2v1c0,0.1,0,0.2-0.1,0.2c-0.1,0.1-0.1,0.1-0.2,0.1H85c-0.2,0-0.4,0.1-0.6,0.2c-0.1,0.2-0.2,0.4-0.2,0.6
			v0.6h5.4c0.2,0,0.4,0.1,0.5,0.2c0.1,0.1,0.2,0.3,0.2,0.5v6h1.2c0.1,0,0.2,0,0.2,0.1c0.1,0.1,0.1,0.1,0.1,0.2v1.1
			c0,0.1,0,0.2-0.1,0.2s-0.1,0.1-0.2,0.1h-2.2c-0.2,0-0.4-0.1-0.5-0.2c-0.1-0.1-0.2-0.3-0.2-0.5v-6h-4.4v6.5c0,0.1,0,0.2-0.1,0.2
			c-0.1,0.1-0.1,0.1-0.2,0.1h-1.1C82.6,48.3,82.6,48.2,82.5,48.2z M88.7,38.8c-0.1-0.1-0.1-0.1-0.1-0.2v-1.7c0-0.1,0-0.2,0.1-0.2
			c0.1-0.1,0.1-0.1,0.2-0.1H90c0.1,0,0.2,0,0.2,0.1c0.1,0.1,0.1,0.1,0.1,0.2v1.7c0,0.1,0,0.2-0.1,0.2c-0.1,0.1-0.1,0.1-0.2,0.1h-1.1
			C88.8,38.9,88.7,38.8,88.7,38.8z"/>
		<path class="st91" d="M94.7,47.8c-0.5-0.3-1-0.7-1.3-1.3C93.1,46,93,45.4,93,44.7v-1.6c0-0.6,0.2-1.2,0.5-1.8
			c0.3-0.5,0.7-1,1.3-1.3c0.5-0.3,1.1-0.5,1.8-0.5c0.6,0,1.2,0.2,1.8,0.5c0.5,0.3,1,0.7,1.3,1.3c0.3,0.5,0.5,1.1,0.5,1.8v1
			c0,0.2-0.1,0.3-0.2,0.4c-0.1,0.1-0.3,0.2-0.4,0.2h-4.6v0.1c0,0.5,0.2,0.9,0.5,1.2c0.3,0.3,0.7,0.5,1.2,0.5h2.3
			c0.1,0,0.2,0,0.2,0.1c0.1,0.1,0.1,0.1,0.1,0.2v1.1c0,0.1,0,0.2-0.1,0.2c-0.1,0.1-0.1,0.1-0.2,0.1h-2.3
			C95.8,48.3,95.3,48.1,94.7,47.8z M98.2,43.2v-0.1c0-0.5-0.2-0.9-0.5-1.2c-0.3-0.3-0.7-0.5-1.2-0.5c-0.5,0-0.9,0.2-1.2,0.5
			c-0.3,0.3-0.5,0.7-0.5,1.2v0.1H98.2z"/>
		<path class="st91" d="M103.3,48c-0.5-0.3-0.9-0.7-1.2-1.2c-0.3-0.5-0.4-1.1-0.4-1.7v-2c0-0.6,0.1-1.2,0.4-1.7
			c0.3-0.5,0.7-0.9,1.2-1.2c0.5-0.3,1-0.5,1.6-0.5c0.4,0,0.7,0.1,1.1,0.2s0.6,0.3,0.9,0.5v-3c0-0.1,0-0.2,0.1-0.2
			c0.1-0.1,0.1-0.1,0.2-0.1h1.1c0.1,0,0.2,0,0.2,0.1c0.1,0.1,0.1,0.1,0.1,0.2v10.6c0,0.1,0,0.2-0.1,0.2c-0.1,0.1-0.1,0.1-0.2,0.1h-1
			c-0.1,0-0.2,0-0.2-0.1s-0.1-0.1-0.1-0.2v-0.7c-0.3,0.4-0.6,0.7-1,0.9c-0.4,0.2-0.8,0.3-1.2,0.3C104.3,48.4,103.8,48.3,103.3,48z
			 M106.4,46.2c0.3-0.3,0.5-0.7,0.5-1.2v-2c0-0.5-0.2-0.9-0.5-1.2c-0.3-0.3-0.8-0.5-1.2-0.5c-0.5,0-0.9,0.2-1.2,0.5
			c-0.3,0.3-0.5,0.7-0.5,1.2v2c0,0.5,0.2,0.9,0.5,1.2c0.3,0.3,0.7,0.5,1.2,0.5C105.6,46.8,106,46.6,106.4,46.2z"/>
		<path class="st91" d="M116.9,48.3c-0.2,0-0.4-0.1-0.5-0.3l-2.6-7.7c0-0.1,0-0.1,0-0.1c0-0.1,0-0.2,0.1-0.2
			c0.1-0.1,0.2-0.1,0.3-0.1h1c0.1,0,0.2,0,0.3,0.1c0.1,0.1,0.1,0.1,0.2,0.2l1.8,5.9l1.6-5.9c0-0.1,0.1-0.2,0.2-0.2
			c0.1-0.1,0.2-0.1,0.3-0.1h1c0.1,0,0.2,0,0.3,0.1c0.1,0.1,0.1,0.1,0.2,0.2l1.8,5.9l1.7-5.9c0-0.1,0.1-0.2,0.2-0.2
			c0.1-0.1,0.2-0.1,0.3-0.1h1c0.1,0,0.2,0,0.3,0.1c0.1,0.1,0.1,0.1,0.1,0.2c0,0,0,0.1,0,0.1l-2.4,7.7c0,0.1-0.1,0.2-0.2,0.2
			c-0.1,0.1-0.2,0.1-0.3,0.1l-1.2,0c-0.1,0-0.2,0-0.3-0.1c-0.1-0.1-0.1-0.1-0.2-0.2l-1.7-5.6l-1.6,5.6c0,0.1-0.1,0.2-0.2,0.2
			c-0.1,0.1-0.2,0.1-0.3,0.1L116.9,48.3z"/>
		<path class="st91" d="M129.3,48c-0.1-0.1-0.2-0.3-0.2-0.5v-6h-1.2c-0.1,0-0.2,0-0.2-0.1c-0.1-0.1-0.1-0.1-0.1-0.2v-1.1
			c0-0.1,0-0.2,0.1-0.2c0.1-0.1,0.1-0.1,0.2-0.1h2.2c0.2,0,0.4,0.1,0.5,0.2c0.1,0.1,0.2,0.3,0.2,0.5v6h1.2c0.1,0,0.2,0,0.2,0.1
			c0.1,0.1,0.1,0.1,0.1,0.2v1.1c0,0.1,0,0.2-0.1,0.2s-0.1,0.1-0.2,0.1h-2.2C129.6,48.3,129.4,48.2,129.3,48z M129.2,38.8
			c-0.1-0.1-0.1-0.1-0.1-0.2v-1.6c0-0.1,0-0.2,0.1-0.2c0.1-0.1,0.1-0.1,0.2-0.1h1c0.1,0,0.2,0,0.2,0.1c0.1,0.1,0.1,0.1,0.1,0.2v1.6
			c0,0.1,0,0.2-0.1,0.2c-0.1,0.1-0.1,0.1-0.2,0.1h-1C129.4,38.8,129.3,38.8,129.2,38.8z"/>
		<path class="st91" d="M135.1,47.5c-0.5-0.5-0.7-1.1-0.7-1.9v-4.2h-1c-0.1,0-0.2,0-0.2-0.1c-0.1-0.1-0.1-0.1-0.1-0.2v-1
			c0-0.1,0-0.2,0.1-0.2c0.1-0.1,0.1-0.1,0.2-0.1h1v-1.6c0-0.1,0-0.2,0.1-0.2c0.1-0.1,0.1-0.1,0.2-0.1h1.1c0.1,0,0.2,0,0.2,0.1
			c0.1,0.1,0.1,0.1,0.1,0.2v1.6h2.5c0.1,0,0.2,0,0.2,0.1c0.1,0.1,0.1,0.1,0.1,0.2v1c0,0.1,0,0.2-0.1,0.2c-0.1,0.1-0.1,0.1-0.2,0.1
			h-2.5v4.1c0,0.3,0.1,0.5,0.3,0.7c0.2,0.2,0.4,0.3,0.7,0.3l1.5,0c0.1,0,0.2,0,0.2,0.1c0.1,0.1,0.1,0.1,0.1,0.2v1
			c0,0.1,0,0.2-0.1,0.2c-0.1,0.1-0.1,0.1-0.2,0.1h-1.7C136.2,48.3,135.6,48,135.1,47.5z"/>
		<path class="st91" d="M140.9,48.2c-0.1-0.1-0.1-0.1-0.1-0.2V37.3c0-0.1,0-0.2,0.1-0.2c0.1-0.1,0.1-0.1,0.2-0.1h1.1
			c0.1,0,0.2,0,0.2,0.1c0.1,0.1,0.1,0.1,0.1,0.2v3.2c0.3-0.3,0.6-0.5,1-0.7c0.4-0.2,0.7-0.2,1.1-0.2c0.6,0,1.1,0.1,1.6,0.4
			c0.5,0.3,0.8,0.6,1.1,1.1c0.3,0.5,0.4,1,0.4,1.6v5.2c0,0.1,0,0.2-0.1,0.2c-0.1,0.1-0.1,0.1-0.2,0.1h-1.1c-0.1,0-0.2,0-0.2-0.1
			c-0.1-0.1-0.1-0.1-0.1-0.2v-5c0-0.5-0.1-0.9-0.4-1.2s-0.6-0.4-1.1-0.4c-0.6,0-1,0.2-1.4,0.6c-0.3,0.4-0.5,0.9-0.5,1.6v4.5
			c0,0.1,0,0.2-0.1,0.2c-0.1,0.1-0.1,0.1-0.2,0.1h-1.1C141,48.3,140.9,48.2,140.9,48.2z"/>
	</g>
	<g>
		<path class="st91" d="M70.1,164.2c-0.9-0.5-1.6-1.3-2.1-2.3c-0.5-1-0.8-2-0.8-3.2v-9.4c0-0.1,0-0.2,0.1-0.3
			c0.1-0.1,0.2-0.1,0.3-0.1h1.8c0.1,0,0.2,0,0.3,0.1c0.1,0.1,0.1,0.2,0.1,0.3v9.5c0,1.1,0.3,1.9,0.9,2.6c0.6,0.7,1.4,1,2.3,1
			c1,0,1.7-0.3,2.3-1c0.6-0.7,0.9-1.5,0.9-2.6v-9.5c0-0.1,0-0.2,0.1-0.3c0.1-0.1,0.2-0.1,0.3-0.1h1.8c0.1,0,0.2,0,0.3,0.1
			c0.1,0.1,0.1,0.2,0.1,0.3v9.4c0,1.2-0.3,2.3-0.8,3.3c-0.5,1-1.2,1.7-2.1,2.3c-0.9,0.5-1.9,0.8-3,0.8C72,165,71,164.8,70.1,164.2z"
			/>
		<path class="st91" d="M82.7,164.6c-0.1-0.1-0.1-0.2-0.1-0.3v-14.5c0-0.3,0.1-0.5,0.3-0.7c0.2-0.2,0.4-0.3,0.7-0.3h4
			c0.9,0,1.8,0.2,2.6,0.7c0.8,0.5,1.4,1.1,1.9,1.9c0.5,0.8,0.7,1.6,0.7,2.6c0,0.9-0.2,1.8-0.7,2.6c-0.5,0.8-1.1,1.4-1.9,1.9
			c-0.8,0.5-1.7,0.7-2.6,0.7h-2.2v5.2c0,0.1,0,0.2-0.1,0.3c-0.1,0.1-0.2,0.1-0.3,0.1H83C82.9,164.7,82.8,164.7,82.7,164.6z
			 M87.4,156.5c0.7,0,1.3-0.3,1.8-0.8c0.5-0.5,0.8-1.1,0.8-1.8c0-0.7-0.3-1.3-0.8-1.8c-0.5-0.5-1.1-0.8-1.8-0.8h-2.1v5.1H87.4z"/>
		<path class="st91" d="M93.3,164.6c-0.1-0.1-0.2-0.2-0.2-0.4c0-0.1,0-0.1,0-0.2l4.8-14.9c0-0.1,0.1-0.3,0.3-0.4
			c0.1-0.1,0.3-0.1,0.4-0.1h1.7c0.2,0,0.3,0,0.4,0.1c0.1,0.1,0.2,0.2,0.3,0.4l4.8,14.9c0,0,0,0.1,0,0.2c0,0.1-0.1,0.3-0.2,0.4
			c-0.1,0.1-0.2,0.1-0.4,0.1h-1.6c-0.2,0-0.3,0-0.4-0.1s-0.2-0.2-0.3-0.4l-1-3.2h-5.2l-1,3.2c0,0.1-0.1,0.3-0.3,0.4
			s-0.3,0.1-0.4,0.1h-1.6C93.5,164.7,93.4,164.7,93.3,164.6z M101.3,158.5l-1.8-5.9l-1.8,5.9H101.3z"/>
		<path class="st91" d="M108.8,164.5c-0.2-0.2-0.3-0.4-0.3-0.7v-14.5c0-0.1,0-0.2,0.1-0.3c0.1-0.1,0.2-0.1,0.3-0.1h1.8
			c0.1,0,0.2,0,0.3,0.1c0.1,0.1,0.1,0.2,0.1,0.3v12.9h5.2c0.1,0,0.2,0,0.3,0.1c0.1,0.1,0.1,0.2,0.1,0.3v1.7c0,0.1,0,0.2-0.1,0.3
			c-0.1,0.1-0.2,0.1-0.3,0.1h-6.9C109.2,164.7,108.9,164.7,108.8,164.5z"/>
		<path class="st91" d="M119,164.6c-0.1-0.1-0.2-0.2-0.2-0.4c0-0.1,0-0.1,0-0.2l4.8-14.9c0-0.1,0.1-0.3,0.3-0.4
			c0.1-0.1,0.3-0.1,0.4-0.1h1.7c0.2,0,0.3,0,0.4,0.1c0.1,0.1,0.2,0.2,0.3,0.4l4.8,14.9c0,0,0,0.1,0,0.2c0,0.1-0.1,0.3-0.2,0.4
			c-0.1,0.1-0.2,0.1-0.4,0.1h-1.6c-0.2,0-0.3,0-0.4-0.1c-0.1-0.1-0.2-0.2-0.3-0.4l-1-3.2h-5.2l-1,3.2c0,0.1-0.1,0.3-0.3,0.4
			s-0.3,0.1-0.4,0.1h-1.6C119.3,164.7,119.1,164.7,119,164.6z M127.1,158.5l-1.8-5.9l-1.8,5.9H127.1z"/>
	</g>
	<rect x="25" y="59.3" class="st92" width="150" height="81.4"/>
	<rect x="25" y="25" class="st93" width="150" height="150"/>
	<line class="st93" x1="136.2" y1="158.6" x2="175" y2="158.6"/>
	<line class="st93" x1="25" y1="158.6" x2="62.3" y2="158.6"/>
	<line class="st93" x1="156.8" y1="43.5" x2="175" y2="43.5"/>
	<line class="st93" x1="25" y1="43.5" x2="43.2" y2="43.5"/>
	
		<image style="overflow:visible;" width="427" height="302" xlink:href="../Work/Gitcoin/Quadratic Lands/Passport/logos/upala.png"  transform="matrix(0.2149 0 0 0.2149 52.344 67.266)">
	</image>
</g>
</svg>
